<svg xmlns="http://www.w3.org/2000/svg" viewBox="0 0 56.39 24.55"><g data-name="active-btn-2"><path d="M32.38 20l.17.18a17.28 17.28 0 0 0 10.87 4.35 12.64 12.64 0 0 0 7.94-2.8 12.61 12.61 0 0 0 2.78-17.21A10.93 10.93 0 0 0 44.08.33a8.8 8.8 0 0 0-7.44 5c-1.93 4.55 0 7.3.93 8.28a5.6 5.6 0 0 0 5.84 1.57 4.4 4.4 0 0 0 2.86-4.06v-.36l-4-.24v.36c0 .46-.17.51-.23.54a1.68 1.68 0 0 1-1.56-.58c-.81-.85-.86-2.25-.14-3.95a4.87 4.87 0 0 1 4.17-2.59 6.88 6.88 0 0 1 6.36 2.53 8.51 8.51 0 0 1-2 11.75c-6.07 4.77-12.69-.58-13.53-1.27C34.22 16 28.67 9.43 23.77 4.4A14.83 14.83 0 0 0 11.56.09a12.32 12.32 0 0 0-9.38 5.83c-2.58 4.24-2.89 8.91-.84 12.82a10.39 10.39 0 0 0 8.57 5.7 9.65 9.65 0 0 0 9.47-6.13 6 6 0 0 0-1.78-7.13c-2.11-1.6-3.8-1.46-4.83-1.07-2.46.94-3.14 4-3.21 4.33l-.07.35 3.92.8.08-.35a2.71 2.71 0 0 1 .68-1.37 2 2 0 0 1 1 .51 2.1 2.1 0 0 1 .44 2.54 5.56 5.56 0 0 1-5.47 3.52 6.44 6.44 0 0 1-5.26-3.56C3.52 14.25 3.78 11 5.61 8A8.37 8.37 0 0 1 12 4.08a11 11 0 0 1 8.9 3.12c1.86 1.91 3.83 4.06 5.6 6l4 4.58z" fill="#fff" data-name="active-btn-1"/></g></svg>