<svg xmlns="http://www.w3.org/2000/svg" viewBox="0 0 512 512"><g data-name="coffee 2"><path d="M81 100c0-22.44 15.88-36.59 28.65-48C122.89 40.25 131 32.39 131 20a20 20 0 0 1 40 0c0 31-20.08 48.85-34.75 61.91C128.75 88.59 121 95.5 121 100a20 20 0 0 1-40 0zm110 20a20 20 0 0 0 20-20c0-4.5 7.75-11.41 15.25-18.09C240.92 68.85 261 51 261 20a20 20 0 0 0-40 0c0 12.39-8.11 20.25-21.35 32C186.88 63.41 171 77.56 171 100a20 20 0 0 0 20 20zm90 0a20 20 0 0 0 20-20c0-4.5 7.75-11.41 15.25-18.09C330.92 68.85 351 51 351 20a20 20 0 0 0-40 0c0 12.39-8.11 20.25-21.35 32C276.88 63.41 261 77.56 261 100a20 20 0 0 0 20 20zm231 120.27l-.06 4.87c0 39.18-17 76.17-47.85 104.17-27 24.54-61.64 39.2-92.62 39.2h-.12c-.42 0-.84 0-1.26-.06s-.55 0-.82-.06-.57-.09-.85-.13-.81-.12-1.21-.21h-.12l-.5-.14c-.45-.11-.89-.23-1.33-.37l-.69-.25c-.38-.14-.76-.28-1.13-.44s-.55-.26-.82-.4-.6-.29-.89-.46-.61-.36-.9-.55-.49-.3-.72-.46-.6-.44-.9-.67-.43-.33-.63-.5-.55-.49-.82-.74-.41-.38-.6-.58-.46-.5-.69-.76-.41-.46-.6-.7-.37-.49-.55-.74-.4-.55-.59-.84-.29-.48-.43-.72-.37-.63-.55-1-.23-.48-.35-.73-.32-.67-.46-1-.2-.54-.3-.81-.24-.66-.34-1-.17-.65-.25-1-.15-.59-.21-.89-.13-.8-.18-1.2c0-.24-.07-.48-.1-.73 0-.46-.06-.92-.07-1.38v-.63c0-.41 0-.83.06-1.24s0-.56.06-.84.09-.57.13-.85.12-.8.21-1.2v-.13L388.77 200H45.06L82.5 364.53a138.12 138.12 0 0 0 232.07 67.28 20 20 0 1 1 28.2 28.37q-6.3 6.26-13.1 11.81H414a20 20 0 0 1 0 40H20a20 20 0 0 1 0-40h84.72A178.79 178.79 0 0 1 43.5 373.4l-43-189A20 20 0 0 1 20 160h393.75a20 20 0 0 1 19.52 24.38l-8 35.62H492a20 20 0 0 1 20 20.27zM470.74 260H416.3l-18.76 83.61c32.17-11.33 66.46-41.68 73.2-83.61z" fill="#fff" data-name="coffee 1"/></g></svg>