<svg xmlns="http://www.w3.org/2000/svg" viewBox="0 0 15.2 25.6"><g data-name="Слой 2"><g data-name="Слой 1"><path d="M2.4 5.6H8v.8H2.4zm0-2.4H8V4H2.4z"/><path d="M10.4 0H1.6A1.6 1.6 0 0 0 0 1.6V20a1.6 1.6 0 0 0 1.6 1.6H8v4l2-2 2 2v-4h1.6a1.6 1.6 0 0 0 1.6-1.6V5.6zm0 1.2l3.76 4.4h-3a.86.86 0 0 1-.8-.8zm.8 22.48l-1.2-1.2-1.2 1.2v-3.12a3.12 3.12 0 0 0 2.4 0zM10 20a2 2 0 1 1 2-2 2 2 0 0 1-2 2zm4.4 0a.8.8 0 0 1-.8.8H12v-.88a2.79 2.79 0 0 0 .8-1.92 2.8 2.8 0 0 0-5.6 0 2.65 2.65 0 0 0 .8 1.92v.88H1.6a.8.8 0 0 1-.8-.8V1.6a.8.8 0 0 1 .8-.8h8v4a1.6 1.6 0 0 0 1.6 1.6h3.2z"/><path d="M2.4 8h10.4v.8H2.4zm0 4.8h10.4v.8H2.4zm0-2.4h10.4v.8H2.4z"/></g></g></svg>