<svg xmlns="http://www.w3.org/2000/svg" viewBox="0 0 511.28 512"><g data-name="el-energy 2"><path class="cls-1" d="M69.34 178.54A12.39 12.39 0 0 0 57 166.15H12.39a12.39 12.39 0 0 0 0 24.77H57a12.39 12.39 0 0 0 12.34-12.38zm429.55-12.39h-44.57a12.39 12.39 0 0 0 0 24.77h44.57a12.39 12.39 0 0 0 0-24.77zM90.47 326.19L58 358.61a12.39 12.39 0 1 0 17.52 17.52L108 343.71a12.39 12.39 0 0 0-17.52-17.52zM390.26 56.3a12.35 12.35 0 0 0 8.74-3.63l31.53-31.53A12.39 12.39 0 0 0 413 3.63l-31.5 31.53a12.38 12.38 0 0 0 8.76 21.14zm-278.02-3.64a12.39 12.39 0 1 0 17.52-17.52L98.24 3.63a12.39 12.39 0 0 0-17.52 17.51zm308.68 273.65a12.39 12.39 0 0 0-17.52 17.52l32.3 32.3a12.39 12.39 0 1 0 17.52-17.52zM255.64 33.64c-85.65 0-155.33 72.89-155.33 162.47 0 41.65 14.92 86.48 40.93 123 20 28 30.54 59.25 30.54 90.24v77.88A24.8 24.8 0 0 0 196.55 512h118.17a24.8 24.8 0 0 0 24.77-24.77v-77.88c0-31 10.56-62.19 30.54-90.24 26-36.52 40.93-81.35 40.93-123 .04-89.59-69.68-162.47-155.32-162.47zm59.08 453.59H196.55V471h59.08a12.39 12.39 0 1 0 0-24.77h-59.08v-16.2h118.17v57.17zm-76.45-231.09l-16.57-35.39h67.87L273 256.14a12.42 12.42 0 0 0-1.14 4.43l-9.61 144.71H249l-9.61-144.71a12.39 12.39 0 0 0-1.12-4.43zm111.59 48.6c-22.12 31.06-34.21 65.73-35.08 100.54h-27.69l9.34-140.75 23.83-50.91A12.39 12.39 0 0 0 309 196H202.23A12.39 12.39 0 0 0 191 213.62l23.83 50.91 9.34 140.75H196.5c-.87-34.81-13-69.49-35.08-100.54-22.75-31.94-36.34-72.55-36.34-108.63 0-75.93 58.57-137.7 130.56-137.7s130.56 61.77 130.56 137.7c-.01 36.08-13.59 76.69-36.35 108.63z" fill="#fff" data-name="el-energy 1"/></g></svg>