<svg xmlns="http://www.w3.org/2000/svg" viewBox="0 0 250.97 512"><defs><style>.cls-1{fill:#fff}</style></defs><g id="energy_2" data-name="energy 2"><g id="energy_1" data-name="energy 1"><path class="cls-1" d="M226.76 117.47h-12.19V34.71a34.71 34.71 0 1 0-69.42 0v82.77h-39.33V34.71a34.71 34.71 0 1 0-69.42 0v82.77H24.21A24.23 24.23 0 0 0 0 141.68v115.24c0 26.44 13.62 51.32 35.54 64.94a54.41 54.41 0 0 1 25.86 46.5v1.24a52.29 52.29 0 0 0 51.6 52.22v24a10.68 10.68 0 0 0 21.36 0v-24h2.94a52.3 52.3 0 0 0 52.24-52.24v-.7a56.17 56.17 0 0 1 11.95-34.63c1.36-1.71 2.41-2.83 4.1-4.63a51.83 51.83 0 0 1 9.41-7.54 75.64 75.64 0 0 0 36-64.65V141.68a24.23 24.23 0 0 0-24.24-24.21zm-36.25 197h-59.33a10.68 10.68 0 0 0 0 21.36h44.42a77.72 77.72 0 0 0-7.39 33v.7a30.92 30.92 0 0 1-30.88 30.88h-23.68a30.92 30.92 0 0 1-30.88-30.81v-1.24a75.63 75.63 0 0 0-36-64.65C31.11 294 21.36 276 21.36 256.92V141.68a2.85 2.85 0 0 1 2.85-2.85h202.55a2.85 2.85 0 0 1 2.85 2.85v115.78A54.41 54.41 0 0 1 203.75 304a73 73 0 0 0-13.24 10.51zM57.76 34.71a13.35 13.35 0 0 1 26.7 0v82.77h-26.7zm108.75 0a13.35 13.35 0 1 1 26.7 0v82.77h-26.7z"/><path class="cls-1" d="M161.51 163.5a10.68 10.68 0 0 0-15.1 0l-57 57A10.68 10.68 0 0 0 97 238.69h31.17L90.88 276a10.68 10.68 0 1 0 15.1 15.1l55.53-55.53a10.68 10.68 0 0 0-7.51-18.24h-31.21l38.73-38.73a10.68 10.68 0 0 0-.01-15.1zM123.7 472.84a10.68 10.68 0 0 0-10.7 10.68v17.8a10.68 10.68 0 1 0 21.36 0v-17.8a10.68 10.68 0 0 0-10.66-10.68z"/></g></g></svg>