<svg xmlns="http://www.w3.org/2000/svg" viewBox="0 0 489.6 309.38"><defs><style>.cls-1{fill:#fff}</style></defs><g id="Слой_2" data-name="Слой 2"><g id="Слой_1-2" data-name="Слой 1"><path class="cls-1" d="M355.79 96.83c-32.3-21-70.69-32-111-32s-78.69 11.07-111 32c-31.56 20.47-55.43 49.75-67.22 82.44A12.89 12.89 0 1 0 90.83 188c21-58.28 82.88-97.44 154-97.44s133 39.16 154 97.44a12.89 12.89 0 0 0 24.17-8.73c-11.77-32.7-35.64-61.98-67.21-82.44z"/><path class="cls-1" d="M488.48 145.68c-19-42.61-51.8-78.95-94.92-105.08C349.75 14 298.31 0 244.8 0S139.85 14 96 40.6C52.93 66.74 20.1 103.08 1.12 145.69a12.89 12.89 0 1 0 23.54 10.49c34.75-78 123.22-130.4 220.14-130.4s185.39 52.4 220.14 130.4a12.89 12.89 0 1 0 23.54-10.49z"/><path class="cls-1" d="M312.17 163.52c-18.43-14.91-42.36-23.12-67.37-23.12s-48.94 8.21-67.37 23.12c-18.81 15.21-30.25 36-32.22 58.42a12.89 12.89 0 0 0 11.71 14c.38 0 .77.05 1.14.05a12.89 12.89 0 0 0 12.82-11.76c2.85-32.53 35.32-58 73.92-58s71.07 25.48 73.92 58a12.89 12.89 0 0 0 25.67-2.25c-1.96-22.5-13.39-43.25-32.22-58.46z"/><path class="cls-1" d="M244.8 210.11a49.64 49.64 0 1 0 49.64 49.64 49.69 49.69 0 0 0-49.64-49.64zm0 73.5a23.86 23.86 0 1 1 23.86-23.86 23.89 23.89 0 0 1-23.86 23.85z"/></g></g></svg>