<svg xmlns="http://www.w3.org/2000/svg" width="25.64" height="25.65"><g data-name="fullscreen-min 2"><path d="M16.5 15.73H22v1.56h-3.61l7.26 7.26-1.1 1.1-7.26-7.26V22h-1.57v-5.49a.78.78 0 0 1 .78-.78zm-6.58.78V22H8.36v-3.61L1.1 25.65 0 24.55l7.26-7.26H3.67v-1.56h5.47a.78.78 0 0 1 .78.78zm7.36-9.24L24.54 0l1.1 1.11-7.26 7.26H22v1.56h-5.5a.78.78 0 0 1-.78-.78V3.68h1.56zM8.36 3.68h1.56v5.47a.78.78 0 0 1-.78.78H3.67V8.36h3.59L0 1.11 1.1 0l7.26 7.26z" fill="#fff" data-name="fullscreen-min 1"/></g></svg>