<svg xmlns="http://www.w3.org/2000/svg" viewBox="0 0 512 511.98"><defs><style>.cls-1{fill:#fff}</style></defs><g id="hockey_2" data-name="hockey 2"><g id="hockey_1" data-name="hockey 1"><path class="cls-1" d="M206.87 139.62C220.24 146.31 237.69 150 256 150s35.76-3.68 49.13-10.37C321.81 131.28 331 119 331 105V45c0-14-9.19-26.29-25.86-34.63C291.76 3.68 274.31 0 256 0s-35.76 3.68-49.13 10.37C190.19 18.71 181 31 181 45v60c0 14 9.19 26.29 25.87 34.62zM220.28 37.2c9.16-4.58 22.18-7.2 35.72-7.2s26.56 2.62 35.72 7.2C299.39 41 301 44.48 301 45s-1.61 4-9.28 7.8C282.56 57.37 269.54 60 256 60s-26.56-2.62-35.72-7.2C212.62 49 211 45.52 211 45s1.62-4 9.28-7.8zM211 81.53C223.74 87 239.52 90 256 90s32.26-3 45-8.47V105c0 .52-1.61 4-9.28 7.8-9.15 4.58-22.17 7.2-35.72 7.2s-26.56-2.62-35.72-7.2c-7.66-3.8-9.28-7.28-9.28-7.8z"/><path class="cls-1" d="M452 392l-111.68.08L310 347.53 503.81 70.9a45 45 0 1 0-73.65-51.72L255.22 269 81.82 19.16A45 45 0 0 0 8.15 70.85l192.13 276.66-31.2 44.56L60 392a60 60 0 1 0 0 120h134.82l59.7-85.22L314.44 512H452a60 60 0 1 0 0-120zm2.74-355.57a15 15 0 0 1 24.54 17.25L348.73 240h-36.55zM291.18 270h36.54l-21 30h-36.55zM32.74 53.66a15 15 0 0 1 24.49-17.33L198.54 240h-36.4zM183 270h36.39l17.52 25.25-3.36 4.75H203.8zm-3.76 212H60a30 30 0 0 1 0-60.1l124.7.09 64.48-92h36.52zM452 482H330l-57.2-81.35 18.79-26.82L324.43 422l127.57-.12a30 30 0 0 1 0 60.1z"/></g></g></svg>