<svg xmlns="http://www.w3.org/2000/svg" viewBox="0 0 263.83 365.45"><defs><style>.cls-1{fill:#fff}</style></defs><g id="Слой_2" data-name="Слой 2"><g id="Слой_1-2" data-name="Слой 1"><path class="cls-1" d="M131.92 0C59.18 0 0 59.18 0 131.92c0 39.32 25.64 100.82 47.6 141.53 18.53 34.36 54.13 92 84.32 92s65.78-57.64 84.32-92c22-40.71 47.6-102.2 47.6-141.53C263.83 59.18 204.66 0 131.92 0zm0 343.45c-9 0-35-25-65-80.44-27.31-50.64-45-102.1-45-131.08a109.92 109.92 0 1 1 219.83 0c0 29-17.65 80.44-45 131.08-29.81 55.48-55.88 80.44-64.83 80.44z"/><path class="cls-1" d="M225.22 133.9a93.3 93.3 0 1 0-93.3 93.31 93.41 93.41 0 0 0 93.3-93.31zm-93.3 71.31a71.3 71.3 0 1 1 71.3-71.31 71.39 71.39 0 0 1-71.3 71.3z"/><path class="cls-1" d="M162.61 116.88h-13.68V103.2a13.52 13.52 0 0 0-13.5-13.51h-7a13.52 13.52 0 0 0-13.53 13.51v13.68h-13.68a13.52 13.52 0 0 0-13.5 13.5v7a13.52 13.52 0 0 0 13.5 13.5h13.68v13.68a13.52 13.52 0 0 0 13.51 13.51h7a13.52 13.52 0 0 0 13.5-13.51v-13.65h13.68a13.52 13.52 0 0 0 13.51-13.5v-7a13.52 13.52 0 0 0-13.49-13.53z"/></g></g></svg>