<svg xmlns="http://www.w3.org/2000/svg" viewBox="0 0 180 181.13"><defs><style>.cls-1{fill:#231f20}</style></defs><g id="info_2" data-name="info 2"><g id="info_1-2" data-name="info 1"><path class="cls-1" d="M145.43 0H35.1C15.91 0 0 15.41 0 34.6v139.33a7.37 7.37 0 0 0 12.28 5.32l26.42-24.08 1.89-1.72c1.42-1.31 2.9-2.66 3.5-3.06.58-.07 2.06-.05 3.38 0s2.76 0 4.59 0h93.38A34.61 34.61 0 0 0 180 115.64v-81A34.47 34.47 0 0 0 145.43 0zm20.17 115.64A20.2 20.2 0 0 1 145.43 136H47.76c-8.62-.18-10.31.79-16.92 6.89-.55.5-1.3 1.07-2 1.68L14.4 157.61V34.6c0-11.25 9.45-20.2 20.7-20.2h110.33a20.06 20.06 0 0 1 20.17 20.2z"/><path class="cls-1" d="M90 34a9.22 9.22 0 0 0-9.54 9.37 9 9 0 0 0 9.19 9.2c6.07 0 9.88-4.09 9.71-9.2A9 9 0 0 0 90 34zm0 33.07a7.63 7.63 0 0 0-7.63 7.63V114a7.63 7.63 0 1 0 15.26 0V74.7A7.63 7.63 0 0 0 90 67.07z"/></g></g></svg>