<svg xmlns="http://www.w3.org/2000/svg" viewBox="0 0 512 512"><defs><style>.cls-1{fill:#fff}</style></defs><g id="Слой_2" data-name="Слой 2"><g id="Capa_1" data-name="Capa 1"><path class="cls-1" d="M352 0H160A160 160 0 0 0 0 160v192a160 160 0 0 0 160 160h192a160 160 0 0 0 160-160V160A160 160 0 0 0 352 0zm112 352a112.12 112.12 0 0 1-112 112H160A112.12 112.12 0 0 1 48 352V160A112.12 112.12 0 0 1 160 48h192a112.12 112.12 0 0 1 112 112z"/><path class="cls-1" d="M256 128a128 128 0 1 0 128 128 128 128 0 0 0-128-128zm0 208a80 80 0 1 1 80-80 80.11 80.11 0 0 1-80 80z"/><circle class="cls-1" cx="393.6" cy="118.4" r="17.06"/></g></g></svg>