<svg xmlns="http://www.w3.org/2000/svg" viewBox="0 0 118.65 99.18"><defs><style>.cls-1{fill:#808084}</style></defs><g id="Слой_2" data-name="Слой 2"><g id="Слой_1-2" data-name="Слой 1"><path class="cls-1" d="M61.83 44.2l.14.14a13.39 13.39 0 0 0 8.42 3.37 10 10 0 0 0 8.31-15.53 8.49 8.49 0 0 0-7.8-3.25 6.82 6.82 0 0 0-5.76 3.88c-1.5 3.53 0 5.66.72 6.42a4.34 4.34 0 0 0 4.53 1.22 3.43 3.43 0 0 0 2.22-3.15v-.28l-3.1-.18v.28c0 .35-.13.39-.18.41a1.3 1.3 0 0 1-1.21-.44c-.63-.66-.67-1.75-.11-3.06a3.79 3.79 0 0 1 3.24-2 5.34 5.34 0 0 1 4.93 2 6.59 6.59 0 0 1-1.54 9.1c-4.72 3.69-9.85-.43-10.5-1-.86-1-5.16-6.11-9-10a11.49 11.49 0 0 0-9.46-3.34 9.54 9.54 0 0 0-7.26 4.51 9.94 9.94 0 0 0-.65 9.94 8 8 0 0 0 6.64 4.42 7.48 7.48 0 0 0 7.34-4.75 4.64 4.64 0 0 0-1.38-5.52 3.78 3.78 0 0 0-3.75-.83c-1.91.72-2.43 3.08-2.49 3.35l-.06.27 3 .62.06-.27a2.14 2.14 0 0 1 .53-1.06 1.56 1.56 0 0 1 .79.4 1.62 1.62 0 0 1 .34 2 4.31 4.31 0 0 1-4.24 2.73 5 5 0 0 1-4.08-2.76 6.91 6.91 0 0 1 .56-6.88 6.5 6.5 0 0 1 5-3 8.47 8.47 0 0 1 6.89 2.42c1.44 1.48 3 3.14 4.34 4.68v33.5l-.2.15.2.14v.13h.19l1.4 1 1.33-1h.18v-.14l.19-.14-.19-.15v-3.04h9.74l.13.06v-.06h.15v-.2l.98-1.31-.94-1.4v-.2h-.16l-.05-.08-.21.08h-9.62v-4.6h9.49l.39.06v-.06h.11v-.15l.95-1.34-.94-1.44v-.17h-.08l-.1-.16-.2.16h-9.62V42.49c.88 1.02 1.43 1.68 1.45 1.71z"/><path class="cls-1" d="M59.29 30.24a4.9 4.9 0 1 0-4.9-4.9 4.91 4.91 0 0 0 4.9 4.9zm-1.79-4.9a1.79 1.79 0 1 1 1.79 1.79 1.8 1.8 0 0 1-1.8-1.79zM18.14 47h.28l.37-2.8V44a11.33 11.33 0 0 0-2-8.06 15.15 15.15 0 0 0-7.4-4.78l-1.75-.43-.18 1.79C7 37 8.67 45.77 18.14 47zm-2.41-3.85c-4-1.75-5-5.73-5.17-8.27a11.29 11.29 0 0 1 3.79 3 8 8 0 0 1 1.38 5.29zm86.8 2.15l2.78-.53.27-.06a11.33 11.33 0 0 0 7-4.44 15.12 15.12 0 0 0 2.21-8.53l-.14-1.79-1.76.4c-4.39 1-12.22 5.34-10.43 14.72zm2.84-3.77c.41-4.31 3.88-6.51 6.22-7.51a11.3 11.3 0 0 1-1.59 4.52 8 8 0 0 1-4.63 2.99z"/><path class="cls-1" d="M115.79 44.6l-.11.26c-4.2 9.87-14.58 8.7-18.16 8l3.27-40-3.1-.25L94 58.11a44.72 44.72 0 0 1-7.09 14.34A35.1 35.1 0 0 1 61 87.1a38 38 0 0 1-27.55-15.83 47.09 47.09 0 0 1-7.1-13.93l-3.54-46.8-3.1.23L23 53.63c-3.41 1-14.73 3.44-20-8.08l-.12-.25L0 46.59l.12.25c4.09 8.9 11.29 10.77 16.62 10.77a26.12 26.12 0 0 0 6.46-.84l.07 1v.25a48 48 0 0 0 6.47 13.47 25.46 25.46 0 0 1-5.47 2C20.8 60.6 7 60 6.91 60H5l.28 1.84c.05.36 1.39 8.77 7.49 13a13.51 13.51 0 0 0 9 2.17 5.41 5.41 0 0 1-1 3.81c-1.67 2.13-4.89 2.42-5 2.43h-.27l.21 3.1h.28c.19 0 4.69-.35 7.25-3.6a8.47 8.47 0 0 0 1.65-6.22A34.63 34.63 0 0 0 30 74.84c.76-.31 1.32-.56 1.72-.75a45.18 45.18 0 0 0 4.25 4.71C34.35 88.7 23 95 22.93 95.1l-.24.13L24.18 98l.25-.13c.51-.28 11.43-6.39 14.19-16.66a41.12 41.12 0 0 0 21.86 9v.1h.95v-.09a38.33 38.33 0 0 0 19.77-7.53C84.24 93 95.58 98.8 96.1 99.06l.25.13 1.39-2.78-.25-.13c-.12-.06-11.66-5.94-13.61-15.82a41.48 41.48 0 0 0 4.7-5A27.81 27.81 0 0 0 93.45 77a8.47 8.47 0 0 0 1.65 6.22c2.56 3.25 7.06 3.59 7.25 3.6h.28l.21-3.1h-.28s-3.34-.29-5-2.42a5.4 5.4 0 0 1-1-3.83 13.5 13.5 0 0 0 9-2.17c6.1-4.24 7.44-12.66 7.49-13l.28-1.84-1.86.06c-.14 0-13.89.58-17.4 13.42a25 25 0 0 1-3.55-1.12A46.42 46.42 0 0 0 97 58.72l.23-2.8a27.58 27.58 0 0 0 4.73.42c5.56 0 12.94-1.78 16.55-10.26l.11-.26zM21.21 73.9a10.31 10.31 0 0 1-6.62-1.63c-3.34-2.32-5-6.4-5.7-8.88 3.26.61 10.02 2.81 12.32 10.51zm75.93.51c2.3-7.7 9.06-9.9 12.33-10.52-.73 2.49-2.37 6.56-5.7 8.89a10.3 10.3 0 0 1-6.63 1.63z"/><path class="cls-1" d="M58.27 15.38c1.05 0 2.12.07 3.17.07 13.07 0 26.17-3.72 40-11.38l.24-.14-1.5-2.72-.25.14C72.68 16.42 48.36 16 21.13.14L20.89 0l-1.57 2.68.24.14C33 10.69 45.68 14.79 58.27 15.38z"/></g></g></svg>