<svg xmlns="http://www.w3.org/2000/svg" viewBox="0 0 56.39 68.91"><defs><style>.cls-1{fill:#fff}</style></defs><g id="key-logo_2" data-name="key-logo 2"><g id="key-logo_1-2" data-name="key-logo 1"><path class="cls-1" d="M32.38 30.66l.18.18a17.27 17.27 0 0 0 10.86 4.35 12.94 12.94 0 0 0 10.72-20A11 11 0 0 0 44.08 11a8.8 8.8 0 0 0-7.43 5c-1.93 4.56 0 7.31.93 8.28a5.6 5.6 0 0 0 5.84 1.58 4.42 4.42 0 0 0 2.86-4.06v-.36l-4-.24v.36c0 .46-.17.51-.23.53a1.68 1.68 0 0 1-1.56-.57c-.81-.85-.86-2.26-.14-3.95A4.88 4.88 0 0 1 44.51 15a6.89 6.89 0 0 1 6.36 2.53 8.5 8.5 0 0 1-2 11.74C42.8 34 36.18 28.67 35.34 28c-1.12-1.38-6.67-7.93-11.57-13a14.83 14.83 0 0 0-12.21-4.31 12.31 12.31 0 0 0-9.37 5.82c-2.59 4.29-2.9 8.96-.85 12.87a10.38 10.38 0 0 0 8.57 5.7 9.65 9.65 0 0 0 9.47-6.13 6 6 0 0 0-1.78-7.12c-2.12-1.6-3.8-1.47-4.84-1.07-2.46.93-3.14 4-3.21 4.33l-.07.35 3.93.8.07-.35a2.76 2.76 0 0 1 .68-1.37 2 2 0 0 1 1 .51 2.09 2.09 0 0 1 .44 2.53 5.56 5.56 0 0 1-5.47 3.52 6.41 6.41 0 0 1-5.26-3.56c-1.38-2.63-1.12-5.87.72-8.88A8.38 8.38 0 0 1 12 14.72a10.93 10.93 0 0 1 8.89 3.12c1.86 1.91 3.83 4.05 5.6 6v43.27l-.25.19.25.18v.17h.24l1.81 1.26 1.72-1.26h.24v-.18l.25-.18-.25-.19v-3.78H43l.17.08.06-.08h.19v-.25l1.22-1.65-1.21-1.81v-.3h-.2l-.07-.11-.21.11H30.51v-5.93h12.25l.51.08.06-.08h.14v-.19l1.22-1.73-1.22-1.86v-.23h-.15l-.13-.2-.24.2H30.51V28.46c1.13 1.32 1.84 2.17 1.87 2.2z"/><path class="cls-1" d="M29.1 12.65a6.33 6.33 0 1 0-6.33-6.33 6.33 6.33 0 0 0 6.33 6.33zm-2.32-6.32a2.32 2.32 0 1 1 2.32 2.31 2.32 2.32 0 0 1-2.32-2.31z"/></g></g></svg>