<svg xmlns="http://www.w3.org/2000/svg" viewBox="0 0 372.35 238.07"><defs><style>.cls-1{fill:#fff}</style></defs><g id="logo_2" data-name="logo 2"><g id="logo_1-2" data-name="logo 1"><path class="cls-1" d="M187.17 57l.18.18a17.27 17.27 0 0 0 10.86 4.35 12.94 12.94 0 0 0 10.72-20 11 11 0 0 0-10.06-4.19 8.8 8.8 0 0 0-7.43 5c-1.93 4.56 0 7.31.93 8.28a5.6 5.6 0 0 0 5.84 1.58 4.42 4.42 0 0 0 2.86-4.06v-.36l-4-.24v.36c0 .46-.17.51-.23.53a1.68 1.68 0 0 1-1.56-.57c-.81-.85-.86-2.26-.14-3.95a4.88 4.88 0 0 1 4.18-2.59 6.89 6.89 0 0 1 6.36 2.53 8.5 8.5 0 0 1-2 11.74c-6.09 4.76-12.71-.56-13.55-1.28-1.13-1.31-6.67-7.87-11.57-12.9a14.83 14.83 0 0 0-12.21-4.31 12.31 12.31 0 0 0-9.35 5.83c-2.58 4.24-2.89 8.91-.85 12.82a10.38 10.38 0 0 0 8.57 5.7 9.65 9.65 0 0 0 9.47-6.13 6 6 0 0 0-1.78-7.12c-2.12-1.6-3.8-1.47-4.84-1.07-2.46.93-3.14 4-3.21 4.33l-.07.35 3.93.8.07-.35a2.76 2.76 0 0 1 .68-1.37 2 2 0 0 1 1 .51 2.09 2.09 0 0 1 .44 2.53 5.56 5.56 0 0 1-5.47 3.52 6.41 6.41 0 0 1-5.26-3.56c-1.38-2.63-1.12-5.87.72-8.88a8.38 8.38 0 0 1 6.4-3.93 10.93 10.93 0 0 1 8.89 3.12c1.86 1.91 3.83 4.05 5.6 6v43.27l-.25.19.25.18V94h.24l1.81 1.26 1.72-1.26h.24v-.18l.25-.18-.25-.19v-3.76h12.54l.17.08.06-.08h.19v-.25l1.22-1.65-1.22-1.79v-.3h-.2l-.07-.11-.21.11H185.3v-5.96h12.25l.51.08.06-.08h.14v-.19l1.22-1.73-1.22-1.82v-.23h-.15l-.13-.2-.24.2H185.3V54.83c1.13 1.32 1.84 2.17 1.87 2.17z"/><path class="cls-1" d="M183.89 39a6.33 6.33 0 1 0-6.33-6.33 6.33 6.33 0 0 0 6.33 6.33zm-2.32-6.33a2.32 2.32 0 1 1 2.32 2.33 2.32 2.32 0 0 1-2.32-2.31zm-50.78 28h.36l.48-3.62v-.36c.35-3-.13-7.35-2.59-10.4a19.54 19.54 0 0 0-9.54-6.17l-2.25-.56-.25 2.36c-.57 5.78 1.58 17.14 13.79 18.75zm-3.11-5c-5.11-2.26-6.39-7.39-6.67-10.67a14.57 14.57 0 0 1 4.89 3.81 10.3 10.3 0 0 1 1.79 6.9zm112.01 2.79l3.58-.69.35-.07v-.06c2.94-.61 6.94-2.43 9.06-5.73a19.51 19.51 0 0 0 2.85-11l-.18-2.31-2.26.51c-5.67 1.28-15.77 6.9-13.46 19zm3.66-4.87c.53-5.56 5-8.4 8-9.69a14.58 14.58 0 0 1-2.08 5.84 10.3 10.3 0 0 1-5.92 3.85z"/><path class="cls-1" d="M256.8 57.55l-.14.33c-5.42 12.73-18.81 11.23-23.44 10.28l4.22-51.56-4-.33L228.66 75a57.71 57.71 0 0 1-9.15 18.51c-8.37 11.27-19.61 17.63-33.4 18.89-14.68-1.53-26.64-8.4-35.55-20.42a60.76 60.76 0 0 1-9.16-18l-4.57-60.39-4 .3L137 69.21c-4.4 1.34-19 4.44-25.83-10.43l-.15-.33-3.65 1.67.15.33c5.27 11.48 14.57 13.89 21.44 13.89a33.7 33.7 0 0 0 8.34-1.08l.1 1.26.06.32a61.94 61.94 0 0 0 8.35 17.38 32.85 32.85 0 0 1-7.06 2.55c-4.53-16.57-22.28-17.32-22.46-17.32l-2.41-.08.36 2.38c.07.46 1.8 11.32 9.67 16.8a17.43 17.43 0 0 0 11.62 2.8 7 7 0 0 1-1.29 4.92c-2.15 2.75-6.31 3.13-6.48 3.14h-.35l.27 4h.36c.25 0 6-.45 9.35-4.65a10.93 10.93 0 0 0 2.13-8 44.69 44.69 0 0 0 6.56-2.16c1-.41 1.7-.72 2.22-1a58.3 58.3 0 0 0 5.49 6.08c-2.06 12.78-16.65 21-16.8 21l-.32.17 1.93 3.52.32-.17c.65-.36 14.75-8.24 18.31-21.5a53.06 53.06 0 0 0 28.21 11.61v.13h1.22v-.12a49.46 49.46 0 0 0 25.52-9.71c3.89 13.35 18.53 20.84 19.2 21.17l.32.16 1.8-3.59-.32-.16c-.15-.08-15-7.66-17.57-20.42a53.52 53.52 0 0 0 6.07-6.49 35.89 35.89 0 0 0 6.32 2.11 10.93 10.93 0 0 0 2.13 8c3.3 4.19 9.1 4.63 9.35 4.65h.36l.27-4h-.36s-4.3-.37-6.47-3.13a7 7 0 0 1-1.3-4.94 17.43 17.43 0 0 0 11.62-2.8c7.87-5.47 9.6-16.34 9.67-16.8l.36-2.38-2.41.08c-.18 0-17.92.75-22.46 17.32a32.19 32.19 0 0 1-4.61-1.39 59.9 59.9 0 0 0 8.45-18.22l.3-3.61a35.59 35.59 0 0 0 6.1.54c7.17 0 16.69-2.3 21.35-13.24l.14-.33zm-122 37.8a13.3 13.3 0 0 1-8.55-2.1c-4.31-3-6.42-8.26-7.36-11.46 4.17.79 12.9 3.63 15.86 13.56zm98 .66c3-9.93 11.69-12.77 15.91-13.57-.94 3.21-3.05 8.47-7.36 11.47a13.29 13.29 0 0 1-8.62 2.09z"/><path class="cls-1" d="M182.58 19.84c1.36.06 2.73.09 4.09.09 16.87 0 33.77-4.81 51.68-14.69l.32-.17-1.94-3.51-.32.17c-35.24 19.45-66.62 19-101.76-1.55l-.31-.18-2 3.46.31.18c17.35 10.15 33.68 15.45 49.93 16.2zM0 188.73A9.93 9.93 0 0 1 .77 185 10.21 10.21 0 0 1 3 181.6a11.37 11.37 0 0 1 3.58-2.4 11.92 11.92 0 0 1 4.8-.92 11.49 11.49 0 0 1 5.55 1.27 8.57 8.57 0 0 1 3.5 3.32l-4 2.61a4.34 4.34 0 0 0-1-1.38 5.34 5.34 0 0 0-1.29-.89 5.59 5.59 0 0 0-1.44-.47 8.06 8.06 0 0 0-1.44-.13 5.76 5.76 0 0 0-2.62.56 5.68 5.68 0 0 0-1.85 1.45 5.86 5.86 0 0 0-1.09 2 7.59 7.59 0 0 0-.35 2.28 7 7 0 0 0 .42 2.4 6.25 6.25 0 0 0 1.2 2 5.66 5.66 0 0 0 4.36 1.92 6.82 6.82 0 0 0 1.46-.16 6.11 6.11 0 0 0 1.44-.5 5.12 5.12 0 0 0 1.26-.89 4.14 4.14 0 0 0 .93-1.35l4.28 2.34a6.17 6.17 0 0 1-1.52 2.07 9.36 9.36 0 0 1-2.32 1.54 13 13 0 0 1-2.78.95 13.3 13.3 0 0 1-2.88.33 10.86 10.86 0 0 1-4.52-.93 11.42 11.42 0 0 1-3.55-2.47 11.2 11.2 0 0 1-2.3-3.49 10.22 10.22 0 0 1-.83-3.93zm42.71 6.42v4.26h-16v-21h15.71v4.26H32v4.08h9v3.94h-9v4.47zm7.39 4.27v-21h9.69a7.09 7.09 0 0 1 3 .62 7.63 7.63 0 0 1 2.33 1.63 7.72 7.72 0 0 1 1.53 2.28 6.35 6.35 0 0 1 .56 2.58 6.89 6.89 0 0 1-.53 2.66 7.52 7.52 0 0 1-1.47 2.28 6.91 6.91 0 0 1-2.29 1.6 7.28 7.28 0 0 1-3 .59h-4.6v6.78zm5.24-11h4.28a2.09 2.09 0 0 0 1.6-.74 3.11 3.11 0 0 0 .67-2.16 3.51 3.51 0 0 0-.21-1.27 2.58 2.58 0 0 0-.56-.89 2.16 2.16 0 0 0-.8-.52 2.61 2.61 0 0 0-.9-.16h-4.08zm34.08 6.73v4.26h-16v-21h15.71v4.26H78.71v4.08h9v3.94h-9v4.47zm7.38-16.75h17v4.26h-11.7v4h5.5a9 9 0 0 1 5.74 1.64 5.58 5.58 0 0 1 2.06 4.63 5.92 5.92 0 0 1-2 4.77 8.38 8.38 0 0 1-5.59 1.69h-11zm10.39 16.9a3.07 3.07 0 0 0 2.09-.64 2.46 2.46 0 0 0 0-3.46 3 3 0 0 0-2.11-.67h-5.12v4.77zm15.25 4.12v-21h9.69a7.09 7.09 0 0 1 3 .62 7.63 7.63 0 0 1 2.33 1.63 7.72 7.72 0 0 1 1.53 2.28 6.35 6.35 0 0 1 .56 2.58 6.89 6.89 0 0 1-.53 2.66 7.52 7.52 0 0 1-1.47 2.28 6.91 6.91 0 0 1-2.29 1.6 7.28 7.28 0 0 1-3 .59h-4.6v6.78zm5.24-11H132a2.09 2.09 0 0 0 1.6-.74 3.11 3.11 0 0 0 .67-2.16 3.51 3.51 0 0 0-.21-1.27 2.58 2.58 0 0 0-.56-.89 2.16 2.16 0 0 0-.8-.52 2.61 2.61 0 0 0-.9-.16h-4.09zm29.86 11v-7.58h-2.72l-5.05 7.58h-5.69l5.5-8.14a6.39 6.39 0 0 1-4.12-6.16 6.22 6.22 0 0 1 .56-2.63 6.81 6.81 0 0 1 1.53-2.13 7 7 0 0 1 2.33-1.44 8.32 8.32 0 0 1 3-.52h9.91v21zm0-16.87h-4a3.21 3.21 0 0 0-1 .16 2.91 2.91 0 0 0-.9.47 2.24 2.24 0 0 0-.64.8 2.56 2.56 0 0 0-.24 1.14 2.33 2.33 0 0 0 .8 1.94 3 3 0 0 0 1.92.64h4.06zm32.71-4.15v21H185v-8.6h-9v8.61h-5.24v-21H176v8.14h9v-8.15zm7.93 0h5.28v7.19h4a11.2 11.2 0 0 1 3.31.46 7.32 7.32 0 0 1 2.54 1.33 5.9 5.9 0 0 1 1.63 2.15 6.89 6.89 0 0 1 .58 2.87 7.45 7.45 0 0 1-.56 3 6 6 0 0 1-1.6 2.21 7.11 7.11 0 0 1-2.48 1.38 10.17 10.17 0 0 1-3.2.47h-9.53zm5.28 16.9h3.61a3.19 3.19 0 0 0 2.35-.78 3.23 3.23 0 0 0 0-4.23 3.06 3.06 0 0 0-2.33-.84h-3.61zm14.93 4.12v-21h5.24v21zm17.7-7.55l10.68-13.47h3.9v21h-5.24v-13.13l-10.55 13.14h-4.06v-21h5.28zm11.32-19.57a3.65 3.65 0 0 1-.45 1.79 4.13 4.13 0 0 1-1.26 1.39 6.42 6.42 0 0 1-1.93.9 9.7 9.7 0 0 1-5 0 6.43 6.43 0 0 1-1.93-.9 4.14 4.14 0 0 1-1.26-1.39 3.65 3.65 0 0 1-.45-1.79h3.17a1.24 1.24 0 0 0 .24.73 2.21 2.21 0 0 0 .64.59 3.46 3.46 0 0 0 .94.4 4.32 4.32 0 0 0 1.15.15 3.67 3.67 0 0 0 2-.53 2.05 2.05 0 0 0 1-1.33zm27.21 14.45h1.18l6.62-8.35h5.91l-8.15 10.15 8.89 10.86h-5.85l-6.94-8.26h-1.66v8.26h-5.24v-21h5.24zm28.99-1.07a55.63 55.63 0 0 1-1 6.67 13 13 0 0 1-1.71 4.29 6 6 0 0 1-2.78 2.29 11.37 11.37 0 0 1-4.22.68l-.16-4.26a5.49 5.49 0 0 0 1.93-.52 3.16 3.16 0 0 0 1.33-1.53 13 13 0 0 0 .91-3.24q.37-2.1.72-5.62l.58-6h14.74v21h-5.24v-16.78h-4.73zm36.89 13.91a11.18 11.18 0 0 1-3.84-.64 9.84 9.84 0 0 1-3.1-1.79 9.63 9.63 0 0 1-2.21-2.75 11.2 11.2 0 0 1-1.18-3.49h-3.1v8.5h-5.24v-21h5.24v8.29h3.13a9.92 9.92 0 0 1 1.23-3.43 9.78 9.78 0 0 1 2.29-2.65 10.32 10.32 0 0 1 3.12-1.72 11.38 11.38 0 0 1 3.76-.61 10.89 10.89 0 0 1 4.33.83 10.12 10.12 0 0 1 3.33 2.26 10 10 0 0 1 2.14 3.39 12.22 12.22 0 0 1 0 8.57 9.88 9.88 0 0 1-2.21 3.36 9.65 9.65 0 0 1-3.37 2.15 11.82 11.82 0 0 1-4.32.73zm-5.18-10.66a7.33 7.33 0 0 0 1.33 4.65 4.64 4.64 0 0 0 3.88 1.69 5.5 5.5 0 0 0 2.33-.46 4.4 4.4 0 0 0 1.65-1.3 5.88 5.88 0 0 0 1-2 9.53 9.53 0 0 0 .33-2.6 7 7 0 0 0-1.37-4.62 4.82 4.82 0 0 0-3.93-1.66 4.58 4.58 0 0 0-3.9 1.73 7.44 7.44 0 0 0-1.31 4.58zm31.88-10.53h5.15v21h-5.15v-7.84a10.23 10.23 0 0 1-2.06.58 17.18 17.18 0 0 1-2.86.19 9.18 9.18 0 0 1-3.39-.55 5.58 5.58 0 0 1-3.47-3.82 10.55 10.55 0 0 1-.37-2.86v-6.7h5.15v5.24a5.13 5.13 0 0 0 .83 3.21 3.64 3.64 0 0 0 3 1.05 9.2 9.2 0 0 0 1.82-.16 4.83 4.83 0 0 0 1.34-.46zM70.21 224h2.13l-4.46 5.21 4.76 5.49h-2.1l-3.89-4.7h-1.33v4.69h-1.87V224h1.87v4.65h1.11zm10.48 10.92a5.88 5.88 0 0 1-2.34-.45 5.61 5.61 0 0 1-1.8-1.21 5.4 5.4 0 0 1-1.16-1.76 5.49 5.49 0 0 1-.41-2.11 5.43 5.43 0 0 1 .42-2.13 5.54 5.54 0 0 1 1.17-1.76 5.6 5.6 0 0 1 1.8-1.21 5.82 5.82 0 0 1 2.31-.45 5.9 5.9 0 0 1 2.33.45 5.47 5.47 0 0 1 3 3 5.44 5.44 0 0 1 .42 2.13 5.5 5.5 0 0 1-.41 2.11 5.33 5.33 0 0 1-1.17 1.76 5.75 5.75 0 0 1-1.85 1.18 5.88 5.88 0 0 1-2.31.45zm-3.76-5.51a4.08 4.08 0 0 0 .29 1.56 4 4 0 0 0 .8 1.25 3.79 3.79 0 0 0 1.2.84 3.65 3.65 0 0 0 2.93 0 3.84 3.84 0 0 0 1.21-.85 3.93 3.93 0 0 0 .81-1.27 4.15 4.15 0 0 0 .29-1.57 4.1 4.1 0 0 0-.29-1.55 4 4 0 0 0-.81-1.27 3.84 3.84 0 0 0-1.21-.85 3.55 3.55 0 0 0-1.47-.31 3.44 3.44 0 0 0-1.47.32 3.84 3.84 0 0 0-1.2.86 4 4 0 0 0-.8 1.27 4.16 4.16 0 0 0-.28 1.56zm16.88 5.3h-1.87v-9.14h-3.8V224h9.47v1.56h-3.8zm12.41 0h-1.87v-9.14h-3.8V224H110v1.56h-3.8zm11.97.21a6.09 6.09 0 0 1-2.35-.44 5.58 5.58 0 0 1-1.83-1.2 5.44 5.44 0 0 1-1.18-1.77 5.5 5.5 0 0 1-.42-2.14 5.43 5.43 0 0 1 .42-2.13 5.36 5.36 0 0 1 1.2-1.76 5.68 5.68 0 0 1 1.84-1.2 6.08 6.08 0 0 1 2.35-.44 5.88 5.88 0 0 1 2.34.45 5.56 5.56 0 0 1 1.79 1.2 5.28 5.28 0 0 1 1.14 1.74 5.46 5.46 0 0 1 .4 2.06v.41a2.19 2.19 0 0 1 0 .29h-9.41a4 4 0 0 0 .39 1.46 3.76 3.76 0 0 0 .85 1.13 3.94 3.94 0 0 0 1.18.74 3.72 3.72 0 0 0 1.4.27 4 4 0 0 0 1-.13 4.6 4.6 0 0 0 .93-.36 3.25 3.25 0 0 0 .77-.55 2.26 2.26 0 0 0 .51-.74l1.65.43a3.94 3.94 0 0 1-.77 1.09 5.12 5.12 0 0 1-1.13.85 6 6 0 0 1-1.42.56 6.4 6.4 0 0 1-1.65.18zm3.89-6.27a3.7 3.7 0 0 0-.4-1.4 3.8 3.8 0 0 0-.85-1.1 3.84 3.84 0 0 0-1.18-.71 4.15 4.15 0 0 0-2.87 0 3.72 3.72 0 0 0-1.18.72 3.63 3.63 0 0 0-.83 1.1 3.85 3.85 0 0 0-.38 1.39zm4.74 4.5h.65a1.94 1.94 0 0 0 .88-.45 2.62 2.62 0 0 0 .62-1 10.15 10.15 0 0 0 .46-1.83q.2-1.14.39-2.86l.35-3h7.06v9.14h1.35v4.92h-1.65v-3.36h-8.52v3.36h-1.59zm8.54 0v-7.73h-3.43l-.33 2.32a24.69 24.69 0 0 1-.68 3.5 5.28 5.28 0 0 1-.92 1.92zm9.84-9.15l2.83 4.76h1.8V224h1.91v4.76h1.8l2.82-4.76h2.11l-3.3 5.21 3.63 5.49h-2.13l-2.8-4.59h-2.13v4.59h-1.91v-4.59h-2.13l-2.8 4.59h-2.13l3.61-5.49-3.3-5.21zm20.08 4.46H171V224h1.87v10.7H171V230h-5.74v4.76h-1.87V224h1.87zm12.37-4.46h1.87v3.69h2.15a4.93 4.93 0 0 1 1.44.21 3.77 3.77 0 0 1 1.26.66 3.42 3.42 0 0 1 .9 1.11 3.35 3.35 0 0 1 .35 1.57 3.28 3.28 0 0 1-.35 1.56 3.22 3.22 0 0 1-.9 1.08 3.82 3.82 0 0 1-1.27.63 5.27 5.27 0 0 1-1.46.21h-4zm4 9.18a2.27 2.27 0 0 0 1.51-.48 1.8 1.8 0 0 0 .58-1.47 1.86 1.86 0 0 0-.62-1.52 2.2 2.2 0 0 0-1.44-.51h-2.15v4zm5.08-9.18h1.87v10.7h-1.87zm8.49 8.17l6.18-8.17h1.54v10.7h-1.87v-8l-6.06 8h-1.65V224h1.87zm6.5-12.42a2.09 2.09 0 0 1-1 1.71 5.17 5.17 0 0 1-4.69 0 2.09 2.09 0 0 1-1-1.71h1.15a1.19 1.19 0 0 0 .62 1.12 4.51 4.51 0 0 0 3.11 0 1.19 1.19 0 0 0 .62-1.12zm23.06 14.96h-1.87v-9.14h-5.41v9.14h-1.87V224h9.15zm8.69.21a5.88 5.88 0 0 1-2.34-.45 5.61 5.61 0 0 1-1.8-1.21 5.4 5.4 0 0 1-1.16-1.76 5.49 5.49 0 0 1-.41-2.11 5.44 5.44 0 0 1 .42-2.13 5.53 5.53 0 0 1 1.17-1.76 5.59 5.59 0 0 1 1.8-1.21 5.82 5.82 0 0 1 2.31-.45 5.9 5.9 0 0 1 2.33.45 5.47 5.47 0 0 1 3 3 5.44 5.44 0 0 1 .42 2.13 5.49 5.49 0 0 1-.41 2.11 5.33 5.33 0 0 1-1.17 1.76 5.74 5.74 0 0 1-1.81 1.21 5.88 5.88 0 0 1-2.35.42zm-3.76-5.51A4.08 4.08 0 0 0 230 231a4 4 0 0 0 .8 1.25 3.8 3.8 0 0 0 1.2.84 3.65 3.65 0 0 0 2.93 0 3.83 3.83 0 0 0 1.21-.85 3.94 3.94 0 0 0 .82-1.27 4.16 4.16 0 0 0 .29-1.57 4.11 4.11 0 0 0-.29-1.55 4 4 0 0 0-.82-1.27 3.83 3.83 0 0 0-1.21-.85 3.55 3.55 0 0 0-1.47-.31 3.44 3.44 0 0 0-1.47.32 3.86 3.86 0 0 0-1.2.86 4.05 4.05 0 0 0-.8 1.27 4.16 4.16 0 0 0-.28 1.53zm12.15-.07a5.55 5.55 0 0 1 .41-2.13 5.2 5.2 0 0 1 1.17-1.75 5.69 5.69 0 0 1 1.81-1.19 6.06 6.06 0 0 1 2.36-.44 5.77 5.77 0 0 1 2.92.71 4.71 4.71 0 0 1 1.86 1.9l-1.87.55a3 3 0 0 0-1.22-1.18 3.61 3.61 0 0 0-1.74-.42 3.72 3.72 0 0 0-1.48.3 3.5 3.5 0 0 0-1.2.83 4 4 0 0 0-.79 1.25 4.14 4.14 0 0 0-.29 1.58 4.09 4.09 0 0 0 .3 1.58 4.16 4.16 0 0 0 .82 1.28 3.7 3.7 0 0 0 1.2.85 3.53 3.53 0 0 0 1.47.31 3.74 3.74 0 0 0 1-.13 3.9 3.9 0 0 0 .89-.36 3.31 3.31 0 0 0 .71-.52 1.76 1.76 0 0 0 .43-.65l1.87.53a3.77 3.77 0 0 1-.73 1.09 4.54 4.54 0 0 1-1.1.84 6.15 6.15 0 0 1-1.4.55 6.28 6.28 0 0 1-1.62.21 6 6 0 0 1-2.35-.45 5.71 5.71 0 0 1-1.83-1.21 5.43 5.43 0 0 1-1.18-1.77 5.51 5.51 0 0 1-.42-2.16zm18.77 5.58a6.09 6.09 0 0 1-2.35-.44 5.58 5.58 0 0 1-1.83-1.2 5.43 5.43 0 0 1-1.18-1.77 5.51 5.51 0 0 1-.42-2.14 5.44 5.44 0 0 1 .42-2.13 5.36 5.36 0 0 1 1.2-1.76 5.68 5.68 0 0 1 1.84-1.2 6.08 6.08 0 0 1 2.35-.44 5.88 5.88 0 0 1 2.34.45 5.55 5.55 0 0 1 1.79 1.2 5.27 5.27 0 0 1 1.14 1.74 5.44 5.44 0 0 1 .4 2.06v.41a2.09 2.09 0 0 1 0 .29h-9.41a4 4 0 0 0 .39 1.46 3.77 3.77 0 0 0 .85 1.13 3.94 3.94 0 0 0 1.18.74 3.71 3.71 0 0 0 1.4.27 4 4 0 0 0 1-.13 4.59 4.59 0 0 0 .93-.36 3.23 3.23 0 0 0 .77-.55 2.26 2.26 0 0 0 .51-.74l1.65.43a3.93 3.93 0 0 1-.77 1.09 5.08 5.08 0 0 1-1.13.85 6 6 0 0 1-1.42.56 6.4 6.4 0 0 1-1.65.18zm3.89-6.27a3.68 3.68 0 0 0-.4-1.4 3.79 3.79 0 0 0-.85-1.1 3.85 3.85 0 0 0-1.18-.71 4.15 4.15 0 0 0-2.87 0 3.72 3.72 0 0 0-1.18.72 3.63 3.63 0 0 0-.83 1.1 3.85 3.85 0 0 0-.38 1.39zm3.37 4.59a2.94 2.94 0 0 0 1.16-.32 2 2 0 0 0 .78-.92 7.82 7.82 0 0 0 .53-1.87q.22-1.2.43-3.13l.35-3h7.06v10.7h-1.87v-9.29h-3.43l-.33 2.32q-.3 2.09-.64 3.43a7.39 7.39 0 0 1-.84 2.13 2.89 2.89 0 0 1-1.2 1.12 4.63 4.63 0 0 1-1.69.39zm19.21 1.68a5.88 5.88 0 0 1-2.34-.45 5.61 5.61 0 0 1-1.8-1.21 5.4 5.4 0 0 1-1.16-1.76 5.49 5.49 0 0 1-.41-2.11 5.44 5.44 0 0 1 .42-2.13 5.53 5.53 0 0 1 1.17-1.76 5.59 5.59 0 0 1 1.8-1.21 5.82 5.82 0 0 1 2.31-.45 5.9 5.9 0 0 1 2.33.45 5.47 5.47 0 0 1 3 3 5.44 5.44 0 0 1 .42 2.13 5.49 5.49 0 0 1-.41 2.11 5.33 5.33 0 0 1-1.17 1.76 5.74 5.74 0 0 1-1.81 1.21 5.88 5.88 0 0 1-2.35.42zm-3.76-5.51a4.08 4.08 0 0 0 .29 1.56 4 4 0 0 0 .8 1.25 3.8 3.8 0 0 0 1.2.84 3.65 3.65 0 0 0 2.93 0 3.83 3.83 0 0 0 1.21-.85 3.94 3.94 0 0 0 .82-1.27 4.16 4.16 0 0 0 .29-1.57 4.11 4.11 0 0 0-.29-1.55 4 4 0 0 0-.82-1.27 3.83 3.83 0 0 0-1.21-.85 3.55 3.55 0 0 0-1.47-.31 3.44 3.44 0 0 0-1.47.32 3.86 3.86 0 0 0-1.2.86 4.05 4.05 0 0 0-.8 1.27 4.16 4.16 0 0 0-.28 1.56zm19.6-5.41h2.13l-4.45 5.21 4.76 5.49h-2.11l-3.89-4.7H298v4.69h-1.87V224H298v4.65h1.11z"/></g></g></svg>