<svg id="Слой_1" xmlns="http://www.w3.org/2000/svg" viewBox="0 0 134 32.3"><style>.st0{fill:#3c3c3b}</style><path class="st0" d="M8.6 15.8c.1-1.2-.1-2.4-.6-3.4-.5-.7-1.3-1.2-2.2-1-.4 0-.8 0-1.3.1l-1 .1v12.2H0V9.1l2.7-.6c1.1-.1 2.3-.2 3.4-.2.9 0 1.7.1 2.6.4.6.2 1.2.6 1.7 1.1.3-.2.5-.3.8-.5.4-.2.7-.3 1.1-.5.4-.1.9-.3 1.3-.4.5-.1.9-.1 1.4-.1 1 0 2 .1 2.9.5.7.3 1.3.8 1.8 1.4.5.7.8 1.4.9 2.2.2.9.3 1.9.3 2.8v8.5h-3.5v-8c.1-1.2-.1-2.3-.6-3.4-.5-.8-1.3-1.2-2.2-1.1-.5 0-1.1.1-1.6.3-.4.1-.8.3-1.1.5.2.5.3 1 .3 1.5.1.6.1 1.2.1 1.7v8.4H8.6v-7.8zm13 .4c0-1.2.2-2.4.6-3.5.4-.9.9-1.8 1.6-2.5.6-.7 1.4-1.2 2.3-1.5.8-.3 1.7-.5 2.6-.5 1.8-.1 3.6.6 4.9 1.9 1.2 1.3 1.8 3.2 1.8 5.8v1.3h-10c0 1.1.5 2.1 1.3 2.8.9.7 2.1 1.1 3.3 1 .8 0 1.6-.1 2.3-.2.5-.1 1.1-.3 1.6-.5l.5 2.9c-.3.1-.5.2-.8.3l-1.2.3c-.4.1-.9.2-1.4.2-.5.1-1 .1-1.5.1-1.2 0-2.4-.2-3.5-.6-.9-.4-1.8-.9-2.4-1.6-.6-.7-1.1-1.6-1.4-2.5-.4-1-.6-2.1-.6-3.2zm10.2-1.5c0-.5-.1-.9-.2-1.4-.1-.4-.3-.8-.6-1.1-.3-.3-.6-.6-1-.8-.4-.2-.9-.3-1.4-.3-.5 0-1 .1-1.4.3-.4.2-.7.5-1 .8-.3.3-.5.7-.6 1.1-.2.4-.3.9-.3 1.3l6.5.1zm17.4 7.5c0 2.4-.6 4.2-1.8 5.3-1.2 1.1-3.1 1.7-5.6 1.7-.9 0-1.8-.1-2.7-.2-.8-.1-1.6-.3-2.4-.6l.6-3c.6.3 1.3.5 2 .6.8.2 1.6.2 2.5.2 1.1.1 2.1-.2 3-.9.6-.7 1-1.6.9-2.6v-.6c-.4.2-.9.4-1.4.5-.6.2-1.3.3-2 .3-.9 0-1.8-.1-2.7-.5-.8-.3-1.5-.8-2.1-1.4-.6-.6-1.1-1.4-1.3-2.2-.3-1-.4-2.1-.4-3.1s.2-2 .5-3c.3-.9.8-1.7 1.5-2.4s1.5-1.2 2.4-1.5c1-.4 2.1-.6 3.2-.6s2.2.1 3.2.3c1 .2 1.9.4 2.6.6v13.1zm-9.8-6.4c-.1 1.2.3 2.3 1 3.3.7.7 1.6 1 2.5 1 .5 0 1.1-.1 1.6-.2.4-.1.8-.3 1.2-.5v-7.8c-.3-.1-.6-.1-.9-.2-.5-.1-.9-.1-1.4-.1-1.1-.1-2.2.4-2.9 1.3-.8.8-1.1 2-1.1 3.2zm16.7-7.6c1 0 2 .1 2.9.4.7.2 1.4.7 1.9 1.2s.8 1.2 1 1.9c.2.8.3 1.6.3 2.4v9.2c-.5.1-1.4.3-2.5.4-1.2.2-2.5.3-3.7.3-.8 0-1.7-.1-2.5-.3-.7-.1-1.3-.4-1.9-.8-.5-.4-1-.9-1.2-1.5-.3-.7-.5-1.5-.5-2.3 0-.8.2-1.5.5-2.2.3-.6.8-1.1 1.4-1.5.6-.4 1.3-.7 2-.8.8-.2 1.6-.3 2.4-.3.4 0 .8 0 1.2.1.5.1.9.1 1.4.3v-.6c0-.4 0-.8-.1-1.2-.1-.4-.3-.7-.5-1-.3-.3-.6-.5-1-.6-.5-.2-1-.2-1.5-.2-.7 0-1.5.1-2.2.2-.6.1-1.1.2-1.7.4l-.4-2.8c.6-.2 1.3-.4 1.9-.5.9-.2 1.8-.2 2.8-.2zm.3 13.1c.8 0 1.6 0 2.5-.2v-3.9c-.3-.1-.6-.1-.8-.2h-1.3c-.4 0-.8 0-1.2.1-.4.1-.7.2-1.1.3-.3.1-.6.4-.8.6-.2.3-.3.7-.3 1.1-.1.7.2 1.3.8 1.7.7.4 1.4.5 2.2.5z"/><path d="M72.2 15.8c.1-1.2-.1-2.4-.6-3.4-.5-.7-1.3-1.2-2.2-1.1-.4 0-.8 0-1.3.1l-1 .1v12.2h-3.5V9.1l2.7-.6c1.1-.2 2.3-.3 3.5-.3.9 0 1.7.1 2.6.4.6.3 1.1.7 1.6 1.2.3-.2.5-.3.8-.5.3-.2.7-.3 1-.5.4-.1.9-.3 1.3-.4.5-.1.9-.1 1.4-.1 1 0 2 .1 2.9.5.7.3 1.3.8 1.8 1.4.5.7.8 1.4.9 2.2.2.9.3 1.9.3 2.8v8.5h-3.5v-8c.1-1.2-.1-2.3-.6-3.4-.5-.8-1.3-1.2-2.2-1.1-.5 0-1.1.1-1.6.3-.4.1-.8.3-1.1.5.2.5.3 1 .3 1.5.1.6.1 1.2.1 1.7v8.4h-3.5l-.1-7.8zM90 4.7c0 .6-.2 1.2-.6 1.6-.4.4-.9.6-1.5.6s-1.1-.2-1.5-.6c-.4-.4-.7-1-.6-1.6 0-.6.2-1.2.6-1.6.4-.4 1-.6 1.5-.6.6 0 1.1.2 1.5.6.4.5.6 1 .6 1.6zm-3.9 3.9h3.5v15.1h-3.5zm13.7 3.1c-.3-.1-.6-.2-.9-.2-.6-.1-1.2-.2-1.8-.2-.4 0-.8 0-1.2.1-.3 0-.6.1-.9.2v12.1h-3.5V9.3c.8-.3 1.7-.5 2.5-.7 1.1-.2 2.2-.3 3.4-.3h.8l.9.1c.3 0 .6.1.9.2.3.1.5.1.7.2l-.9 2.9z" fill="#c01012"/><path d="M111.4 6.4c0 .6.3 1.2.8 1.5.3.2.5.5.5.9h.8c0-.4.2-.7.5-.9.8-.5 1.1-1.5.6-2.3s-1.5-1.1-2.3-.6c-.6.2-.9.8-.9 1.4zm.8 0c0-.5.4-.9.9-.9s.9.4.9.9-.4.9-.9.9-.9-.4-.9-.9z" fill="#fff"/><path class="st0" d="M117.8 0c-8.9 0-16.2 7.2-16.2 16.2 0 5.2 2.5 10.1 6.7 13.1l4.3-4.3V8h.8v17.3l-4.4 4.4c7.5 4.8 17.5 2.7 22.3-4.8 4.8-7.5 2.7-17.5-4.8-22.3-2.6-1.7-5.6-2.6-8.7-2.6zm-5.9 23.5h-.8V10.2h.8v13.3zm3.1 0h-.8V10.2h.8v13.3zm9.8 0c-.7.2-1.4.3-2.1.3-.8 0-1.5-.1-2.2-.4-.6-.2-1-.5-1.4-1-.4-.5-.6-1.1-.8-1.7-.2-.8-.2-1.6-.2-2.3V6.5l2.4-.4v4.1h5v2h-5v6.2c0 .6 0 1.1.2 1.6.1.4.2.7.5 1 .2.2.5.4.8.5.3.1.7.2 1.1.1.6 0 1.2-.1 1.7-.2l.9-.4.5 2c-.6.3-1 .4-1.4.5z"/></svg>