<svg xmlns="http://www.w3.org/2000/svg" viewBox="0 0 164.58 169.3"><g data-name="Слой 2"><g data-name="Слой 1"><path d="M142.4 22.18A75.23 75.23 0 0 0 88.85 0a6 6 0 0 0 0 12 63.72 63.72 0 0 1 63.72 63.72 6 6 0 0 0 12 0 75.23 75.23 0 0 0-22.17-53.54z"/><path d="M117.72 75.73a6 6 0 0 0 12 0 40.92 40.92 0 0 0-40.87-40.87 6 6 0 0 0 0 12 28.9 28.9 0 0 1 28.87 28.87zm-13.28 30.59c-9.14-.47-13.8 6.33-16 9.59a6 6 0 1 0 9.9 6.78c2.64-3.86 3.84-4.47 5.46-4.39 5.19.61 25.64 15.6 27.69 20.29a6.2 6.2 0 0 1-.05 4.38c-2.15 6.37-5.7 10.85-10.28 12.95-4.35 2-9.68 1.81-15.42-.52a169.63 169.63 0 0 1-55.62-36.22A169.65 169.65 0 0 1 13.91 63.6c-2.33-5.74-2.52-11.08-.52-15.43C15.48 43.6 20 40 26.33 37.9a6.17 6.17 0 0 1 4.37-.06c4.7 2.05 19.69 22.5 20.3 27.64.09 1.68-.53 2.88-4.38 5.51a6 6 0 0 0 6.77 9.91C56.65 78.66 63.45 74 63 64.84c-.52-9.58-19.16-35-28.07-38.25a18.15 18.15 0 0 0-12.39-.07c-9.59 3.23-16.52 9-20 16.65-3.41 7.43-3.3 16.06.32 24.95a181.57 181.57 0 0 0 38.79 59.53l.13.12a181.51 181.51 0 0 0 59.46 38.73 35.65 35.65 0 0 0 13.4 2.79 27.52 27.52 0 0 0 11.55-2.48c7.66-3.52 13.42-10.44 16.65-20a18.13 18.13 0 0 0-.06-12.36c-3.35-8.97-28.78-27.61-38.34-28.13z"/></g></g></svg>