<svg xmlns="http://www.w3.org/2000/svg" viewBox="0 0 76.8 72.4"><path d="M75.37 14.42a2.41 2.41 0 0 0-1.87-1l-46.4-2a2.4 2.4 0 1 0-.2 4.8l43.25 1.86-8.5 26.52H23.8L17 7.37a2.42 2.42 0 0 0-1.48-1.81L4.28 1.17a2.4 2.4 0 1 0-1.76 4.46l10 3.92 7 37.88a2.4 2.4 0 0 0 2.36 2H23l-2.64 7.32a2 2 0 0 0 1.84 2.65h1.85a7.12 7.12 0 0 0-1.85 4.8 7.2 7.2 0 0 0 14.4 0 7.12 7.12 0 0 0-1.85-4.8h15.7a7.12 7.12 0 0 0-1.85 4.8 7.2 7.2 0 0 0 14.4 0 7.12 7.12 0 0 0-1.85-4.8h2.25a2 2 0 1 0 0-4H25.05l2.16-6H63.4a2.42 2.42 0 0 0 2.29-1.67l10-31.2a2.44 2.44 0 0 0-.32-2.11zm-46 53a3.2 3.2 0 1 1 3.2-3.2 3.21 3.21 0 0 1-3.2 3.2zm26.4 0A3.2 3.2 0 1 1 59 64.2a3.2 3.2 0 0 1-3.2 3.2z" stroke="#231f20" stroke-miterlimit="10" stroke-width="2" data-name="plan-app 2"/></svg>