<svg xmlns="http://www.w3.org/2000/svg" viewBox="0 0 317.09 390.94"><g data-name="plan-garbage 2"><path d="M270.5 46.24h-57.89a54.73 54.73 0 0 0-108.13 0H46.59A46.64 46.64 0 0 0 0 92.83v2.26a46.37 46.37 0 0 0 27.86 42.63v206.63a46.64 46.64 0 0 0 46.59 46.59h168.19a46.64 46.64 0 0 0 46.59-46.59V137.72a46.35 46.35 0 0 0 27.86-42.62v-2.27a46.64 46.64 0 0 0-46.59-46.59zm-7.18 95.45v202.66A20.7 20.7 0 0 1 242.64 365H74.45a20.7 20.7 0 0 1-20.68-20.68V141.69zM131 46.24a28.83 28.83 0 0 1 55.1 0zM25.91 92.83a20.71 20.71 0 0 1 20.68-20.68H270.5a20.7 20.7 0 0 1 20.68 20.68v2.26a20.7 20.7 0 0 1-20.68 20.69H46.59a20.71 20.71 0 0 1-20.68-20.69z"/><path d="M102.49 343.29a13 13 0 0 0 13-13V212.61a13 13 0 0 0-25.9 0v117.73a13 13 0 0 0 12.9 12.95zm56.06 0a13 13 0 0 0 12.95-13V212.61a13 13 0 0 0-25.91 0v117.73a13 13 0 0 0 12.96 12.95zm56.05 0a13 13 0 0 0 13-13V212.61a13 13 0 0 0-25.91 0v117.73a13 13 0 0 0 12.91 12.95z"/></g></svg>