<svg xmlns="http://www.w3.org/2000/svg" viewBox="0 0 511.33 511.94"><path d="M334.91 336.26c24.07-1 47.49-7.4 69.31-17.86a15.76 15.76 0 0 0 5.6-3.17c17-8.86 33-19.84 47.14-33.92 11.14-11.13 20-23.49 27.71-36.29.07-.06.16-.09.26-.16a15.52 15.52 0 0 0 3.9-7.23c25.6-46.75 29.6-100.54 10.75-146a15.42 15.42 0 0 0-2.75-5.6c-7.1-15.3-16.09-29.83-28.54-42.28S441.31 22.3 426 15.2a15.83 15.83 0 0 0-5.64-2.72C374.88-6.4 321.12-2.4 274.37 23.2a15.24 15.24 0 0 0-7.27 3.9c-.09.07-.09.16-.19.26-12.77 7.78-25.12 16.64-36.25 27.71-14.15 14.15-25.16 30.27-34 47.3a16 16 0 0 0-3 5.37c-10.47 21.83-16.83 45.25-17.86 69.35l-6.05 142.62-56.15 56.07c-17.82-8.42-39.58-5.67-54.27 9l-45.25 45.27A48 48 0 0 0 82 497.92l45.25-45.25a47.49 47.49 0 0 0 9.25-54.53l55.84-55.84zM315.33 242l-47.11 47.11c-9.47-5.22-18.46-11.24-26.24-19s-13.82-16.74-19-26.24l47.1-47.11zm-22.63-67.92l49.38-49.38 45.25 45.3L338 219.33zm40.84 130.21a134 134 0 0 1-32.26-3.07L338 264.54l32.58 32.58c-12.08 3.88-24.4 6.62-37.04 7.17zm-122.79-93.54a130 130 0 0 1-3-32.32c.55-12.61 3.33-24.93 7.11-37l32.6 32.61zm8.58 81.92a146.91 146.91 0 0 0 19.2 15.68l-36.39 1.54 1.57-36.61c4.77 6.72 9.7 13.44 15.62 19.39zm182.46-9.5L360.54 242l49.38-49.37 43.3 43.29a162.82 162.82 0 0 1-19 22.85c-9.77 9.81-20.88 17.61-32.43 24.4zm67-77L432.58 170l44.12-44.13c5.38 25.97 2.79 53.87-7.9 80.31zm-4.15-113.53L410 147.33l-45.3-45.25 54.69-54.69c9.41 5.15 18.4 11.14 26.24 19s13.86 16.84 19.01 26.25zM359.81 32a130.08 130.08 0 0 1 26.69 3l-44.42 44.46L305.63 43a144 144 0 0 1 54.18-11zM253.28 77.7a162 162 0 0 1 22.91-18.88l43.27 43.26-49.41 49.38-41.25-41.25c6.82-11.55 14.62-22.66 24.48-32.51zm-148.7 352.35L59.33 475.3a16.46 16.46 0 0 1-22.63 0A15.81 15.81 0 0 1 32 464a16 16 0 0 1 4.67-11.33l45.25-45.25a16 16 0 0 1 22.56 0v.07c0 .07.07 0 .07.06a16 16 0 0 1 0 22.53zM64 128A64 64 0 1 0 0 64a64.06 64.06 0 0 0 64 64zm0-96a32 32 0 1 1-32 32 32 32 0 0 1 32-32z" data-name="plan-tennis 2"/></svg>