<svg data-name="plan-work 1" xmlns="http://www.w3.org/2000/svg" viewBox="0 0 817.52 816"><path d="M629.46 230.85A25.19 25.19 0 0 0 604.3 256v18.54H475.23V155.2a25.16 25.16 0 0 0-50.32 0v39.52H220.13V155.2a25.16 25.16 0 0 0-50.32 0v505.6a25.16 25.16 0 0 0 50.32 0V243.33h38.68v70.23a43.89 43.89 0 1 0 37.89 0v-70.23h49.35v70.84a43.88 43.88 0 1 0 40.32 0v-70.84h38.54V660.8a25.16 25.16 0 0 0 50.32 0V324.14H604.3V660.8a25.17 25.17 0 0 0 50.33 0V256a25.19 25.19 0 0 0-25.17-25.15zm-351.71 135.8a13.52 13.52 0 1 1 13.52-13.51 13.52 13.52 0 0 1-13.52 13.51zm88.46 0a13.52 13.52 0 1 1 13.52-13.51 13.53 13.53 0 0 1-13.52 13.51z"/></svg>