<svg xmlns="http://www.w3.org/2000/svg" viewBox="0 0 175.66 175.66"><path d="M87.82 0A87.79 87.79 0 0 0 25 149.12c.12.12.23.24.36.36a87.54 87.54 0 0 0 62.48 26.18A87.83 87.83 0 1 0 87.82 0zm-53 142a75.71 75.71 0 0 1 35.54-84.36c1.35-.78 2.74-1.52 4.14-2.21a75.73 75.73 0 0 1 7.23 29.09 87.68 87.68 0 0 0-28.47 29.36l-.18.3a88 88 0 0 0-11.49 33.71 76.78 76.78 0 0 1-6.74-5.89zM67.3 14.82a75.7 75.7 0 0 1 55.41 73c0 1.58 0 3.15-.15 4.72a75.67 75.67 0 0 1-28.83-8.29 87.74 87.74 0 0 0-11-39.09 6 6 0 0 0-.52-.93 88.22 88.22 0 0 0-23.32-26.49 75.93 75.93 0 0 1 8.41-2.92zM88 94.76a87.84 87.84 0 0 0 39.92 10h.83A88 88 0 0 0 163 97.82a74.18 74.18 0 0 1-1.65 8.7 75.7 75.7 0 0 1-90.94 11.53c-1.35-.78-2.68-1.62-4-2.48A75.76 75.76 0 0 1 88 94.76zm75.59-10.45a75.54 75.54 0 0 1-29 8.22c.09-1.57.14-3.15.14-4.74a87.74 87.74 0 0 0-43.35-75.7 75.93 75.93 0 0 1 72.21 72.22zM46.91 24a75.9 75.9 0 0 1 21.61 21c-1.41.71-2.8 1.45-4.16 2.24a87.75 87.75 0 0 0-43.89 75.37A75.76 75.76 0 0 1 46.91 24zm94.53 117.44A75.76 75.76 0 0 1 53 155.17 75.86 75.86 0 0 1 60.39 126c1.32.86 2.66 1.7 4 2.48a87.72 87.72 0 0 0 87.26.32 76.13 76.13 0 0 1-10.24 12.69z" data-name="plan-volleyball 2"/></svg>