<svg xmlns="http://www.w3.org/2000/svg" viewBox="0 0 525 712.85"><defs><style>.cls-1,.cls-3{fill:#928c89}.cls-2{fill:none}.cls-3{font-size:58.92px;font-family:Raleway-Bold,Raleway;font-weight:700}</style></defs><g id="plan-compas_2" data-name="plan-compas 2"><g id="plan-compas"><path class="cls-1" d="M261 157c-110.46 0-200 89.59-200 200s89.54 200 200 200 200-89.5 200-200-89.59-199.83-200-200zm0 384a184 184 0 1 1 184-184 184 184 0 0 1-184 184z"/><path class="cls-2" d="M21 117.04h480v480H21z"/><path class="cls-1" d="M261 190.42a8 8 0 0 0-7.7 5.88l-43.36 158.63a2.81 2.81 0 0 1 0 .29 24.3 24.3 0 0 0 0 3.62v.29l43.33 158.65a8 8 0 0 0 15.44 0l43.34-158.61v-.3a22.9 22.9 0 0 0 0-3.61v-.3l-43.32-158.63a8 8 0 0 0-7.73-5.91zm0 294.88l-32.84-120.25h65.71zm32.87-136.23h-65.62l32.83-120.25z"/><path class="cls-2" d="M21 117.04h480v480H21z"/><path class="cls-1" d="M40 349H8a8 8 0 0 0 0 16h32a8 8 0 0 0 0-16z"/><path class="cls-2" d="M21 117.04h480v480H21z"/><path class="cls-1" d="M517 349h-32a8 8 0 0 0 0 16h32a8 8 0 0 0 0-16z"/><path class="cls-2" d="M21 117.04h480v480H21z"/><path class="cls-1" d="M261 141a8 8 0 0 0 8-8v-32a8 8 0 0 0-16 0v32a8 8 0 0 0 8 8z"/><path class="cls-2" d="M21 117.04h480v480H21z"/><path class="cls-1" d="M261 573a8 8 0 0 0-8 8v32a8 8 0 0 0 16 0v-32a8 8 0 0 0-8-8z"/><text class="cls-3" transform="translate(245.22 50.38)">C</text><text class="cls-3" transform="translate(235.72 699.36)">Ю</text></g></g></svg>