<svg id="plan-day_1" data-name="plan-day 1" xmlns="http://www.w3.org/2000/svg" viewBox="0 0 817.52 816"><defs><style>.cls-1{fill:#010101}</style></defs><path class="cls-1" d="M682.56 409.49l-201.65-53.62h-.13l-1.37-.3 72.4-28.45a26.85 26.85 0 0 0 15.07-34.78L490.59 97.58a27.22 27.22 0 0 0-34.76-15l-194.66 76.25a26.87 26.87 0 0 0-15.07 34.8l76.83 194.64a26.88 26.88 0 0 0 25 17 26.54 26.54 0 0 0 9.82-1.88l94.78-37.24a26.59 26.59 0 0 0-4.43 9.21L399.71 557.2v-120a26.86 26.86 0 0 0-26.82-26.82h-208.5a26.85 26.85 0 0 0-26.82 26.82v208.61a26.85 26.85 0 0 0 26.82 26.82h208.5a26.86 26.86 0 0 0 26.82-26.82v-45a26.46 26.46 0 0 0 12.67 8.55l.9.27.4.11L615 663.25a26.81 26.81 0 0 0 32.53-17.89l.17-.26.21-1.06 53.05-201.7a27 27 0 0 0-18.4-32.85zM530.32 297l-177.38 69.68-69.71-177.39 177.38-69.82zM363.93 446.16v190.58H173.35V446.16zm300.59-4.28l-48.9 183.48L431.38 577l49-184.12z"/><path class="cls-1" d="M407.5 183l-.1-.1a40.1 40.1 0 0 0-6.62-5.55 22.47 22.47 0 0 0-9.63-3.69h-.41a25.68 25.68 0 0 0-20.74 8.2l-.25.3a22.41 22.41 0 0 0-4.51 9.33v.1a47 47 0 0 0-.93 10v92.32q.35 5.13.58 7.91a23.55 23.55 0 0 0 1.41 6.83l.09.24a16.71 16.71 0 0 0 9.74 9.28 18 18 0 0 0 6.63 1.28 17.68 17.68 0 0 0 6.47-1.22 15.47 15.47 0 0 0 10-9.69l.15-.44.09-.45a60.74 60.74 0 0 0 1-14.8v-11.78l37.08-14.55 7.77 8.27 5 5a32.42 32.42 0 0 0 5.83 4.82l.16.1a16.55 16.55 0 0 0 7.09 2.28 17.33 17.33 0 0 0 7.84-1.27 17.83 17.83 0 0 0 9.48-9.12l.06-.15a17.15 17.15 0 0 0 0-13.41l-.22-.47a45 45 0 0 0-9.31-12.13l-57-60.11zm7.77 58.55l-16.08 6.32-.77-25.17zM220.13 596.44l.38.49.48.41a21.61 21.61 0 0 0 14.06 5.2q1 0 2-.09h36.38a136.21 136.21 0 0 0 16.6-1.54 56.12 56.12 0 0 0 14.19-3.64 37.29 37.29 0 0 0 16.81-13.93 39.06 39.06 0 0 0 6.16-21.54A35.58 35.58 0 0 0 311 531.34a34 34 0 0 0 10.48-25 35.18 35.18 0 0 0-2.1-12 34.55 34.55 0 0 0-6-10.51 36 36 0 0 0-9.1-7.84 38 38 0 0 0-13.78-5 96.93 96.93 0 0 0-15.75-1.1h-37.68a21.93 21.93 0 0 0-15.88 4.91l-.48.41-.4.49a21.93 21.93 0 0 0-4.88 15.81v89.17a22.23 22.23 0 0 0 4.7 15.76zM285 508.58v.7a8.36 8.36 0 0 1-1.17 4.33l-.19.35a6.82 6.82 0 0 1-3.77 3.31A38.15 38.15 0 0 1 268 518.7h-15.76l.33-17.46h13.14a42.76 42.76 0 0 1 16.67 2.47 5 5 0 0 1 2.62 4.87zm-32.37 40.85h18.92a29.06 29.06 0 0 1 15.18 3.18 8 8 0 0 1 3.07 7v.56c0 3.63 0 11.19-18.06 11.19h-19.51zM494.83 540a54.09 54.09 0 0 0 9.91 14.33 54.82 54.82 0 0 0 13.78 10.26 82.5 82.5 0 0 0 17.48 6.72 61.38 61.38 0 0 0 16.88 2.37 62.34 62.34 0 0 0 7.71-.48h.18a52.79 52.79 0 0 0 33-19.27 37.88 37.88 0 0 0 7-13.72 16.48 16.48 0 0 0-1.68-13.06 16.69 16.69 0 0 0-10.1-7.7 15.17 15.17 0 0 0-13.42 1.9l-.42.32a32.21 32.21 0 0 0-6.91 7.86 24.89 24.89 0 0 1-11.24 8.89 22.92 22.92 0 0 1-14.14-.06l-.77-.2a24.1 24.1 0 0 1-11.19-5.44 22.52 22.52 0 0 1-5.27-12.23 52.83 52.83 0 0 1 1.94-20.43l.17-.71a45.09 45.09 0 0 1 14.47-25.81 22.2 22.2 0 0 1 19.91-3.61l.42.11a20.66 20.66 0 0 1 10.63 6.16 30.07 30.07 0 0 1 5.9 12.71 36.78 36.78 0 0 0 3.75 10.53l.19.37.25.35a16.09 16.09 0 0 0 10 6.41 15.72 15.72 0 0 0 12.57-2.11 16.78 16.78 0 0 0 7.46-10.11l.07-.29a34.58 34.58 0 0 0-2.08-20.87 53.08 53.08 0 0 0-15.44-21 62.62 62.62 0 0 0-25.43-12.75 65.66 65.66 0 0 0-25.27-1.87 58.55 58.55 0 0 0-23.44 8.13 61.28 61.28 0 0 0-18.55 17.66 80.6 80.6 0 0 0-11.55 25.8 87.85 87.85 0 0 0-2.98 17.84 71.54 71.54 0 0 0 1.13 17.23 65.35 65.35 0 0 0 5.08 15.77z"/></svg>