<svg data-name="plan-caffe 1" xmlns="http://www.w3.org/2000/svg" viewBox="0 0 817.52 816"><path d="M369.71 262.33a19.79 19.79 0 0 0 19.77-19.77c0-3.11 7.44-9.74 12.88-14.58 13.32-11.86 31.55-28.1 31.55-56.51a19.78 19.78 0 0 0-39.55 0c0 10.16-6.95 16.87-18.3 27-11.64 10.37-26.13 23.27-26.13 44.11a19.8 19.8 0 0 0 19.78 19.75zm79.97 0a19.79 19.79 0 0 0 19.77-19.77c0-3.11 7.45-9.74 12.89-14.58 13.31-11.86 31.55-28.1 31.55-56.51a19.78 19.78 0 0 0-39.55 0c0 10.16-6.95 16.87-18.3 27-11.64 10.37-26.13 23.27-26.13 44.11a19.79 19.79 0 0 0 19.77 19.75zm201.58 90.75a19.9 19.9 0 0 0-14.08-5.89h-56.79l6.55-29.19a19.77 19.77 0 0 0-19.29-24.1h-349.9a19.78 19.78 0 0 0-19.28 24.1l38.21 168a161.15 161.15 0 0 0 50.89 85.17h-69.82a19.77 19.77 0 0 0 0 39.54h350.12a19.77 19.77 0 0 0 0-39.54h-69.48c2.61-2.28 5.15-4.65 7.59-7.08a19.77 19.77 0 1 0-27.87-28 120.74 120.74 0 0 1-202.87-58.82l-32.71-143.85H543l-32.23 143.41v.17c-.08.36-.13.71-.18 1v.31c0 .21-.07.42-.09.62s0 .42-.05.62v.3c0 .35-.05.71-.05 1.1v.67c0 .43 0 .89.07 1.36 0 .18 0 .36.07.54v.18c0 .4.1.79.18 1.19 0 .23.1.47.16.7l.05.18v.16q.09.4.21.81c.09.31.2.62.31.93v.05l.05.15c.08.22.15.43.24.65s.29.66.44 1l.06.14c.1.2.19.41.3.61s.35.63.54.95l.08.13c.11.19.23.39.35.57s.38.56.58.83l.06.08a15.496 15.496 0 0 0 1.01 1.27l.07.08.68.75.5.48.1.09c.26.25.53.5.81.74s.33.27.5.4l.12.09c.29.23.58.45.89.66s.37.25.57.37l.14.09c.31.2.6.38.89.54s.51.27.77.4l.12.06.16.08.65.31c.39.17.76.3 1.11.43l.2.08.5.18c.45.15.89.26 1.31.36h.11l.38.11h.17c.38.08.73.13 1.08.19h.28c.2 0 .41.07.62.09l.6.05h.29c.36 0 .73.05 1.12.05h.17c28 0 59.28-13.22 83.65-35.35 27.81-25.26 43.14-58.66 43.18-94.05l.05-4.3a19.89 19.89 0 0 0-5.69-14zM556 455.86l15.5-69.12h44.4c-6.51 34.09-33.98 58.78-59.9 69.12zM289.73 262.33a19.79 19.79 0 0 0 19.77-19.77c0-3.11 7.45-9.74 12.89-14.58 13.31-11.86 31.54-28.1 31.54-56.51a19.77 19.77 0 1 0-39.54 0c0 10.16-7 16.87-18.31 27-11.64 10.35-26.08 23.25-26.08 44.09a19.79 19.79 0 0 0 19.73 19.77z" fill="#010101"/></svg>