<svg data-name="plan-tennis 1" xmlns="http://www.w3.org/2000/svg" viewBox="0 0 817.52 816"><path d="M657.77 270.49a17.05 17.05 0 0 0-3-6.09c-7.74-16.65-17.52-32.47-31.07-46s-29.37-23.33-46-31.06a17.17 17.17 0 0 0-6.13-3C522 163.8 463.52 168.16 412.63 196a16.68 16.68 0 0 0-7.91 4.25c-.1.07-.1.18-.21.28-13.89 8.47-27.34 18.08-39.46 30.16-15.4 15.4-27.38 33-37.06 51.49a17.4 17.4 0 0 0-3.31 5.85c-11.39 23.75-18.32 49.25-19.44 75.48l-6.58 155.24-61 61c-19.4-9.16-43.09-6.16-59.08 9.83l-49.25 49.25a52.25 52.25 0 0 0 73.91 73.87l49.26-49.25a51.68 51.68 0 0 0 10.06-59.35l60.78-60.78 155.21-6.58c26.19-1.12 51.69-8 75.44-19.44a17.31 17.31 0 0 0 6.1-3.45c18.44-9.61 35.91-21.55 51.29-36.85 12.12-12.12 21.73-25.56 30.16-39.5a1.72 1.72 0 0 1 .28-.17 17.1 17.1 0 0 0 4.25-7.87c27.86-50.92 32.22-109.46 11.7-158.97zm-430 368.38l-49.25 49.25a17.88 17.88 0 0 1-24.62 0 17.21 17.21 0 0 1-5.12-12.3 17.47 17.47 0 0 1 5.08-12.33l49.25-49.25a17.42 17.42 0 0 1 24.56 0v.07c0 .07.07 0 .07.07a17.38 17.38 0 0 1 0 24.52zm371.28-395.82c8.53 8.53 15.08 18.32 20.69 28.56l-59.53 59.52L511 281.88l59.52-59.52c10.2 5.64 19.99 12.12 28.53 20.69zm-63.47 112.71l-53.74 53.74-49.25-49.25 53.74-53.74zm-30-150.12a141.61 141.61 0 0 1 29 3.24l-48.35 48.38-39.67-39.68a156.85 156.85 0 0 1 59.07-11.94zm-115.95 49.7a177 177 0 0 1 24.93-20.55l47.1 47.09-53.78 53.75-44.88-44.9c7.45-12.58 16-24.66 26.68-35.39zM340.08 365c.59-13.72 3.62-27.13 7.73-40.23l35.49 35.49-39.92 39.92a141.2 141.2 0 0 1-3.3-35.18zM334 508.08l1.71-39.85c5.19 7.35 10.56 14.63 17 21.11a159.4 159.4 0 0 0 20.9 17.06zm43.37-43.4c-8.46-8.43-15.05-18.22-20.69-28.57L408 384.84l49.25 49.29-51.31 51.27c-10.31-5.68-20.1-12.23-28.56-20.72zM477 502a145.7 145.7 0 0 1-35.11-3.34l39.92-39.92 35.46 35.46c-13.07 4.16-26.48 7.19-40.27 7.8zm109.65-49.6C576 463.11 563.9 471.61 551.33 479l-44.9-44.86 53.74-53.75 47.13 47.13a176.58 176.58 0 0 1-20.62 24.86zm37.58-57.19l-39.43-39.43 48-48c5.92 28.22 3.1 58.64-8.54 87.41zM211.32 231.45a71.73 71.73 0 1 0-71.73-71.73 71.8 71.8 0 0 0 71.73 71.73zm0-107.59a35.86 35.86 0 1 1-35.86 35.86 35.9 35.9 0 0 1 35.86-35.86z" fill="#010101"/></svg>