<svg xmlns="http://www.w3.org/2000/svg" viewBox="0 0 397.31 416.56"><g stroke="#000" stroke-miterlimit="10" data-name="plan-day-care 2"><path d="M297.28 151L244 15a14.4 14.4 0 0 0-18.48-8l-136 53.28a14.24 14.24 0 0 0-8 18.48l53.68 136a14.24 14.24 0 0 0 18.48 8l135.6-53.28a14.25 14.25 0 0 0 8-18.48zm-147.84 56.12l-52-132.32 132.32-52.08 52 132.4zm16.48 29.2H20.24A14.24 14.24 0 0 0 6 250.56v145.76a14.25 14.25 0 0 0 14.24 14.24h145.68a14.24 14.24 0 0 0 14.24-14.24V250.56a14.24 14.24 0 0 0-14.24-14.24zm-1.76 158.16H22V252.32h142.16zM381 235.52l-140.8-37.44a14.47 14.47 0 0 0-17.44 10.4l-37.44 140.8a14.24 14.24 0 0 0 10.07 17.43l140.8 37.44a14.25 14.25 0 0 0 17.44-10.08L390.8 253a14.24 14.24 0 0 0-9.8-17.48zm-42.32 152l-137.4-36.08 36.56-137.36 137.36 36.56z" stroke-width="12"/><path d="M237.2 130.64a26.82 26.82 0 0 0-5.68-7.36l-40-42.16L186.8 76a24.1 24.1 0 0 0-3.92-3.28 11.15 11.15 0 0 0-4.8-1.84 13.5 13.5 0 0 0-10.88 4.32 11.08 11.08 0 0 0-2.2 4.64 28.21 28.21 0 0 0-.56 6.08v64.24c.16 2.4.29 4.24.4 5.52a11.8 11.8 0 0 0 .72 3.52 7.15 7.15 0 0 0 4.24 4 8 8 0 0 0 6.08 0 6.35 6.35 0 0 0 4.24-4 37.68 37.68 0 0 0 .64-9.36V138.4l31.6-12.4 7.52 8 3.44 3.44a17.83 17.83 0 0 0 3.28 2.72 6.89 6.89 0 0 0 3 1 7.63 7.63 0 0 0 3.44-.56 8 8 0 0 0 4.24-4.08 7.41 7.41 0 0 0-.08-5.88zM180 124.8l-1.12-36.32 24.32 27.2zm-67 192.4a19.21 19.21 0 0 0 12.48-18.32 19.89 19.89 0 0 0-1.2-6.88 19.6 19.6 0 0 0-3.44-6 20.45 20.45 0 0 0-5.2-4.48 22 22 0 0 0-8-2.88 61.47 61.47 0 0 0-10.32-.72H70.8a10.69 10.69 0 0 0-8 2.4 11 11 0 0 0-2.4 8V351a11.15 11.15 0 0 0 2.32 8 10.6 10.6 0 0 0 8.08 2.48h25.52a91.93 91.93 0 0 0 11.12-1 34.7 34.7 0 0 0 8.8-2.24 21.55 21.55 0 0 0 9.68-8 22.91 22.91 0 0 0 3.6-12.64A20.41 20.41 0 0 0 113 317.2zm-35.6-26.4h13.4a34.28 34.28 0 0 1 13.68 2.08 8 8 0 0 1 4.48 8 10.34 10.34 0 0 1-1.44 5.36 9.28 9.28 0 0 1-5.28 4.56 31.24 31.24 0 0 1-9.76 1.2H77zm34.88 45.68q0 12.31-17.12 12.32H77l.4-24.32h17.4a24.82 24.82 0 0 1 13.28 2.88 10.07 10.07 0 0 1 4.24 9.12zm216.04-59.04a32.48 32.48 0 0 0-9.52-13 38.87 38.87 0 0 0-16-8 41.33 41.33 0 0 0-16-1.2 36.52 36.52 0 0 0-14.56 5 38.66 38.66 0 0 0-11.6 11A52 52 0 0 0 253.2 288a56.9 56.9 0 0 0-1.92 11.6 45.25 45.25 0 0 0 .72 11 41.8 41.8 0 0 0 3.2 9.92 33.35 33.35 0 0 0 6.08 8.8 34.1 34.1 0 0 0 8.48 6.32 53.51 53.51 0 0 0 11.24 4.28 38.71 38.71 0 0 0 15.44 1.2 31.56 31.56 0 0 0 12.24-4.64 31.23 31.23 0 0 0 8-7.2 22.25 22.25 0 0 0 4.08-8 7 7 0 0 0-.72-5.6 7.09 7.09 0 0 0-4.48-3.36 6.06 6.06 0 0 0-5.52.72 17.86 17.86 0 0 0-3.92 4.48 22 22 0 0 1-10.08 8 20.73 20.73 0 0 1-12.8 0 21.45 21.45 0 0 1-10.16-5 20.38 20.38 0 0 1-5-11.28 41.6 41.6 0 0 1 1.52-16 35.93 35.93 0 0 1 11.68-20.72 20 20 0 0 1 18.08-3.36 19.07 19.07 0 0 1 9.84 5.76 25.49 25.49 0 0 1 5.12 11 21.63 21.63 0 0 0 2.16 6.08 6.8 6.8 0 0 0 4.32 2.72 6.52 6.52 0 0 0 5.36-.88 7.36 7.36 0 0 0 3.28-4.4 19.8 19.8 0 0 0-1.12-12z" stroke-width="9"/></g></svg>