<svg id="plan-hoch_1" data-name="plan-hoch 1" xmlns="http://www.w3.org/2000/svg" viewBox="0 0 817.52 816"><defs><style>.cls-1{fill:#010101;stroke:#1d1d1b;stroke-miterlimit:10;stroke-width:.25px}</style></defs><path class="cls-1" d="M363.65 294.63c13.21 6.6 30.43 10.23 48.51 10.23s35.3-3.63 48.5-10.23c16.47-8.24 25.54-20.38 25.54-34.19v-59.23c0-13.81-9.07-26-25.54-34.19-13.2-6.6-30.43-10.23-48.5-10.23s-35.3 3.63-48.51 10.23c-16.46 8.24-25.53 20.38-25.53 34.19v59.23c0 13.81 9.07 25.95 25.53 34.19zm13.25-101.12c9-4.52 21.89-7.11 35.26-7.11s26.22 2.59 35.26 7.11c7.57 3.79 9.16 7.19 9.16 7.7s-1.59 3.91-9.16 7.7c-9 4.52-21.89 7.11-35.26 7.11s-26.22-2.59-35.26-7.11c-7.57-3.79-9.16-7.19-9.16-7.7s1.59-3.91 9.16-7.7zm-9.16 43.77c12.57 5.4 28.15 8.35 44.42 8.35s31.84-2.95 44.42-8.35v23.16c0 .51-1.59 3.91-9.16 7.7-9 4.52-21.89 7.11-35.26 7.11s-26.22-2.59-35.26-7.11c-7.57-3.79-9.16-7.19-9.16-7.7z"/><path class="cls-1" d="M605.63 543.76l-110.25.08-29.89-44L656.8 226.78a44.42 44.42 0 1 0-72.71-51.06l-172.7 246.67L240.21 175.7a44.42 44.42 0 0 0-72.73 51l189.67 273.15-30.8 44-107.68-.08a59.23 59.23 0 1 0 0 118.46h133.09l58.94-84.13 59.15 84.13h135.79a59.23 59.23 0 1 0 0-118.46zm2.71-351a14.8 14.8 0 1 1 24.22 17l-128.86 184h-36.08zM446.88 423.32H483l-20.75 29.62h-36.1zM191.75 209.76a14.81 14.81 0 0 1 24.18-17.1l139.51 201H319.5zm148.31 213.56H376l17.29 24.93-3.29 4.69h-29.37zm-3.71 209.29H218.67a29.67 29.67 0 0 1 0-59.33l123.1.09 63.65-90.81h36.06zm269.29 0H485.23l-56.46-80.31 18.55-26.47 32.39 47.55 125.93-.09a29.66 29.66 0 0 1 0 59.32z"/></svg>