<svg data-name="plan-pool 1" xmlns="http://www.w3.org/2000/svg" viewBox="0 0 817.52 816"><path d="M552.84 178.37c-45.08 0-81.75 37-81.75 82.57v84.28H263v-84.28c0-25.08 20.09-45.54 44.72-45.54s44.72 20.46 44.72 45.54a18.47 18.47 0 0 0 36.93 0c0-45.54-36.66-82.57-81.75-82.57s-81.74 37-81.74 82.57v305.35c-.63.45-1.27 1-1.9 1.45L197.7 589a18.53 18.53 0 1 0 23.35 28.79l26.25-21.27a23 23 0 0 1 29.06 0 60.61 60.61 0 0 0 75.95 0 23.05 23.05 0 0 1 29.07 0 60.61 60.61 0 0 0 75.95 0 23 23 0 0 1 29.06 0l26.26 21.27A18.56 18.56 0 1 0 536.09 589l-26.25-21.27c-.64-.54-1.27-1-1.9-1.45V260.94c0-25.08 20.09-45.54 44.72-45.54s44.72 20.46 44.72 45.54a18.47 18.47 0 0 0 36.94 0c.27-45.54-36.4-82.57-81.48-82.57zm-81.75 376a59.8 59.8 0 0 0-37 13.4 23 23 0 0 1-29.06 0 60.59 60.59 0 0 0-76 0 23 23 0 0 1-29.06 0 60.84 60.84 0 0 0-37-13.4v-54.8h208.12zm0-91.71H263v-80.51h208.09z" stroke="#1d1d1b" stroke-miterlimit="10" stroke-width="2"/></svg>