<svg xmlns="http://www.w3.org/2000/svg" viewBox="0 0 512 511.98"><g data-name="plan-hockey 2"><path d="M206.87 139.62C220.24 146.31 237.69 150 256 150s35.76-3.68 49.13-10.37C321.81 131.28 331 119 331 105V45c0-14-9.19-26.29-25.87-34.63C291.76 3.68 274.31 0 256 0s-35.76 3.68-49.13 10.37C190.19 18.71 181 31 181 45v60c0 14 9.19 26.29 25.87 34.62zM220.28 37.2c9.16-4.58 22.18-7.2 35.72-7.2s26.56 2.62 35.72 7.2C299.39 41 301 44.48 301 45s-1.61 4-9.28 7.8C282.56 57.37 269.54 60 256 60s-26.56-2.63-35.72-7.2C212.62 49 211 45.52 211 45s1.62-4 9.28-7.8zM211 81.53C223.74 87 239.52 90 256 90s32.26-3 45-8.47V105c0 .52-1.61 4-9.28 7.79-9.16 4.58-22.18 7.21-35.72 7.21s-26.56-2.63-35.72-7.21C212.62 109 211 105.52 211 105V81.53z"/><path d="M200.28 347.51l-31.2 44.55L60 392a60 60 0 0 0 0 120h134.82l59.71-85.22L314.44 512H452a60 60 0 1 0 0-120l-111.68.08L310 347.53 503.81 70.9a45 45 0 1 0-73.65-51.72L255.22 269 81.82 19.16A45 45 0 0 0 8.15 70.85zM324.43 422l127.56-.1a30.05 30.05 0 0 1 0 60.1H330l-57.19-81.35 18.79-26.82zM454.72 36.41a15 15 0 1 1 24.54 17.25L348.73 240h-36.55zM291.18 270h36.54l-21 30h-36.55zm-5.49 60L179.21 482H60a30.05 30.05 0 0 1 0-60.1l124.69.1 64.48-92zm-48.81-34.75l-3.33 4.75H203.8L183 270h36.39zM36.39 32.76a15 15 0 0 1 20.84 3.57L198.54 240h-36.4L32.74 53.66a15 15 0 0 1 3.65-20.9z"/></g></svg>