<svg xmlns="http://www.w3.org/2000/svg" viewBox="0 0 510.96 512"><path d="M133.73 445.3l26.94-35.92a45.07 45.07 0 0 1 21-15.36v117.15h29.94v-59.88h149.7v59.88h29.89v-38.71l38.71 38.71h81v-81.05L391.2 310.37V150.9h52.14L286.42 0 129.5 150.9h52.13v150.7a105.3 105.3 0 0 0-83.83 41.91l-35.92 47.9c-11.06 14.73-29.52 25.54-49.4 28.9L0 422.42V512l16.47-1.65c46.37-4.66 90.21-29 117.26-65.05zm167.66-143.7h-29.94v-75.85a15 15 0 1 1 29.94 0zm59.88 29.93v30h-149.7v-30zm-149.7 89.82v-29.94h149.7v29.94zM481 481.23h-29.92v-68.64L481 442.52zm-59.88-98.59v77.42l-29.92-29.94v-77.41zM286.42 41.53L369 121H203.82zM211.57 150.9h149.7v150.7h-29.94v-75.85a44.91 44.91 0 1 0-89.82 0v75.85h-29.94zM29.94 447c22.44-6.54 42.74-20.06 55.88-37.58l35.93-47.91a75.23 75.23 0 0 1 59.88-29.94V363a75.22 75.22 0 0 0-44.91 28.4l-26.94 35.93c-18.9 25.2-48 43.4-79.84 50.55z" data-name="plan-kinder 2"/></svg>