<svg data-name="plan-vol 1" xmlns="http://www.w3.org/2000/svg" viewBox="0 0 817.52 816"><path d="M408.75 129.58c-141.52 0-256.66 115.14-256.66 256.67a255.8 255.8 0 0 0 73 179.11q.49.54 1 1a255.89 255.89 0 0 0 182.62 76.51 256.68 256.68 0 0 0 256.72-256.62c0-141.52-115.14-256.67-256.68-256.67zM630.11 376a221.29 221.29 0 0 1-84.74 24c.24-4.6.4-9.22.4-13.85A256.39 256.39 0 0 0 419.09 164.9C533.1 170.16 624.88 262 630.11 376zM348.77 172.9A221.2 221.2 0 0 1 510.7 386.14c0 4.6-.16 9.21-.43 13.78A221.27 221.27 0 0 1 426 375.71a256.47 256.47 0 0 0-32.29-114.24 18.38 18.38 0 0 0-1.51-2.72 257.87 257.87 0 0 0-68-77.33 220.58 220.58 0 0 1 24.57-8.52zm-136.86 315a220.35 220.35 0 0 1-24.75-101.69c0-78.19 40.71-147 102-186.51a221.6 221.6 0 0 1 63.13 61.38c-4.1 2.08-8.16 4.25-12.13 6.54a256.46 256.46 0 0 0-128.25 220.32zm42 56.69A221.23 221.23 0 0 1 357.72 298c3.95-2.29 8-4.43 12.08-6.48a221.13 221.13 0 0 1 21.13 85 256.5 256.5 0 0 0-83.2 85.82c-.18.29-.35.58-.52.88a257.2 257.2 0 0 0-33.56 98.49 224.9 224.9 0 0 1-19.72-17.08zm311.52-1.69A221.44 221.44 0 0 1 307 583.05a221.8 221.8 0 0 1 21.58-85.38c3.87 2.53 7.78 5 11.78 7.27a256.36 256.36 0 0 0 255 .93 223.81 223.81 0 0 1-29.91 37.07zm58.17-102.07a221.21 221.21 0 0 1-265.75 33.7c-4-2.29-7.85-4.73-11.69-7.25a221.28 221.28 0 0 1 63-60.82 256.31 256.31 0 0 0 116.66 29.19h2.42a257.61 257.61 0 0 0 100.17-20.27 220.31 220.31 0 0 1-4.79 25.49z"/></svg>