<svg id="plan-garbage_1" data-name="plan-garbage 1" xmlns="http://www.w3.org/2000/svg" viewBox="0 0 817.52 816"><defs><style>.cls-1{fill:#010101;stroke:#1d1d1b;stroke-miterlimit:10;stroke-width:.5px}</style></defs><path class="cls-1" d="M557.61 195.05h-75.4a71.27 71.27 0 0 0-140.82 0H266a60.75 60.75 0 0 0-60.68 60.68v2.94a60.38 60.38 0 0 0 36.29 55.52V583.3a60.75 60.75 0 0 0 60.67 60.7h219A60.75 60.75 0 0 0 582 583.3V314.19a60.37 60.37 0 0 0 36.29-55.51v-3a60.75 60.75 0 0 0-60.68-60.63zM411.8 168.57a37.63 37.63 0 0 1 35.88 26.48h-71.76a37.63 37.63 0 0 1 35.88-26.48zM548.25 583.3a27 27 0 0 1-26.93 26.94h-219a27 27 0 0 1-26.94-26.94V319.36h272.87zm36.29-324.63a27 27 0 0 1-26.93 26.94H266a27 27 0 0 1-26.93-26.94v-2.94A27 27 0 0 1 266 228.79h291.61a27 27 0 0 1 26.93 26.94z"/><path class="cls-1" d="M338.8 581.92a16.88 16.88 0 0 0 16.86-16.87V411.73a16.87 16.87 0 1 0-33.74 0v153.32a16.89 16.89 0 0 0 16.88 16.87zm73 0a16.89 16.89 0 0 0 16.87-16.87V411.73a16.87 16.87 0 1 0-33.74 0v153.32a16.89 16.89 0 0 0 16.87 16.87zm73 0a16.89 16.89 0 0 0 16.88-16.87V411.73a16.88 16.88 0 1 0-33.75 0v153.32a16.89 16.89 0 0 0 16.87 16.87z"/></svg>