<svg xmlns="http://www.w3.org/2000/svg" viewBox="0 0 512 512"><path d="M81 100c0-22.44 15.88-36.59 28.65-48C122.89 40.25 131 32.39 131 20a20 20 0 0 1 40 0c0 31-20.08 48.85-34.75 61.91C128.75 88.59 121 95.5 121 100a20 20 0 0 1-40 0zm110 20a20 20 0 0 0 20-20c0-4.5 7.75-11.41 15.25-18.09C240.92 68.85 261 51 261 20a20 20 0 0 0-40 0c0 12.39-8.11 20.25-21.35 32C186.88 63.41 171 77.56 171 100a20 20 0 0 0 20 20zm90 0a20 20 0 0 0 20-20c0-4.5 7.75-11.41 15.25-18.09C330.92 68.85 351 51 351 20a20 20 0 0 0-40 0c0 12.39-8.11 20.25-21.35 32C276.88 63.41 261 77.56 261 100a20 20 0 0 0 20 20zm231 120.27l-.07 4.87c0 39.18-17 76.17-47.85 104.16-27 24.55-61.64 39.2-92.62 39.2h-.12c-.42 0-.84 0-1.26-.06-.27 0-.55 0-.82-.06s-.57-.08-.85-.13-.81-.12-1.21-.21h-.12c-.17 0-.33-.09-.5-.13-.44-.12-.89-.23-1.32-.37-.24-.08-.46-.17-.69-.26s-.76-.28-1.13-.44-.55-.26-.83-.39-.6-.3-.89-.46-.61-.36-.91-.55l-.72-.46c-.31-.22-.6-.45-.89-.68s-.43-.32-.64-.5-.54-.48-.81-.74l-.61-.58c-.23-.24-.46-.5-.69-.76l-.6-.7c-.19-.24-.37-.49-.55-.74s-.4-.55-.59-.84l-.44-.72c-.18-.31-.37-.63-.54-1s-.24-.48-.35-.72-.32-.68-.46-1-.2-.54-.29-.81-.24-.66-.34-1-.17-.65-.25-1-.15-.59-.21-.89-.13-.8-.18-1.2-.07-.49-.09-.73c-.05-.46-.06-.92-.07-1.38v-.63c0-.42 0-.83.06-1.25 0-.27 0-.56.06-.83s.08-.57.13-.85.12-.81.2-1.2v-.13L388.77 200H45.06L82.5 364.53a138.12 138.12 0 0 0 232.08 67.28 20 20 0 0 1 28.19 28.37q-6.3 6.27-13.1 11.82H414a20 20 0 0 1 0 40H20a20 20 0 0 1 0-40h84.72a178.75 178.75 0 0 1-61.22-98.6l-43-189A20 20 0 0 1 20 160h393.75a20 20 0 0 1 19.52 24.38l-8 35.62H492a20 20 0 0 1 20 20.27zM470.74 260H416.3l-18.76 83.61c32.17-11.33 66.46-41.68 73.2-83.61z" data-name="plan-caffe 2"/></svg>