<svg xmlns="http://www.w3.org/2000/svg" viewBox="0 0 101.68 104.05"><g data-name="protect 2"><path d="M101.65 7.14l-2.8-5.24-.44.26C64.73 21.29 36.62 20.2 3 0L2 2.14 0 5.52l4.46 58 .11.39a62.49 62.49 0 0 0 9.52 18.69C23.43 95.2 36 102.4 51.37 104h.78c14.56-1.34 26.42-8 35.24-19.92a59.55 59.55 0 0 0 9.53-19.34l.08-.33 4.67-57.28zM81 79.32A40 40 0 0 1 51.81 96c-12.9-1.45-23.42-7.56-31.29-18.17a55.53 55.53 0 0 1-8.14-15.79L8.55 12.3a96.59 96.59 0 0 0 39.5 10.65c1.3.06 2.61.09 3.91.09a95 95 0 0 0 41.15-9.28l-4 49.31A52.39 52.39 0 0 1 81 79.32z" fill="#fff" data-name="protect 1"/></g></svg>