<svg xmlns="http://www.w3.org/2000/svg" viewBox="0 0 512 512"><defs><style>.cls-1{fill:#fff}</style></defs><g id="Слой_2" data-name="Слой 2"><g id="Capa_1" data-name="Capa 1"><path class="cls-1" d="M497 0H15A15 15 0 0 0 0 15v482a15 15 0 0 0 15 15h482a15 15 0 0 0 15-15V15a15 15 0 0 0-15-15zm-15 482H30V30h452z"/><path class="cls-1" d="M239.93 126.4a15 15 0 1 0-10.6-4.39 15.13 15.13 0 0 0 10.6 4.39zm80.34 0a15 15 0 1 0-10.61-4.4 15.11 15.11 0 0 0 10.61 4.4zm80.33 0A15 15 0 1 0 390 122a15.13 15.13 0 0 0 10.6 4.4zM111.4 415.6h289.2a15 15 0 0 0 0-30H111.4a15 15 0 0 0 0 30zm0-96.4h289.2a15 15 0 0 0 0-30H111.4a15 15 0 0 0 0 30zm48.2-96.4h192.8a15 15 0 0 0 0-30H159.6a15 15 0 0 0 0 30z"/></g></g></svg>