<svg xmlns="http://www.w3.org/2000/svg" viewBox="0 0 1116.33 1283.59"><defs><style>.cls-1{fill:#eae4e4}</style></defs><g id="roads-genplan_2" data-name="roads-genplan 2"><g id="roads-genplan_1-2" data-name="roads-genplan 1"><path class="cls-1" d="M824.18 519.11l-.01-.07-88.55-463.11-4.9.94 88.52 462.96 19.91 152.67 38.75 611.09 4.98-.32-38.76-611.17-19.94-152.99zm289.75-386.14l2.4-4.37-65.26-35.81 15.09-15.04 37.87 27.54 2.93-4.03-41.31-30.04-19.13 19.07-20.86-11.44-34.2-24.47-2.9 4.05 33.35 23.86 33.15 587.85 4.98-.28-28.9-512.52 67.41 86.45 3.93-3.07-71.84-92.12-3.57-63.29 86.86 47.66zM0 16.49L14.21 299l327.88-16.48L327.89 0zm18.94 277.32L5.23 21.21l317.93-16 13.71 272.59z"/><path class="cls-1" d="M313.55 101.48l-11.71-34.61 9.47-45.81-4.88-1-9.76 47.19-166.89 6.37c-4.14 0-85.34-.18-89.22 0a5.17 5.17 0 0 0-3.67 1.75c-2.32 2.56-2.26 7.12-2.21 8.18v186h5V83.37c-.11-2.33.57-4.74 1.14-4.77 2.93-.14 56.48-.06 86.53 0l-.73 194.63h5l.73-194.74 86-3.29 9.45 190 5-.24L223.28 75l75.08-2.87 10.25 30.26 8.85 171 5-.26-8.86-171.29z"/></g></g></svg>