<svg xmlns="http://www.w3.org/2000/svg" viewBox="0 0 40.54 45.1"><g data-name="Слой 2"><path d="M17 18.41A10.17 10.17 0 0 1 15.91 12c.86-5.11 9.69-10.86 19.37-10.37L35.36 0C24.71-.5 15.3 5.87 14.32 11.71A11.79 11.79 0 0 0 15.5 19a14.17 14.17 0 0 1 1.41 5.25C17.09 27.72 6.63 33.23 0 35.89l.61 1.48c1.86-.75 18.2-7.48 17.92-13.18A15.81 15.81 0 0 0 17 18.41zm23.5 11.2a14.73 14.73 0 0 0-5.93-10.9c-5.69-3.81-6.14-5.84-4.94-7.89 2.77-4.7 9.93-4.77 9.93-4.77V4.46s-8.09.06-11.33 5.54c-2.38 4 1.28 7.21 5.48 10a13.08 13.08 0 0 1 5.2 9.69c.27 3.52-.65 8.84-6.53 14.19l1.09 1.18c6.35-5.79 7.31-11.61 7-15.48zM17.62 40.76l.38 1.56a12.05 12.05 0 0 0 2-.75l-.68-1.45a10.7 10.7 0 0 1-1.74.64zM23 19.25A34.68 34.68 0 0 1 24.88 23l1.49-.62a35.51 35.51 0 0 0-2-3.89zm-.53-8L21 10.58a5.46 5.46 0 0 0-.5 2.27 7.09 7.09 0 0 0 .5 2.48l1.51-.55a5.53 5.53 0 0 1-.39-1.93 3.9 3.9 0 0 1 .35-1.62zm.26 26.68l1.1 1.17a12.27 12.27 0 0 0 2.72-3.65l-1.45-.69a10.76 10.76 0 0 1-2.37 3.17zm4.9-11.29l-1.63.23c.08.48.13 1 .17 1.46s0 .74 0 1.09a14.37 14.37 0 0 1-.08 1.5l1.6.16a15.53 15.53 0 0 0 .09-1.66v-1.2c0-.42-.1-1.08-.19-1.61zm-2-20.81C25 6.21 24.47 6.63 24 7l1 1.24c.46-.37 1-.76 1.57-1.15zm0 0" fill="#fff" fill-rule="evenodd" data-name="Слой 1"/></g></svg>