<svg xmlns="http://www.w3.org/2000/svg" id="Слой_1" x="0" y="0" width="391.2" height="138.9" xml:space="preserve"><style>.st1{fill:#00834f}</style><g id="Слой_x0020_1_5_"><path d="M12.2 30.1c2.4 2.2 4.6 4.7 7 6.9v4.5c-.2-.1-.4-.3-.7-.5-2.1-2.1-4.2-4.2-6.3-6.4-.1-1.4-.1-3 0-4.5zm8.1 7c2.4-2.3 4.6-4.7 7-7 .1 1.4 0 2.9 0 4.3 0 .3-.2.4-.3.6-2 2-4 4.1-6 6.1-.2.2-.4.4-.7.5v-4.5zm-8.1-.7c.7.5 1.2 1.2 1.8 1.8 1.7 1.7 3.4 3.4 5.2 5.1v4.6c-1.9-1.8-3.7-3.7-5.6-5.6-.4-.5-1-.9-1.3-1.5-.2-1.5-.1-2.9-.1-4.4zm12.9 2.1c.7-.7 1.4-1.5 2.2-2.2v4.1c.1.5-.4.8-.7 1.1-2.2 2.1-4.2 4.3-6.3 6.3 0-1.5-.1-3.1 0-4.6 1.6-1.5 3.2-3.1 4.8-4.7zm-12.9 4.2c.2.1.4.2.6.4 2.2 2.1 4.3 4.3 6.4 6.4v4.6c-2.4-2.3-4.6-4.7-7-7-.1-1.4-.1-2.9 0-4.4zm14.5.4c.2-.2.4-.3.6-.4v4.4c-2.2 2.1-4.2 4.3-6.4 6.4-.2.2-.4.3-.6.4v-4.4c2.2-2.1 4.3-4.3 6.4-6.4zm-6 12.3l6.6-6.6c.1 1.5.1 3.1 0 4.6-1.6 1.7-3.2 3.2-4.8 4.9l-2.1 2.1v-4.3c-.1-.4.1-.5.3-.7zm-8.5-6.3c.6.1.9.6 1.3 1 1.9 1.9 3.7 3.8 5.7 5.7.1 1.4 0 2.8 0 4.2-.6 0-.8-.5-1.2-.9-1.9-1.9-3.8-3.9-5.8-5.8-.1-1.4 0-2.8 0-4.2zm17.7 4.2c.4-2.2 2.9-3.5 4.9-2.8 1.4.5 2.3 1.9 2.2 3.4 0 .8-.4 1.5-.7 2.1.2.1.5.2.6.2.4-.3.6-.9 1.1-.9.4.3.8.9 1.4.9.2-.3.5-.6.7-1 .4.1.7.4.9.6.3.3.8.1 1.1.2 1.1-.1 2.1.1 3.2 0h3.8c1.6-.2 3.3.2 4.9 0 .8-.1 1.6.1 2.4 0 .7-.1 1.5.1 2.2 0 1-.1 2.2-.3 3.1.3 0 .6.3 1.5-.4 1.9-.7.1-1.5 0-2.2 0h-.4c0 .4-.1.8-.1 1.2l.6.3c0 .1 0 .5.1.6-.2.2-.4.3-.5.5-.3.4-.6.8-.8 1.2h1.4c0 .6.2 1.2-.2 1.7-.7.3-.8-.5-.8-1h-2.3v1h-.8V62h1.4c-.3-.6-.7-1.2-1.4-1.5v-1c.2-.1.4-.2.6-.2v-1.1H41.5c-.7-.1-.8.8-1.4.8-.3-.2-.5-.6-.7-.8h-.8c-.2.4-.5.7-.9.9-.2-.3-.4-.6-.7-.9h-.8c.3.7.7 1.5.7 2.3 0 1.3-.7 2.7-2 3.2-1.9.9-4.6-.3-5.1-2.5-.4-1.3.4-2.4.9-3.5-.2-.2-.5-.3-.7-.5-.1-.6.7-1 .4-1.6-.1-.5-.7-1.3-.5-2.3zm1 .9c0 .6.6 1 1.1 1.2.1.3.1.6.2.9-.2.5-.3 1-.1 1.5.3.4-.2.8-.1 1.3-.4.3-1.1.5-1.1 1.1-.4 1.6 1.3 3.1 2.8 3 1.4 0 2.6-1.6 2.2-3-.2-.7-1-.8-1.6-1 0-.1 0-.2.1-.3.8-.3 1.3-1.2 1.1-2 0-.8-.7-1.3-1.3-1.7.6-.2 1.4-.3 1.6-1 .4-1.4-.7-3.1-2.2-3-1.4 0-2.9 1.4-2.7 3zm-18.7 1c.4.3.7.6 1 .9 1.9 2 4 4 5.9 6v4.3c-.2-.1-.4-.3-.6-.5l-6.3-6.3v-4.4zM25.4 57c.6-.6 1.2-1.3 1.9-1.9v4.5c-2.4 2.3-4.6 4.7-7 7V62c1.7-1.7 3.4-3.3 5.1-5z" fill="#fdca30" id="_364680953920"/><g id="_364799284560"><path class="st1" d="M27.7 35.6c5.9-.6 11.9.5 17.2 3.3 6.7 3.6 11.9 9.7 14.6 16.9-6 .1-12 0-18 .1-.3-.4-.6-.9-1.2-.8-.5.1-.8.6-1.2.9-.3-.4-.6-1-1.2-.9-.5 0-.7.5-1 .9 1.1-1.9.4-4.6-1.7-5.5-2.2-1.1-5.3.4-5.7 2.9-.2 1.1.3 2 .8 2.9-.2.3-.6.6-.5 1 0 .4.4.7.6 1-.6 1-1.2 2.1-.8 3.3.6 2.5 3.7 3.8 5.9 2.6 1.7-.9 2.4-3.3 1.6-5 .3.2.5.4.8.5.5 0 .8-.6 1.2-.8.5 0 .7.8 1.2.8.5.1.8-.5 1.1-.8h14.3v.5H55v2c.4.1.8.1 1.1.5H55v2.6h1.7v-1h1.6v1H60v-2.6c-.4 0-.7.1-1.1.1.3-.4.7-.5 1.1-.5v-2h-.7V59h1.1c.8 3.1 1.2 6.4 1.1 9.7H40.1l.3 1.5c-.4-.6-.9-1.1-1.6-1.4-1.1-.6-2.5-.4-3.7-.4-1.1 0-2.2.2-3 .9-.6.5-.9 1.1-1.2 1.8-.3-.8-.7-1.6-1.4-2.1-.9-.6-2-.8-3.1-.8h-5.8v29.6c-.3-.1-.6-.2-.9-.4l-.1-.2c.1-2.8 0-5.7.1-8.5 0-3-1.2-5.9-3-8.3-3.1-4-7.4-7-10.5-11.1-1.5-2.1-2.8-4.7-2.8-7.4 0-.1-.1-.3-.2-.3.2 3.1 0 6.2.1 9.3.1 3.4 1.8 6.6 4.1 9.1 2.8 3.2 6.2 5.8 8.9 9.2 1.9 2.3 3.2 5 3.4 8-.9-.1-1.6-.7-2.4-1C8.8 91.6 2.7 83.2.9 73.8-.6 66.2.6 58 4.5 51.3v7.3c0 3.4 1.7 6.7 3.9 9.1 1.6 1.9 3.4 3.6 5.2 5.3 1.8 1.9 3.6 3.8 4.7 6.2.6 1 .7 2.2 1.2 3.3.1-1.3 0-2.6.1-3.9 0-1.5.1-3-.1-4.5-.4-2.3-1.3-4.4-2.7-6.2-2.9-3.7-6.7-6.5-9.5-10.3C6 56 5.1 54 4.7 52c-.1-.5-.2-1 .2-1.4 1.9-3.1 4.1-5.9 7-8.1v4.7c.1.1.2.3.3.4 0 .1-.1.3-.2.5-.2.3-.1.7-.1 1v4.4l.4.4-.4.4c-.1 1.8 0 3.7 0 5.5 2.4 2.4 4.8 4.8 7.1 7.2.2.2.4.3.6.5l.4.1c2.6-2.5 5.2-5.2 7.8-7.8v-5.4l-.1-.1c-.1-.1-.2-.3-.3-.4.1-.1.2-.2.4-.3l.2-.2c.1-1.6.1-3.1 0-4.7-.2-1.1.1-2.2 0-3.3 0-1.1 0-2.3-.1-3.4l-.2-.2c-.1 0-.3-.2-.4-.2.1-.1.3-.3.4-.5v-5.5zm50.1 15h9.8c2.3 0 4.8-.1 7 .8 2.7 1.1 4.6 3.8 5.2 6.8.5 3-.1 6.3-2.1 8.6-1.7 2-4.2 3.1-6.7 3.2h-7.9v12.7h-5.3V50.6zm5.3 4.8V65h6.3c1.2 0 2.5-.2 3.4-1 2.1-1.8 2.1-5.5.2-7.4-1-.9-2.5-1.1-3.8-1.2h-6.1zm210.6-4.8h19.7v5.7h-12.9v7c2.5 0 4.9-.1 7.4.1 1.7.2 3.6.4 5.1 1.4 2 1.4 3.3 3.8 3.6 6.2.2 2.1.1 4.2-.6 6.2-.7 1.7-1.9 3.2-3.5 4.1-1.7 1-3.6 1.3-5.4 1.3h-13.2c-.2-10.6-.1-21.3-.2-32zm6.8 18.4v7.6h4.8c.9 0 1.9-.1 2.7-.5 1-.6 1.6-1.8 1.7-3 .1-1.1-.1-2.3-1-3.1-.9-.8-2.2-1-3.4-1h-4.8z"/><path class="st1" d="M31.3 54.2c-.3-1.5 1.3-2.6 2.6-2.4 1.1.1 1.9 1.3 1.7 2.4-.3.8-1.3.6-1.9.7.1.3.3.7.4 1 1.4.2 1.4 2.6 0 2.8-.2.4-.3.7-.4 1.1.6.1 1.4 0 1.8.6.4 1-.4 2.3-1.4 2.5-1.4.4-3-.8-2.8-2.3 0-.8.8-.9 1.4-1.1l-.3-.6.6-.6c-.3-.2-.7-.5-.6-.9 0-.5.4-.7.7-.9-.2-.2-.4-.3-.6-.5.1-.2.1-.4.2-.6-.5-.4-1.4-.5-1.4-1.2zm79.4 4.3c2.3-.3 4.7.1 6.6 1.5 2.7 1.9 4.3 5.1 4.7 8.4.4 3.1.1 6.5-1.4 9.3-1.3 2.5-3.7 4.6-6.5 5.2-3 .7-6.5 0-8.6-2.4-1.9-2.2-3.1-5.1-3.4-8.1-.4-3.6.3-7.5 2.5-10.4 1.4-1.8 3.7-3.2 6.1-3.5zm.9 4.4c-1.2.1-2.3.7-3 1.8-1 1.5-1.3 3.4-1.4 5.2-.1 1.9 0 3.9.7 5.7.5 1.3 1.4 2.5 2.7 2.9 1.7.6 3.8.1 4.8-1.3 1.2-1.6 1.4-3.7 1.5-5.7 0-2.3-.1-4.8-1.4-6.8-.8-1.4-2.4-2-3.9-1.8zm21.5-4.3c2.3-.4 4.9-.1 6.9 1.4 2 1.6 3 4.1 3.4 6.6l-4.2.6c-.2-1.3-.6-2.8-1.7-3.7-1.3-1-3.2-1-4.6-.1-1.2.9-1.7 2.3-2.1 3.7-.6 2.4-.6 5 0 7.4.4 1.3 1 2.6 2.2 3.3 1.4.9 3.4.6 4.5-.6.9-.9 1.3-2.2 1.6-3.4 1.4.1 2.8.3 4.2.5-.4 2.2-1.2 4.4-2.6 6.1-3 3.3-8.6 3.6-11.8.6-2.1-2.1-3.2-5-3.6-8-.4-3.6 0-7.5 2.1-10.6 1.3-1.8 3.4-3.4 5.7-3.8zm16.5 2c1.5-1.4 3.6-2.1 5.6-2.2 2.1-.1 4.3.5 5.8 2 1.7 1.6 2.5 3.9 2.9 6.2l-4.2.6c-.2-1.1-.5-2.3-1.2-3.2-1.1-1.4-3.2-1.5-4.7-.8-1.3.7-1.9 2.1-2.3 3.4-.7 2.3-.7 4.7-.4 7 .2 1.5.7 3 1.9 3.9 1.4 1.2 3.7 1.1 5-.2.9-.9 1.3-2.2 1.7-3.5 1.4.1 2.8.3 4.2.5-.5 2.5-1.5 5.2-3.5 6.9-2.3 1.9-5.6 2.3-8.3 1.4-1.8-.6-3.2-1.9-4.2-3.5-1.9-3.1-2.4-6.9-2-10.5.3-3 1.5-5.9 3.7-8zm22.1-.9c2.2-1.2 4.8-1.4 7.2-1 2.1.5 4 1.9 5.2 3.7 1.7 2.6 2.3 5.9 2.2 9h-14.9c0 2 .1 4.4 1.6 5.9 1.4 1.7 3.9 1.9 5.8 1.1 1.4-.6 2.2-2 2.7-3.4 1.5.2 2.9.4 4.4.6-.7 3.2-3.3 6-6.4 6.9-2.4.7-5.1.6-7.4-.4-2.7-1.3-4.6-4-5.3-6.9-.7-2.8-.7-5.7-.1-8.4.7-2.8 2.4-5.6 5-7.1zm1.5 3.8c-1.2 1.2-1.7 2.9-1.9 4.6h9.8c0-2.1-.9-4.3-2.7-5.3-1.6-1-3.8-.7-5.2.7zm83.9-4.9c2.3-.4 4.8 0 6.8 1.3 2.7 1.8 4.4 5 4.8 8.3.4 2.9.2 6-1 8.7-1 2.2-2.6 4.1-4.7 5.2-3.3 1.7-7.8 1.4-10.5-1.3-2-2-3.1-4.7-3.6-7.5-.5-3.7 0-7.8 2.2-10.8 1.4-2 3.6-3.5 6-3.9zm.4 4.5c-1.8.5-2.8 2.4-3.2 4.1-.5 2.1-.5 4.2-.2 6.3.3 1.6.8 3.2 2 4.3 1.3 1.2 3.3 1.3 4.9.5 1.3-.7 2-2.1 2.3-3.5.5-1.9.5-3.9.4-5.9-.2-1.7-.6-3.4-1.7-4.7-1.1-1.3-3-1.6-4.5-1.1zm16.3-2.3c1.5-1.5 3.5-2.1 5.5-2.3 1.9-.1 3.9 0 5.7.8 1.7.8 3.1 2.4 3.5 4.3.2 1.3.2 2.7-.5 3.8-.7 1.3-2 2.1-3.3 2.6 1.6.6 3.3 1.5 4.1 3.1 1.1 2.6.4 6-1.7 7.9-1.6 1.6-3.9 2.1-6.1 2.1s-4.5-.3-6.4-1.7c-1.8-1.3-2.9-3.4-3.4-5.6l4.5-.9c.4 1.6 1.1 3.2 2.7 3.9 1.6.6 3.7.5 4.9-.8.8-.9 1.1-2.3.8-3.4-.3-1.2-1.3-2-2.4-2.2-1.2-.2-2.3-.1-3.5-.2v-3.7c1.3 0 2.7 0 4-.6 1.6-.9 1.8-3.5.5-4.7-1.1-1-2.8-1-4.1-.6-1.4.5-2.1 1.9-2.3 3.2l-4.5-.9c.2-1.4.8-3 2-4.1zm49.3-.4c3-1.9 6.7-2.3 10.1-1.6 1.9.3 3.7 1.2 4.8 2.8 1 1.2 1.1 2.9 1.1 4.4.1 3.1 0 6.2 0 9.3 0 2.5-.2 5 .4 7.5h-6.2c-.3-1.2-.3-2.5-.3-3.7-.9 1.3-1.9 2.7-3.4 3.4-1.8.8-3.8 1-5.7.5-1.9-.5-3.6-1.9-4.2-3.8-1-3-.2-6.7 2.4-8.6 1.8-1.4 4-1.8 6.2-2.1 1.5-.2 3-.4 4.5-.5 0-1.2.1-2.6-.6-3.7-.5-.8-1.6-1.2-2.5-1.2-1.1 0-2.2.2-3 1.1-.6.6-.7 1.5-.9 2.3-1.9-.2-3.9-.4-5.9-.6.4-2.2 1.4-4.3 3.2-5.5zm3.6 13.4c-.9 1.3-.7 3.3.5 4.4.7.6 1.7.6 2.6.4 1.3-.4 2.2-1.5 2.6-2.7.6-1.5.4-3.1.4-4.7-2.1.4-4.6.8-6.1 2.6zM194.4 58.9h5.8c2.2 7.9 4.5 15.8 6.7 23.7h-5.1c-1.2-5-2.5-9.9-3.7-14.9-.4-1.5-.7-3.1-1.2-4.5-1.9 6.4-3.6 12.9-5.5 19.4h-4c2.4-7.8 4.6-15.8 7-23.7zm15.3 0h4.8v8.6h6.3c1.6 0 3.3.5 4.5 1.7 1.5 1.4 2.2 3.6 2.2 5.6 0 1.9-.3 3.9-1.5 5.3-1.2 1.5-3 2.2-4.8 2.4-3.9.1-7.7 0-11.5 0V64.2c0-1.7-.1-3.5 0-5.3zm4.9 12.6v7h3.5c1.1 0 2.4.1 3.4-.4.8-.5 1.1-1.4 1.2-2.3.1-1.1 0-2.3-.7-3.2-.6-.8-1.6-1.1-2.5-1-1.7-.1-3.3-.1-4.9-.1zM229.3 59h5.5c.9 1.7 1.7 3.4 2.6 5.1.3.6.6 1.3 1 1.9 1.4-2.3 2.7-4.6 4.1-6.9h4c-.6 1.3-1.5 2.5-2.2 3.8-1.3 2.2-2.6 4.3-3.9 6.5 2.4 4.5 4.8 8.9 7.2 13.4H242c-1.5-2.8-3-5.7-4.5-8.5-.2 0-.3.3-.4.4-1.5 2.7-3.1 5.4-4.7 8.1h-4.2c2.4-4.1 4.8-8.1 7.2-12.2-1.9-3.6-3.9-7.2-5.8-10.7-.1-.4-.2-.7-.3-.9zm140 0h6.4v10.1c.9-1.5 2.1-2.7 3.2-4.1l5.1-6h5.9c-2.1 2.8-4.4 5.4-6.6 8.1 2.5 5.2 5 10.4 7.5 15.5-2.2.1-4.5 0-6.7 0-1.7-3.5-3.4-7-5-10.6-1.1 1.2-2.2 2.5-3.2 3.7-.2 2.3 0 4.6-.1 6.8h-6.4c-.1-7.7-.1-15.6-.1-23.5zm-24.7 23.7V59h6.4v8.5h6.7v-8.6h6.4v23.7h-6.4c0-3.4.1-6.7 0-10.1H351v10c-2.2.2-4.3.1-6.4.2zM21.9 69.3h4.9c.9 0 1.9.2 2.4.9s.5 1.6.5 2.5v13.5c0 1-.2 2.2-1.1 2.7-1.1.6-2.3.4-3.5.4v9.5c-1.1-.2-2.2-.5-3.2-.8V69.3zm3.2 2.8v14.4h1.4V72.1h-1.4zm7.7-2c.8-.7 1.9-.6 2.9-.7 1 0 2.2 0 3 .6.7.6.9 1.6.9 2.5v7.2h-3.1c-.1-2.5 0-5 0-7.4h-1.3v24.9h1.3V81h3.1v15.5c0 .5 0 1-.1 1.5-2.3.7-4.6 1.2-7 1.2-.3-.6-.5-1.4-.5-2.2V72.9c0-1 0-2.1.8-2.8zm9-.3H45c.2 3.2.3 6.4.5 9.6.1 0 .3.1.4.1.2-3.2.4-6.5.5-9.7h3.4c-.6 3-1.2 5.9-1.8 8.9 1 .3 1.8 1.2 1.7 2.4.1 3.9 0 7.7 0 11.6-1.1.8-2.2 1.7-3.4 2.4V81.4h-1.5v14.5c-1.1.6-2.2 1.1-3.4 1.6V81.4c0-1.2.6-2.3 1.8-2.7-.4-3-.9-6-1.4-8.9zm10.6-.1h8.9v2.5c-1.7.1-3.5 0-5.2 0v1.3c1.6 0 3.5-.3 4.7 1-.7 2.9-1.7 5.8-3.2 8.4-.1-2.3 0-4.6 0-6.8h-1.5v9.5c-1.1 1.6-2.3 3.1-3.7 4.5V69.7z"/><path class="st1" d="M50.7 70.4c.1.7.1 1.4.1 2.1v6.8c-.4-.6-.9-1-1.5-1.3.5-2.5 1.1-5.1 1.4-7.6zM29.3 90c.6-.3.9-.9 1.3-1.4v8.2c0 .9.1 1.8.4 2.6-1.5 0-3.1-.1-4.6-.3v-8.3c1.1-.1 2.1-.2 2.9-.8z"/></g><path d="M26.5 35.9c.2-.3.7-.3 1-.3-2.4 2.5-4.8 4.8-7.2 7.2-.2.2-.4.4-.4.7v5.3c2.4-2.5 4.8-4.9 7.3-7.4.1.1.3.2.4.2-2.6 2.6-5.2 5.1-7.7 7.8-.1 1.8 0 3.7 0 5.6l7.2-7.2c.2-.3.6-.6.5-1v-5.1l.2.2c.1 1.2 0 2.3.1 3.4 0 1.1-.2 2.2 0 3.3 0 1.6.1 3.1 0 4.7l-.2.2v-5.6c-2.4 2.3-4.7 4.8-7.1 7.1-.2.3-.6.5-.6.9V61c.3 0 .5-.3.6-.5 2.2-2.3 4.5-4.5 6.7-6.8.1.1.2.3.3.4l-6.5 6.5c-.4.4-.8.7-1.1 1.2-.1 1.8 0 3.7 0 5.5l-.4-.1c-.1-1.8 0-3.6 0-5.4-.3-.5-.7-.8-1.1-1.2L11.9 54l.4-.4c2.5 2.5 4.9 5 7.4 7.5v-5.6c-2.6-2.6-5.1-5.1-7.6-7.7 0-.1.1-.3.2-.5 2.5 2.5 4.9 5 7.4 7.5v-5.6l-7-7c-.2-.2-.4-.5 0-.7 2.4 2.2 4.6 4.7 7 6.9v-5.5L16 39.2c.2 0 .5-.2.6 0l3.1 3.1v-4.8c.1-.1.3-.2.4-.3v5.1c2-1.9 4.2-4.2 6.4-6.4z" fill="#217051" id="_364799285552"/><path d="M27.7 41.7v5.1c.1.4-.3.7-.5 1L20 55c0-1.9-.1-3.7 0-5.6 2.5-2.6 5.1-5.1 7.7-7.7zm-1 1.4c-2.2 2.1-4.3 4.3-6.4 6.4v4.4c.2-.1.4-.2.6-.4 2.2-2.1 4.3-4.3 6.4-6.4.1-1.5 0-3 0-4.4-.2.1-.4.2-.6.4zm-6.2 12c2.4-2.4 4.7-4.8 7.1-7.1v5.6c-.1.1-.2.2-.4.3-2.3 2.2-4.5 4.5-6.7 6.8h-.7v-4.6c.1-.5.5-.8.7-1zm.2.3c-.1.2-.4.3-.4.6v4.3c.8-.6 1.4-1.4 2.1-2.1 1.6-1.6 3.2-3.2 4.8-4.9.1-1.5.1-3.1 0-4.6-2.2 2.3-4.3 4.5-6.5 6.7zm6.9-1.2c.1 1.9.1 3.7.1 5.5-2.6 2.6-5.1 5.2-7.8 7.8V62c.3-.5.7-.8 1.1-1.2 2.3-2.2 4.5-4.4 6.6-6.6zM25.4 57c-1.7 1.7-3.4 3.4-5.1 5v4.6c2.4-2.3 4.6-4.7 7-7v-4.5c-.7.5-1.3 1.3-1.9 1.9z" fill="#f0fff4" id="_364799282992"/><path d="M11.8 49c0-.3 0-.7.1-1 2.5 2.6 5.1 5.1 7.6 7.7v5.6c-2.5-2.5-4.9-5-7.4-7.5-.1-.1-.3-.2-.4-.4.1-1.4.1-2.9.1-4.4zm.4.1v4.3c1.9 1.9 3.8 3.9 5.8 5.8.4.3.7.9 1.2.9v-4.2c-1.9-1.9-3.7-3.8-5.7-5.7-.5-.5-.8-1-1.3-1.1z" fill="#fdffd0" id="_364799282416"/><path d="M29.6 53.3c.4-2.6 3.5-4 5.7-2.9 2 .9 2.7 3.6 1.7 5.5.3-.3.5-.8 1-.9.6 0 .9.6 1.2.9.4-.3.7-.8 1.2-.9.6-.1.9.5 1.2.8 6 0 12 .1 18-.1 0 0 .1.2.2.2-1.1.3-2.3 0-3.5.1-1.8-.1-3.6.1-5.4 0h-8.6c-.4 0-.8 0-1.1-.1-.3-.3-.6-.5-.9-.6-.2.3-.5.6-.7 1-.6 0-1-.6-1.4-.9-.5 0-.8.6-1.1.9-.1-.1-.4-.2-.6-.2.3-.6.7-1.3.7-2.1.1-1.5-.8-2.9-2.2-3.4-2-.7-4.5.6-4.9 2.8-.3.9.4 1.8.7 2.6.3.6-.5 1-.4 1.6.3.1.5.3.7.5-.5 1.1-1.4 2.2-.9 3.5.5 2.2 3.1 3.3 5.1 2.5 1.2-.5 2-1.9 2-3.2 0-.8-.4-1.6-.7-2.3h.8c.2.3.4.6.7.9.4-.1.7-.5.9-.9h.8c.2.3.5.6.7.8.6 0 .7-1 1.4-.8h14.4v1.1c-.2.1-.4.2-.6.2v1c.7.2 1.1.8 1.4 1.5h-1.4v1.7h.8v-1h2.3c.1.5.1 1.3.8 1 .3-.5.1-1.2.2-1.7h-1.4c.2-.4.5-.8.8-1.2.2 0 .5-.1.7-.1V60c-.2-.1-.4-.3-.7-.5h1v2c-.4 0-.9.1-1.1.5.4 0 .7-.1 1.1-.1v2.6h-1.7v-1h-1.6v1h-1.7v-2.6h1.1c-.3-.3-.7-.4-1.1-.5v-2h.7v-.5H41.6c-.3.3-.6.9-1.1.8-.5 0-.7-.8-1.2-.8-.4.3-.6.9-1.2.8-.3-.1-.6-.3-.8-.5v-.4h-.1l-.1.1c0 .1.2.2.2.3.8 1.8.1 4.1-1.6 5-2.2 1.2-5.3-.1-5.9-2.6-.4-1.2.2-2.3.8-3.3-.3-.3-.6-.6-.6-1s.3-.7.5-1c-.6-1-1.2-1.9-.9-3z" fill="#f8ffdc" id="_364799283248"/><path d="M30.9 54.2c-.2-1.6 1.3-3 2.8-2.8 1.5-.1 2.6 1.6 2.2 3-.2.7-1 .8-1.6 1 .6.4 1.3.9 1.3 1.7.2.9-.4 1.7-1.1 2 0 .1 0 .2-.1.3.6.2 1.4.2 1.6 1 .4 1.4-.8 3-2.2 3-1.5.1-3.2-1.3-2.8-3 0-.6.7-.9 1.1-1.1-.1-.5.4-.9.1-1.3-.2-.5-.1-1 .1-1.5-.1-.3-.1-.6-.2-.9-.6-.4-1.2-.8-1.2-1.4zm.4 0c0 .7.8.8 1.3 1-.1.2-.1.4-.2.6.2.2.4.3.6.5-.3.2-.7.5-.7.9s.4.6.6.9l-.6.6.3.6c-.5.3-1.4.4-1.4 1.1-.2 1.5 1.5 2.7 2.8 2.3 1.1-.2 1.8-1.5 1.4-2.5-.4-.6-1.2-.5-1.8-.6.1-.4.3-.7.4-1.1 1.4-.1 1.4-2.6 0-2.8-.1-.3-.3-.7-.4-1 .6-.1 1.6.1 1.9-.7.2-1.1-.5-2.3-1.7-2.4-1.2-.1-2.7 1.1-2.5 2.6z" fill="#ffffca" id="_364799282096"/><path d="M4.5 51.8l.2.2c.5 2 1.3 4 2.6 5.6 2.8 3.7 6.6 6.5 9.5 10.3 1.4 1.8 2.4 3.9 2.7 6.2.2 1.5.1 3 .1 4.5 0 1.3 0 2.6-.1 3.9-.5-1.1-.6-2.3-1.2-3.3-1.1-2.4-3-4.3-4.7-6.2-1.8-1.8-3.6-3.4-5.2-5.3-2.2-2.5-3.9-5.7-3.9-9.1-.1-2.3 0-4.5 0-6.8zM3 61.4c.1.1.2.2.2.3 0 2.7 1.3 5.3 2.8 7.4 3.1 4.1 7.4 7 10.5 11.1 1.8 2.3 3 5.2 3 8.3 0 2.8 0 5.7-.1 8.5-.2-3-1.5-5.8-3.4-8-2.7-3.3-6.1-6-8.9-9.2-2.3-2.5-4-5.7-4.1-9.1 0-3.1.2-6.3 0-9.3z" fill="#fdfdfd" id="_364799279536"/><path d="M11.8 59.7c0-1.9-.1-3.7 0-5.5l6.6 6.6c.4.4.9.7 1.1 1.2.1 1.8 0 3.6 0 5.4-.2-.1-.4-.3-.6-.5-2.3-2.4-4.7-4.8-7.1-7.2zm.4-4.5v4.4l6.3 6.3c.2.2.4.3.6.5v-4.3c-1.9-2-4-4-5.9-6-.3-.4-.7-.6-1-.9z" fill="#ffc" id="_364799279952"/><path d="M58.9 59.5c0-.4 0-.8.1-1.2h.4v.9h-.3c.2.2.4.3.7.5v1.1c-.2 0-.5.1-.7.1.2-.1.4-.3.5-.5 0-.2 0-.5-.1-.6l-.6-.3z" fill="#f1df87" id="_364799281200"/><path d="M37 58.7c.1.1.1.3.1.4 0-.1-.2-.2-.2-.3l.1-.1z" fill="#acbdac" id="_364799279984"/><path d="M19.9 60.6h.7c-.2.2-.3.5-.6.5 0-.1-.1-.4-.1-.5z" fill="#d5fdeb" id="_364799278704"/><path d="M25.1 72.1h1.4v14.4h-1.4V72.1z" fill="#f9fffd" id="_364799278128"/><path d="M41 73.3c.4 1.6.6 3.2.9 4.8-.3.2-.6.4-1 .6.1-1.9.1-3.7.1-5.4z" fill="#137951" id="_364799278928"/><path d="M14.4 23.8c0-.3 0-.5.2-.7.5-.1.3.5.4.7 0 2.9 0 5.7-.1 8.6-.2-.2-.4-.4-.5-.6v-8z" fill="#ebc968" id="_364799279184"/><path d="M17 23.1h.4c.1 3.9 0 7.8 0 11.7-.5-.1-.4-.8-.4-1.3 0-3.4-.1-6.9 0-10.4zm9.9.9c0-.4-.1-.9.4-1.1.3 1 .1 2.1.2 3.1 0 1.2.1 2.5-.1 3.8H27c-.1-1.9-.1-3.9-.1-5.8z" fill="#f1ca55" id="_364799276336"/><path d="M19.5 24.8c0-.6 0-1.2.1-1.8.5-.1.4.5.4.8v12.4c0 .3-.1.5-.4.6-.1-.9-.1-1.8-.1-2.6v-9.4zm2.4-.6c0-.4 0-.9.3-1.3.2.2.4.5.3.9v10.4c.1.4-.3.5-.5.6-.1-3.5 0-7.1-.1-10.6z" fill="#ecca5f" id="_364799276400"/><path d="M24.5 23.1h.4c.1 3 0 5.9 0 8.9-.1 0-.4.1-.5.2.1-3.1.1-6.1.1-9.1z" fill="#f1ca54" id="_364799276560"/><path d="M12.2 23h.4c.1 2.3 0 4.5 0 6.8-.1 0-.3-.1-.4-.1-.2-2.2-.1-4.4 0-6.7z" fill="#efc95b" id="_364799275216"/></g></svg>