<svg xmlns="http://www.w3.org/2000/svg" viewBox="0 0 512 330"><g data-name="Слой 2"><path d="M458.71 24.88A44.76 44.76 0 0 0 418.46 0H75A75.09 75.09 0 0 0 0 75v180a45.05 45.05 0 0 0 45 45h23.07a59.94 59.94 0 0 0 103.86 0h168.14a59.94 59.94 0 0 0 103.86 0H467a45.05 45.05 0 0 0 45-45v-56.26c0-90.55-41.55-145.11-53.29-173.86zM457.63 90a256.12 256.12 0 0 1 19.61 60H392V90zM120 300a30 30 0 1 1 30-30 30 30 0 0 1-30 30zm272 0a30 30 0 1 1 30-30 30 30 0 0 1-30 30zm75-30h-15a60 60 0 0 0-120 0H180a60 60 0 0 0-120 0H45a15 15 0 0 1-15-15v-15h15a15 15 0 0 0 0-30H30V75a45.05 45.05 0 0 1 45-45h343.46a14.92 14.92 0 0 1 13.42 8.29L442.73 60H377a15 15 0 0 0-15 15v90a15 15 0 0 0 15 15h104.27c.46 6.24.73 12.49.73 18.74V210h-15a15 15 0 0 0 0 30h15v15a15 15 0 0 1-15 15z" fill="#fff" data-name="Capa 1"/></g></svg>