<svg xmlns="http://www.w3.org/2000/svg" width="39.2" height="39.9"><path fill="none" stroke="#44AA2E" stroke-width="1.5" stroke-linecap="round" stroke-linejoin="round" stroke-miterlimit="10" d="M34.4 8.6c2.5 3.2 4.1 7.3 4.1 11.7 0 10.4-8.4 18.9-18.9 18.9C9.2 39.2.7 30.8.7 20.3.8 12 6.2 4.9 13.7 2.4m5.9-1c3.6 0 7 1 9.9 2.8"/><path fill="none" stroke="#44AA2E" stroke-width="1.5" stroke-linecap="round" stroke-linejoin="round" stroke-miterlimit="10" d="M29.6.8l.8 3.8-3.8.8m-5.3 14.9c0 .9-.7 1.7-1.7 1.7-.9 0-1.7-.7-1.7-1.7 0-.9.7-1.7 1.7-1.7.9 0 1.7.8 1.7 1.7zm-1.7-1.7v-12m0 17.1V22"/></svg>