<svg xmlns="http://www.w3.org/2000/svg" viewBox="0 0 39.73 39.73"><defs><style>.cls-1{fill:#44aa2e}</style></defs><g id="Слой_2" data-name="Слой 2"><g id="Слой_1-2" data-name="Слой 1"><path class="cls-1" d="M19.9 39.73A19.87 19.87 0 1 1 39.73 19.9 19.89 19.89 0 0 1 19.9 39.73zM19.9 1a18.87 18.87 0 1 0 18.83 18.9A18.92 18.92 0 0 0 19.9 1zm0 34.87A16.1 16.1 0 1 1 36 19.77a16.12 16.12 0 0 1-16.1 16.1zm0-31.2A15.1 15.1 0 1 0 35 19.77a15.12 15.12 0 0 0-15.1-15.1z"/><path class="cls-1" d="M19.9 35.87A16.1 16.1 0 1 1 36 19.77a16.12 16.12 0 0 1-16.1 16.1zm-9.9-4.7a15.09 15.09 0 0 0 21.3-21.3zm9.9-26.5A15.09 15.09 0 0 0 9.27 30.48L30.62 9.14A15.05 15.05 0 0 0 19.9 4.67z"/></g></g></svg>