<svg xmlns="http://www.w3.org/2000/svg" width="42.5" height="38.5" viewBox="284.679 380.422 42.5 38.5"><path fill="none" stroke="#00AC00" stroke-width="1.5" stroke-linecap="round" stroke-linejoin="round" stroke-miterlimit="10" d="M325.096 407.495v8.774c0 1.057-.819 1.902-1.844 1.902h-35.967c-1.024 0-1.844-.846-1.844-1.902v-28.966c0-1.057.82-1.903 1.844-1.903h35.967c1.024 0 1.844.846 1.844 1.903v8.774"/><path fill="none" stroke="#00AC00" stroke-width="1.5" stroke-linecap="round" stroke-linejoin="round" stroke-miterlimit="10" d="M289.642 381.172h30.536v4.229m-30.536-4.229c-1.947 0-4.406.952-4.201 5.709"/><g fill="none" stroke="#00AC00" stroke-width="1.5" stroke-linecap="round" stroke-linejoin="round" stroke-miterlimit="10"><path d="M314.645 396.289c-2.972 0-5.329 2.432-5.329 5.497 0 3.066 2.357 5.497 5.329 5.497h11.784v-10.994h-11.784z"/><ellipse cx="315.156" cy="401.787" rx="1.742" ry="1.797"/></g></svg>