<svg xmlns="http://www.w3.org/2000/svg" viewBox="0 0 33.38 43.13"><defs><style>.cls-1{fill:#44aa2e}</style></defs><g id="Слой_2" data-name="Слой 2"><g id="Слой_1-2" data-name="Слой 1"><path class="cls-1" d="M6.82 25.6h9.2v1h-9.2zm0-3.63h17.47v1H6.82zm0-7.12h17.47v1H6.82zm0 3.56h17.47v1H6.82z"/><path class="cls-1" d="M30.63 30.85V9l-9-9H2.31A2.32 2.32 0 0 0 0 2.31v34.94a2.32 2.32 0 0 0 2.31 2.31h18.27a6.81 6.81 0 1 0 10-8.71zm-8.8-29.21L29 8.74h-7.17zM2.31 38.57A1.3 1.3 0 0 1 1 37.25V2.31A1.3 1.3 0 0 1 2.31 1h18.52v8.74h8.8v20.5a6.8 6.8 0 0 0-9.49 8.34zm24.25 3.56a5.81 5.81 0 1 1 5.82-5.82 5.81 5.81 0 0 1-5.81 5.82z"/><path class="cls-1" d="M28.03 34.21l-1.53 1.53-1.53-1.53-.7.71 1.52 1.53-1.52 1.52.59.6.11.11.12-.11 1.41-1.42 1.41 1.42.12.11.11-.11.6-.6-1.53-1.52 1.53-1.53-.71-.71z"/></g></g></svg>