<svg xmlns="http://www.w3.org/2000/svg" viewBox="0 0 39.73 39.73"><defs><style>.cls-1{fill:#44aa2e}</style></defs><g id="Слой_2" data-name="Слой 2"><g id="Слой_1-2" data-name="Слой 1"><path class="cls-1" d="M19.9 39.73A19.87 19.87 0 1 1 39.73 19.9 19.89 19.89 0 0 1 19.9 39.73zM19.9 1a18.87 18.87 0 1 0 18.83 18.9A18.92 18.92 0 0 0 19.9 1z"/><path class="cls-1" d="M20.59 19.59c2.47 0 3.7-.95 3.7-3.05s-1.23-3.05-3.7-3.05H17v6.1zm-5.09 8v-15.5h5.22c3.18 0 5.09 1.48 5.09 4.43S23.88 21 20.59 21H17v6.6z" id="f0_2" data-name="f0 2"/><path class="cls-1" d="M14.37 22.93H25.1v1H14.37z"/></g></g></svg>