<svg xmlns="http://www.w3.org/2000/svg" width="44.5" height="44.5" viewBox="283.75 373.75 44.5 44.5"><g fill="none" stroke="#00AC00" stroke-width="1.5" stroke-linecap="round" stroke-linejoin="round" stroke-miterlimit="10"><ellipse cx="300.886" cy="390.861" rx="2.922" ry="2.937"/><ellipse cx="311.114" cy="401.139" rx="2.922" ry="2.937"/><path d="M298.903 403.132l14.194-14.264"/></g><path fill="none" stroke="#00AC00" stroke-width="1.5" stroke-linecap="round" stroke-linejoin="round" stroke-miterlimit="10" d="M316.332 414.878l-5.949-2.202-4.07 4.824-4.279-4.72-5.845 2.412-1.565-6.187-6.367-.629 1.461-6.188-5.218-3.566 4.174-4.72-3.131-5.663 5.95-2.202-.105-6.398 6.262.734 2.818-5.768 5.219 3.566 5.114-3.671 3.026 5.664 6.263-.944.104 6.397 5.949 2.098-2.922 5.663 4.279 4.614-5.219 3.671 1.67 6.189-6.262.838z"/></svg>