<svg id="Слой_1" xmlns="http://www.w3.org/2000/svg" viewBox="0 0 180 220.7"><style>.st0{fill:#fff}</style><path class="st0" d="M179.7 145.8c-.2-2.4-5.3-59.6-36.6-102.7-1.3-1.7-3.2-4.3-19.7-7.2-.8-.1-1.4-.8-1.5-1.5l-3-32.9c-.1-1-.9-1.7-1.9-1.6-.5 0-.9.3-1.2.6l-8.2 10c-5.3 6.6-9.8 13.7-13.6 21.3-.3.6-.8.9-1.4 1-36.1 2.7-63.4 15.4-77.8 36.4-.5.8-.3 1.9.5 2.4l10.4 6.7.1-.1 12.2 10c.7.6 1.8.5 2.4-.2l6.7-8.2c.6-.7.5-1.8-.2-2.4L36.7 69c-.7-.6-.9-1.7-.3-2.4l.3-.3c14.2-11.7 35.6-18.5 62.5-19.6v.3c12.6 1.3 27.6 3.7 32.7 5.3.4.1.7.3.9.7 22.9 32.5 30.3 74.4 32.3 88.9.1.7-.2 1.3-.8 1.7l-3.5 2.3c-.3.2-.8.3-1.2.3l-9.5-1.1c-.7-.1-1.2-.5-1.4-1.2l-6.8-19.6c-.2-.5-.6-1-1.2-1.1l-14-3.7c-.4-.1-.7-.3-.9-.6l-9.2-11.5c-.3-.4-.4-.8-.4-1.3l1.6-11.6c.2-.9-.5-1.8-1.4-2l-10.5-1.4c-.9-.2-1.8.5-2 1.4l-2.4 17.6c-.1.5.1.9.4 1.3l15.9 19.9c.2.3.6.5.9.6l11.3 2.9c.6.2 1 .6 1.2 1.1l7.2 20.8c.2.6.8 1.1 1.4 1.1l23.3 2.8c.4 0 .8 0 1.2-.3l15-9.9c.6-.3.9-1 .8-1.6l-.4-3z"/><path class="st0" d="M62.3 90.1c-.7-.7-1.8-.6-2.4.1l-.1.1-6.9 8.1c-.6.7-.5 1.7.1 2.4 6.8 6.8 39.9 44.5 16.1 114.2-.3.9.2 1.9 1.1 2.2l10 3.5c.9.3 1.9-.2 2.2-1.1 15.2-44.4 9-77.2 1-96.9-7.5-18.3-17.5-29.1-21.1-32.6z"/><path class="st0" d="M7.5 83.3c-.8-.5-1.9-.2-2.4.6v.1L.2 93.5c-.4.8-.1 1.8.7 2.3 11.1 6.7 20.8 15.4 28.7 25.7 17 22.9 19.8 49.2 8.4 78.3-.4.9.1 1.9.9 2.3l9.8 4c.9.4 1.9-.1 2.3-1 16.8-42.3 3.8-73.4-10.1-92.1-9.1-12-20.5-22-33.4-29.7z"/></svg>