<svg xmlns="http://www.w3.org/2000/svg" viewBox="0 0 74.8 70.4"><g data-name="store 2"><path d="M74.37 13.42a2.4 2.4 0 0 0-1.87-1l-46.4-2a2.4 2.4 0 1 0-.21 4.8l43.26 1.86-8.5 26.52H22.8L16 6.37a2.4 2.4 0 0 0-1.48-1.8L3.28.17a2.4 2.4 0 0 0-1.76 4.46l10 3.91 7 37.89a2.4 2.4 0 0 0 2.36 2H22l-2.64 7.32a2 2 0 0 0 1.84 2.65H23a7.2 7.2 0 1 0 10.7 0h15.7a7.2 7.2 0 1 0 10.7 0h2.3a2 2 0 1 0 0-4H24l2.16-6H62.4a2.4 2.4 0 0 0 2.29-1.67l10-31.2a2.42 2.42 0 0 0-.32-2.1zm-46 53a3.2 3.2 0 1 1 3.2-3.2 3.2 3.2 0 0 1-3.2 3.2zm26.4 0A3.2 3.2 0 1 1 58 63.2a3.2 3.2 0 0 1-3.2 3.2zm0 0" fill="#fff" data-name="store 1"/></g></svg>