<svg xmlns="http://www.w3.org/2000/svg" viewBox="0 0 511.33 511.94"><g data-name="Слой 2"><path d="M334.91 336.26c24.06-1 47.49-7.39 69.31-17.86a15.81 15.81 0 0 0 5.6-3.17c17-8.86 33-19.84 47.14-33.92 11.14-11.14 20-23.49 27.71-36.29a1.79 1.79 0 0 1 .26-.16 15.6 15.6 0 0 0 3.9-7.23c25.6-46.75 29.6-100.54 10.75-146a15.51 15.51 0 0 0-2.75-5.6c-7.1-15.3-16.1-29.82-28.54-42.27S441.31 22.3 426 15.2a15.83 15.83 0 0 0-5.63-2.72C374.88-6.4 321.12-2.4 274.37 23.2a15.26 15.26 0 0 0-7.26 3.9c-.1.06-.1.16-.19.26-12.78 7.78-25.13 16.64-36.26 27.71-14.14 14.14-25.15 30.27-34 47.3a16.08 16.08 0 0 0-3 5.38c-10.46 21.82-16.83 45.25-17.86 69.34l-6 142.62-56.2 56.07c-17.82-8.42-39.58-5.66-54.27 9L14.08 430A48 48 0 0 0 82 497.92l45.25-45.25a47.49 47.49 0 0 0 9.25-54.53l55.84-55.84zM315.33 242l-47.1 47.1c-9.47-5.22-18.46-11.23-26.24-19s-13.82-16.74-19-26.24l47.1-47.1zm-22.63-67.92l49.38-49.38 45.25 45.3L338 219.33zm40.83 130.21a133.51 133.51 0 0 1-32.26-3.07L338 264.54l32.58 32.58c-12.08 3.88-24.4 6.62-37.04 7.17zm-122.78-93.54a129.67 129.67 0 0 1-3-32.32c.54-12.61 3.33-24.93 7.1-37l32.61 32.61zm8.58 81.92a146.75 146.75 0 0 0 19.2 15.68l-36.38 1.54 1.57-36.61c4.76 6.72 9.69 13.44 15.61 19.39zm182.46-9.5L360.54 242l49.38-49.38 43.3 43.3a162.37 162.37 0 0 1-18.94 22.85c-9.83 9.81-20.94 17.61-32.49 24.4zm67-77L432.58 170l44.13-44.13c5.37 25.97 2.78 53.87-7.91 80.31zm-4.15-113.53L410 147.33l-45.3-45.25 54.69-54.69c9.41 5.15 18.4 11.14 26.24 19s13.86 16.84 19.01 26.25zM359.81 32a130.4 130.4 0 0 1 26.69 3l-44.42 44.46L305.63 43a144 144 0 0 1 54.18-11zM253.28 77.7a162.35 162.35 0 0 1 22.91-18.88l43.26 43.26L270 151.46l-41.2-41.25c6.82-11.55 14.62-22.66 24.48-32.51zM104.58 430l-45.25 45.3a16.44 16.44 0 0 1-22.62 0A15.8 15.8 0 0 1 32 464a16 16 0 0 1 4.67-11.33l45.25-45.25a16 16 0 0 1 22.56 0v.06c0 .06.06 0 .06.06a16 16 0 0 1 0 22.53zM64 128A64 64 0 1 0 0 64a64.06 64.06 0 0 0 64 64zm0-96a32 32 0 1 1-32 32 32 32 0 0 1 32-32z" fill="#fff" data-name="Capa 1"/></g></svg>