<svg xmlns="http://www.w3.org/2000/svg" viewBox="0 0 598 436"><g data-name="transport 2"><g data-name="transport 1"><path class="cls-1" d="M238.13 156.14a12.23 12.23 0 0 0-12.24-12.22h-66.73V63.67a12.22 12.22 0 0 0-24.45 0v92.47a12.22 12.22 0 0 0 12.22 12.23h79a12.22 12.22 0 0 0 12.2-12.23z" fill="#fff"/><path class="cls-1" d="M596.41 204.29l-51.7-103.41A44.75 44.75 0 0 0 504.46 76h-226.4A148.6 148.6 0 0 0 148.5 0C66.62 0 0 66.62 0 148.5a148.69 148.69 0 0 0 86 134.69V361a45.05 45.05 0 0 0 45 45h17.58a45 45 0 0 0 84.84 0h217.16a45 45 0 0 0 84.84 0H553a45.05 45.05 0 0 0 45-45V211a15 15 0 0 0-1.59-6.71zm-92-98.29a14.92 14.92 0 0 1 13.41 8.29L528.73 136H296.47a147.52 147.52 0 0 0-5.68-30zM478 166v60h-60v-60zM31.6 148.5a116.91 116.91 0 1 1 116.9 116.9A117 117 0 0 1 31.6 148.5zM191 406a15 15 0 1 1 15-15 15 15 0 0 1-15 15zm75-30h-32.58a45 45 0 0 0-84.84 0H131a15 15 0 0 1-15-15v-67.59A148.37 148.37 0 0 0 250.85 256H266zm122 0h-92V256h92zm0-150h-92v-60h92zm105 180a15 15 0 1 1 15-15 15 15 0 0 1-15 15zm75-90h-15a15 15 0 0 0 0 30h15v15a15 15 0 0 1-15 15h-17.58a45 45 0 0 0-84.84 0H418V256h150zm0-90h-60v-60h35.73L568 214.54z" fill="#fff"/></g></g></svg>