<svg xmlns="http://www.w3.org/2000/svg" viewBox="0 0 71.56 67.28"><g data-name="utility 2"><g data-name="utility 1" fill="#fff"><path d="M59.76 33a2 2 0 0 0-2.06 2v28.22H43.08V51.71a2 2 0 0 0-2-2H30.52a2.09 2.09 0 0 0-2.1 2v11.51h-14.6V36a2 2 0 0 0-4 0v29.29a2 2 0 0 0 2 2h18.7a2 2 0 0 0 2-2V53.78H39v11.51a2 2 0 0 0 2.06 2h18.7a2 2 0 0 0 2-2V35a2 2 0 0 0-2-2.06zm0 0"/><path d="M71 34.57L54.7 18.23V7.09A2.07 2.07 0 0 0 52.6 5a2 2 0 0 0-2 2.06v7.05L37.19.64A2 2 0 0 0 35.8 0a2 2 0 0 0-1.46.64L.63 34.35a1.93 1.93 0 0 0 0 2.85 1.93 1.93 0 0 0 2.85 0L35.8 5l32.25 32.5a2 2 0 0 0 1.46.53A2.28 2.28 0 0 0 71 37.5a2.13 2.13 0 0 0 0-2.93zm0 0"/></g></g></svg>