<svg xmlns="http://www.w3.org/2000/svg" viewBox="0 0 292 286.22"><defs><style>.cls-1{fill:#659c4b}</style></defs><g id="value-1_2" data-name="value-1 2"><g id="value-1_1-2" data-name="value-1 1"><path class="cls-1" d="M288.59 121.68l-136-119.2a10 10 0 0 0-13.18 0l-136 119.2a10 10 0 1 0 13.18 15l10.53-9.23v148.77a10 10 0 0 0 10 10h217.76a10 10 0 0 0 10-10V127.49l10.53 9.23a10 10 0 0 0 13.18-15zm-119.5 144.54h-46.18v-82.37h46.18zM244.88 110v156.22h-55.79v-92.38a10 10 0 0 0-10-10h-66.18a10 10 0 0 0-10 10v92.38H47.12V110L146 23.3l98.88 86.7z"/><path class="cls-1" d="M123.6 93.7a10 10 0 0 0 10 10h24.8a10 10 0 0 0 0-20h-24.8a10 10 0 0 0-10 10z"/></g></g></svg>