<svg xmlns="http://www.w3.org/2000/svg" viewBox="0 0 44.06 76.18"><defs><style>.cls-1{fill:#659c4b}</style></defs><g id="Слой_2" data-name="Слой 2"><g id="Слой_1-2" data-name="Слой 1"><path class="cls-1" d="M38.66 64.59c-2.67-2.35-6.41-3.51-8-6.63 1.1.08 2.2.16 3.3.22h.39a2 2 0 0 0 1.94-1.94A22.42 22.42 0 0 0 35 50.17l.11-.12C46 35.26 50.71 5.17 26.94.47a2.06 2.06 0 0 0-.83 0C19.9-.63 13.72.07 8.51 3.91S.39 14.17 0 20.44c-.73 13 12.61 22.61 21.53 29.8a2 2 0 0 0 .2.13 1.66 1.66 0 0 0 .49.5 29.17 29.17 0 0 1-1.18 3.42 2.28 2.28 0 0 0 0 1.86 1.88 1.88 0 0 0 1.72 1.25c1.23.07 2.46.16 3.69.25.77 3.39 3.24 5.61 6.12 7.47 3.66 2.37 6.13 3.67 3.45 8.18-1.28 2.15 2.07 4.1 3.35 2 2.16-3.74 2.77-7.65-.71-10.71zm-34.3-40c-1.61-5.82 1-12.1 5-16.31 4.34-4.57 11-5.12 16.78-3.91a2.08 2.08 0 0 0 .7 0c19.78 4.71 14.36 30.35 5.35 43.07-2.69-.14-5.38-.17-8.07-.17-7.69-6.09-17.01-12.74-19.76-22.64zm21.06 29.1c.28-.78.54-1.56.74-2.37v-.12c1.7 0 3.4.05 5.1.13a13.37 13.37 0 0 1 .86 2.84c-2.23-.17-4.47-.32-6.7-.48z"/><path class="cls-1" d="M33 24.6c-.12 2.58 3.88 2.57 4 0 .44-9.76-6-17.48-15.8-18.4-2.57-.24-2.54 3.76 0 4 7.61.72 12.1 6.97 11.8 14.4z"/></g></g></svg>