<svg xmlns="http://www.w3.org/2000/svg" viewBox="0 0 512 512"><g data-name="value-5 2"><path d="M256 0C114.85 0 0 114.85 0 256s114.85 256 256 256 256-114.85 256-256S397.15 0 256 0zm188.38 135.3c-61.34-26.72-161.09-50-276.7-1a261.13 261.13 0 0 1-22-73A222.37 222.37 0 0 1 256 32c79 0 148.51 41.28 188.38 103.3zM235.74 479a221 221 0 0 1-61.92-14.82c40.1-34.75 89.66-97.63 97-197.31 33.44-16.37 65.28-24.6 94.68-26.87-15 118.56-76.86 194.78-129.76 239zm21.92-241.5c-33.44-22.69-57.38-48.54-74.37-75.1 130.88-53.82 238.91-6.4 284.19 20.48a221.26 221.26 0 0 1 9.76 39.94C426.72 205.7 347 194.14 257.66 237.47zM116.48 81.06c11.42 57.76 43.3 128.38 122.62 182.4-3 42.94-14.75 78.11-30.27 106.59C115 294.4 80.58 201.31 69 133a225.46 225.46 0 0 1 47.48-51.94zM32 256a222.6 222.6 0 0 1 14.11-77.5c18.46 68.77 59 150.94 145.34 219.17a256.6 256.6 0 0 1-49.12 51C76.42 409.63 32 338 32 256zm251.84 222.08c50.59-50.53 101.09-127.62 114-238.46A257.69 257.69 0 0 1 479.9 258c-.99 113.17-86.3 206.38-196.06 220.08z" fill="#659c4b" data-name="value-5 1"/></g></svg>