<svg xmlns="http://www.w3.org/2000/svg" viewBox="0 0 512 512"><g data-name="Слой 2"><path d="M437 75A256 256 0 1 0 75 437 256 256 0 1 0 437 75zm9.48 302.5h-84.25l-39.78-48.27 26-80.12 66-28.09 67.07 48.73a224.51 224.51 0 0 1-35.02 107.73zm-296.73 0H65.5a224.53 224.53 0 0 1-35.07-107.77L97.5 221l66 28.1 26 80.12zM60.13 143.36l17.8 54.78L31.27 232a224.32 224.32 0 0 1 28.85-88.68zm157.13 174l-24-73.71L256 198.14l62.7 45.55-23.95 73.71zm216.81-119.22l17.86-54.95A223.72 223.72 0 0 1 480.74 232zm-3.64-85.86l-26.15 80.46-66 28.1L271 172V95l67.88-49.31a225.51 225.51 0 0 1 76.93 50.56q7.74 7.75 14.63 16.09zM302.71 34.82L256 68.76l-46.66-33.9a227.69 227.69 0 0 1 93.37 0zM173.22 45.7L241 94.94v77l-67.28 48.88-66-28.09-26.11-80.33a227.09 227.09 0 0 1 91.61-66.7zM88.43 407.48h57.51l17.81 54.82a227.17 227.17 0 0 1-75.33-54.82zm110.93 67.33l-25.72-79.14 39.78-48.27h85.14l39.78 48.27-25.71 79.15a226.67 226.67 0 0 1-113.27 0zm148.88-12.51l17.81-54.82h57.52a227.09 227.09 0 0 1-75.33 54.82zm0 0" fill="#659c4b" data-name="Слой 1"/></g></svg>