<svg xmlns="http://www.w3.org/2000/svg" viewBox="0 0 512 512"><g data-name="Слой 2"><path d="M466.33 130.37H338.45A104.9 104.9 0 0 0 271 91.53V75.22a86.21 86.21 0 0 0 29.73 5c34.05 0 59.73-17.24 59.73-40.11S334.78 0 300.73 0c-18.17 0-34 4.91-44.73 13-10.77-8.09-26.56-13-44.73-13-34.05 0-59.73 17.24-59.73 40.11s25.68 40.11 59.73 40.11a86.22 86.22 0 0 0 29.73-5v16.3a104.9 104.9 0 0 0-67.46 38.84H15a15 15 0 0 0-15 15v99.77a15 15 0 0 0 15 15h158.54a105.13 105.13 0 0 0 164.91 0H402V305a15 15 0 0 0 15 15h80a15 15 0 0 0 15-15V176a45.68 45.68 0 0 0-45.67-45.63zM300.73 30c18.69 0 28.8 7.52 29.7 10.11-.9 2.58-11 10.11-29.7 10.11s-28.8-7.52-29.7-10.11C271.92 37.52 282 30 300.73 30zm-89.46 20.22c-18.69 0-28.8-7.52-29.71-10.11.9-2.58 11-10.11 29.71-10.11s28.8 7.52 29.71 10.11c-.91 2.58-10.98 10.11-29.71 10.11zM30 160.37h31.05v69.77H30zM482 290h-50v-44.86a15 15 0 0 0-15-15h-86.16a15 15 0 0 0-12.46 6.64 75.13 75.13 0 0 1-124.77 0 15 15 0 0 0-12.46-6.64h-90.1v-69.77h90.11a15 15 0 0 0 12.46-6.64 75.13 75.13 0 0 1 124.77 0 15 15 0 0 0 12.46 6.64h135.48A15.65 15.65 0 0 1 482 176zm-11.36 88.08a15 15 0 0 0-27.28 0l-30.17 66c-14.54 31.78 8.7 68 43.62 68h.37c34.94 0 58.15-36.2 43.62-68zM457.19 482h-.37a18 18 0 0 1-16.34-25.48L457 420.38l16.53 36.14A18 18 0 0 1 457.19 482z" fill="#fff" data-name="Capa 1"/></g></svg>