<svg xmlns="http://www.w3.org/2000/svg" viewBox="0 0 469.33 469.33"><g data-name="workout 2"><path d="M458.67 448H448V32a32 32 0 0 0-64 0v10.67H85.33V32a32 32 0 0 0-64 0v416H10.67a10.67 10.67 0 1 0 0 21.33H96A10.67 10.67 0 0 0 96 448H85.33V106.67H128v32a10.66 10.66 0 0 0 10.67 10.67h10.67v152.61a20.61 20.61 0 0 0 0 36.11V352a10.67 10.67 0 1 0 21.33 0v-13.95a20.61 20.61 0 0 0 0-36.11V149.33h10.67A10.66 10.66 0 0 0 192 138.67v-32h64v352a10.67 10.67 0 1 0 21.33 0v-32H384V448h-10.67a10.67 10.67 0 1 0 0 21.33h85.33a10.67 10.67 0 1 0 0-21.33zm-288-320h-21.34v-21.33h21.33zM384 106.67v42.67H277.33v-42.67zm0 234.67H277.33v-42.67H384zm0-64H277.33v-42.67H384zm0-64H277.33v-42.67H384zm-106.67 192v-42.67H384v42.67zm128 42.67V96a10.66 10.66 0 0 0-10.67-10.67h-320A10.66 10.66 0 0 0 64 96v352H42.67V32A10.67 10.67 0 0 1 64 32v21.33A10.66 10.66 0 0 0 74.67 64h320a10.66 10.66 0 0 0 10.67-10.67V32a10.67 10.67 0 0 1 21.33 0v416z" fill="#fff" data-name="workout 1"/></g></svg>