<svg data-name="plan-kinder 1" xmlns="http://www.w3.org/2000/svg" viewBox="0 0 817.52 816"><path d="M686.23 590.22L567.89 471.88a4.05 4.05 0 0 1-1.2-2.89V289.22a4.09 4.09 0 0 1 4.09-4.09h14.4c15.29 0 22.8-18.63 11.77-29.24L447.6 112.26a4.11 4.11 0 0 0-5.68 0l-139 133.66c-14.79 14.22-4.72 39.21 15.79 39.21a4.1 4.1 0 0 1 4.1 4.09v171.26a122.52 122.52 0 0 0-97.55 48.77L183.48 565c-12.86 17.14-34.35 29.72-57.48 33.63l-11.11 1.87a4.1 4.1 0 0 0-3.41 4v96.25a4.09 4.09 0 0 0 4.5 4.08l14.66-1.47c54-5.42 105-33.72 136.45-75.69l31.35-41.8a52.27 52.27 0 0 1 18.44-15.35 4.11 4.11 0 0 1 5.95 3.66v126a4.1 4.1 0 0 0 4.09 4.1h26.65a4.11 4.11 0 0 0 4.1-4.1v-61.42a4.09 4.09 0 0 1 4.09-4.09h166a4.1 4.1 0 0 1 4.1 4.09v61.49a4.1 4.1 0 0 0 4.09 4.1h26.65a4.1 4.1 0 0 0 4.09-4.1v-31.07a4.09 4.09 0 0 1 7-2.89l36.86 36.86a4.11 4.11 0 0 0 2.89 1.2H702a4.1 4.1 0 0 0 4.09-4.1v-62.19a67.63 67.63 0 0 0-19.86-47.84zm-363.4-61.55a4.06 4.06 0 0 1-3.09 4A87.57 87.57 0 0 0 270.57 565l-31.35 41.8c-21 28-52.7 48.52-87.78 57.58a4.1 4.1 0 0 1-5.12-4v-30.75c26.11-7.61 49.74-23.35 65-43.74l41.8-55.74a87.6 87.6 0 0 1 65.4-34.73 4.1 4.1 0 0 1 4.28 4.1zm209 67.07a4.1 4.1 0 0 1-4.1 4.09h-166a4.09 4.09 0 0 1-4.09-4.09v-26.65a4.1 4.1 0 0 1 4.09-4.1h166a4.11 4.11 0 0 1 4.1 4.1zm0-69.68a4.11 4.11 0 0 1-4.1 4.1h-166a4.1 4.1 0 0 1-4.09-4.1v-26.65a4.09 4.09 0 0 1 4.09-4.09h166a4.1 4.1 0 0 1 4.1 4.09zm-104.49-69.67v-90.85a4.16 4.16 0 0 1 1.17-2.87c15.07-15.82 33.67-5.26 33.67 9.55v84.17a4.09 4.09 0 0 1-4.09 4.09h-26.65a4.1 4.1 0 0 1-4.1-4.09zm104.52 0a4.1 4.1 0 0 1-4.1 4.09h-26.65a4.09 4.09 0 0 1-4.09-4.09V349a4.1 4.1 0 0 0-1-2.73C450.35 295 392.5 327 392.5 372.22v84.17a4.09 4.09 0 0 1-4.09 4.09h-26.65a4.09 4.09 0 0 1-4.09-4.09V289.22a4.09 4.09 0 0 1 4.09-4.09h166a4.1 4.1 0 0 1 4.1 4.09zm-1.15-206.1H358.82a4.09 4.09 0 0 1-2.84-7l85.94-82.65a4.09 4.09 0 0 1 5.68 0l85.94 82.65a4.09 4.09 0 0 1-2.83 7zM601.53 635a4.1 4.1 0 0 1-7 2.9l-26.65-26.66a4.09 4.09 0 0 1-1.2-2.89v-78.52a4.09 4.09 0 0 1 7-2.89l26.65 26.65a4.09 4.09 0 0 1 1.2 2.89zm69.68 30.42a4.1 4.1 0 0 1-4.1 4.09h-26.65a4.09 4.09 0 0 1-4.09-4.09v-65.9a4.09 4.09 0 0 1 7-2.89L670 623.27a4.05 4.05 0 0 1 1.2 2.89z" fill="#fff"/></svg>