<svg data-name="plan-app 1" xmlns="http://www.w3.org/2000/svg" viewBox="0 0 817.52 816"><path d="M633.23 275.25a20.62 20.62 0 0 0-16.1-8.83l-275-11.85h-.91a20.73 20.73 0 0 0-.92 41.43l247.89 10.68-46.36 144.62H327.64l-39.56-215.36a20.64 20.64 0 0 0-12.8-15.56l-66.4-26.06a20.71 20.71 0 0 0-15.15 38.56l55.66 21.88 40.6 221a20.68 20.68 0 0 0 18 16.85l-12.54 34.83a18.33 18.33 0 0 0 16 24.52 49.18 49.18 0 1 0 87.9 0h68.56a49.17 49.17 0 1 0 87.9 0h1.1a18.36 18.36 0 1 0 0-36.71H338.86l8.14-22.52h210a20.71 20.71 0 0 0 19.74-14.4L636 293.39a20.69 20.69 0 0 0-2.77-18.14zM511.89 586.41A12.46 12.46 0 1 1 524.35 574a12.47 12.47 0 0 1-12.46 12.41zm-156.47 0A12.46 12.46 0 1 1 367.89 574a12.49 12.49 0 0 1-12.47 12.41z" fill="#fff"/></svg>