<svg data-name="plan-church 1" xmlns="http://www.w3.org/2000/svg" viewBox="0 0 817.52 816"><path d="M581.06 462.33l-45-33.72a7.61 7.61 0 0 1-3.05-6.09v-96.17a7.61 7.61 0 0 0-2.67-5.79l-96.72-82.66a7.58 7.58 0 0 1-2.67-5.79v-24.72a7.62 7.62 0 0 1 7.61-7.62h23.06a7.62 7.62 0 0 0 7.62-7.61V169.1a7.62 7.62 0 0 0-7.62-7.62h-23.06a7.61 7.61 0 0 1-7.61-7.61v-16.68a7.62 7.62 0 0 0-7.62-7.61h-23.06a7.62 7.62 0 0 0-7.62 7.61v16.68a7.61 7.61 0 0 1-7.61 7.61H362a7.62 7.62 0 0 0-7.62 7.62v23.06a7.62 7.62 0 0 0 7.62 7.61h23a7.62 7.62 0 0 1 7.61 7.62v24.72a7.58 7.58 0 0 1-2.61 5.79l-96.76 82.66a7.61 7.61 0 0 0-2.67 5.79v96.17a7.61 7.61 0 0 1-3.05 6.09l-45 33.72a7.63 7.63 0 0 0-3 6.1v144.92a7.62 7.62 0 0 0 7.62 7.62h125.13a7.62 7.62 0 0 0 7.62-7.62V552a7.62 7.62 0 0 1 7.62-7.62h48.58a7.62 7.62 0 0 1 7.62 7.62v61.34a7.62 7.62 0 0 0 7.62 7.62h125.16a7.62 7.62 0 0 0 7.62-7.62V468.43a7.63 7.63 0 0 0-3.05-6.1zM328.84 344a7.6 7.6 0 0 1 2.67-5.79l75.34-64.36a7.63 7.63 0 0 1 9.9 0l75.34 64.36a7.6 7.6 0 0 1 2.67 5.79v38.37a7.62 7.62 0 0 1-12.19 6.1l-66.2-49.66a7.62 7.62 0 0 0-9.14 0L341 388.47a7.62 7.62 0 0 1-12.19-6.1zm217 231.06a7.62 7.62 0 0 1-7.62 7.62h-48.6a7.62 7.62 0 0 1-7.62-7.62v-61.34a7.62 7.62 0 0 0-7.62-7.62H349.22a7.62 7.62 0 0 0-7.62 7.62v61.34a7.62 7.62 0 0 1-7.62 7.62H285.4a7.62 7.62 0 0 1-7.62-7.62v-87.49a7.61 7.61 0 0 1 3.05-6.09l126.4-94.8a7.62 7.62 0 0 1 9.14 0l126.4 94.8a7.61 7.61 0 0 1 3.05 6.09z" fill="#fff"/></svg>