<svg data-name="plan-parking 1" xmlns="http://www.w3.org/2000/svg" viewBox="0 0 817.52 816"><path d="M450.76 172.91H275.47a21.91 21.91 0 0 0-21.91 21.92V633a21.91 21.91 0 0 0 21.91 22h87.65A21.91 21.91 0 0 0 385 633V479.67h65.73c84.57 0 153.37-68.81 153.37-153.38s-68.77-153.38-153.34-153.38zm0 262.93h-87.64a21.9 21.9 0 0 0-21.91 21.91v153.38h-43.83V216.74h153.38a109.55 109.55 0 0 1 0 219.1z" fill="#fff"/><path d="M450.76 260.56h-87.64a21.9 21.9 0 0 0-21.91 21.91v87.64A21.9 21.9 0 0 0 363.12 392h87.64a65.73 65.73 0 1 0 0-131.46zm0 87.64H385v-43.82h65.73a21.91 21.91 0 1 1 0 43.82z" fill="#fff"/></svg>