<svg xmlns="http://www.w3.org/2000/svg" viewBox="0 0 71.26 98.81"><g data-name="Слой 2"><g data-name="app"><g data-name="Слой 2"><g data-name="Слой 1-2"><g data-name="1house"><path class="48f7bbaf-23a8-4aee-9889-49c30d514a87" d="M67.1 9.88v75.43c0 5.72-4.16 9.88-9.36 9.88H9.36c-5.2 0-9.36-4.68-9.36-9.88V9.88C0 4.16 4.16 0 9.36 0h48.38c5.2 0 9.36 4.67 9.36 9.88z" fill="#fff"/><path class="2d433d46-5e3e-46b7-9b70-a949b82d30ee" d="M71.26 21.32v71.77a5.77 5.77 0 0 1-5.72 5.72H21.32a5.77 5.77 0 0 1-5.72-5.72V21.32a5.77 5.77 0 0 1 5.72-5.72h44.22c3.12-.51 5.72 2.08 5.72 5.72z" fill="#fff"/><path class="b7026e42-1ac3-467c-90a0-25fb4711f37f" d="M60.34 14v69.75a5.77 5.77 0 0 1-5.72 5.72H11.43a5.77 5.77 0 0 1-5.72-5.72V14a5.77 5.77 0 0 1 5.72-5.72h43.18A5.77 5.77 0 0 1 60.34 14z" fill="#fff"/><path class="c08cc430-a2c7-4779-bc1c-9e257d77ae7c" d="M60.34 14v69.75a5.77 5.77 0 0 1-5.72 5.72H39.53a5.77 5.77 0 0 1-5.72-5.72V14a5.77 5.77 0 0 1 5.72-5.72h15.09A5.77 5.77 0 0 1 60.34 14z" fill="#fff"/><path class="1ee03a3f-5bbe-4ce3-8fbc-d92ef94098cd" d="M51 8.32c3.12 0 4.68 4.16 2.6 6.76L33.8 34.33 13 15.6c-2.6-2.08-1-6.76 2.08-6.76zm2.08 81.15c2.6 0 3.64-3.64 2.08-5.2L34.32 64 12 84.27c-2.08 2.08-1 5.2 2.08 5.2z" fill="#fff"/></g></g></g></g></g></svg>