<svg xmlns="http://www.w3.org/2000/svg" viewBox="0 0 61.57 19.06"><defs><style/></defs><g id="2eae0bdb-c50e-4ea2-a4f3-2ab47a996462" data-name="Слой 2"><g id="18dc9782-b5c7-44ce-951f-35821e4c263e" data-name="musor 2"><g id="9831904e-ad99-4b25-ab3a-466a707489d3" data-name="Слой 2"><g id="89b51073-0c8e-40bb-91f4-8db3e279ff9a" data-name="Слой 1-2"><path class="68ab8bd1-91dd-4218-8a35-704308fc6977" d="M0 9.68V1.14A1.23 1.23 0 0 1 1.14 0l59.19.57a1.23 1.23 0 0 1 1.14 1.14v8a1.23 1.23 0 0 1-1.14 1.14l-59.19-.57A2 2 0 0 1 0 9.68z"/><path class="37b46e04-1941-4789-b047-1080ae03ceca" d="M60.43 19.06H1.24A1.23 1.23 0 0 1 .1 17.92V8.81a1.23 1.23 0 0 1 1.14-1.14h59.19a1.23 1.23 0 0 1 1.14 1.14v9.11a1.23 1.23 0 0 1-1.14 1.14z"/></g></g></g></g></svg>