<svg xmlns="http://www.w3.org/2000/svg" viewBox="0 0 99.37 198.49"><defs><style>.baa5d6d0-dbc0-49d1-be98-c9438629bbc9{fill:none}.babc7697-8161-4360-b5ec-ad294de6bb9b{fill:#fff}</style></defs><g id="9adc805a-279f-430b-87db-6249aa8e27e8" data-name="Слой 2"><g id="82142c9f-c799-4c74-b315-3c54061a7233" data-name="bask"><g id="a47c09b0-80e1-47bd-98c1-1f0829c4a87a" data-name="Слой 2"><g id="89c807cb-f63c-475c-9ce4-40b03a8f6789" data-name="Слой 1-2"><path d="M.52 197.73L0 1.25C0 .45.32 0 .75.39L98 0c.8-.06 1.23.31.86.74l.52 196.49c.06.8-.31 1.23-.74.86l-97.23.38c-.8.06-1.24-.31-.87-.75z" fill="#a0c5a3"/><path d="M6 173.92L5.69 28.65c-.06-.8.32-1.23.75-.86L94 27.31c.8-.06 1.23.31.86.74l.3 145.22c.06.81-.31 1.24-.74.87l-87.93.16c-.41.43-.84.06-.49-.38z" fill="#e95a25"/><path class="89d68a8a-fa1e-4130-9f8a-bfd82d9ac1e2" d="M84.81 164.42c.2 19 4.35 15-34 15-40.74.22-33 6.1-34.56-30.51l.37-.44c30.09-34.93 67.94-14.33 68.18 15.91zM84.3 38.55c-.2 29.88-37.78 50.83-68.2 16.37a.57.57 0 0 1-.08-.79C18 16 8.81 27.61 50 27.77c42.76.04 34.08-8.15 34.3 10.78z"/><path class="baa5d6d0-dbc0-49d1-be98-c9438629bbc9" d="M50.25 79.83a21.17 21.17 0 0 1 21.23 19.79c.06.8.49 1.18.86.74l21 .06c.8-.06 1.17-.5.74-.87V28.93c-.06-.8-.49-1.18-.86-.74l-7.65.16c-.81.06-1.18.49-.75.87l.34 42.35c.06.8-.31 1.23-.75.86l-33 .07-33.5.5c-.81.06-1.24-.31-.87-.74l-.33-42.35c-.06-.81-.49-1.18-.87-.75L7.76 29c-.81.06-1.18.49-.75.86v70.62c.06.81.49 1.18.87.75h21c.8-.06 1.17-.49.74-.86-.08-11.34 9.75-20.15 20.62-20.56z"/><path class="baa5d6d0-dbc0-49d1-be98-c9438629bbc9" d="M50.31 80.64c-10.52 0-19.53 8.71-20.36 19.27.06.8.49 1.17.86.74l39.19-.09c.8-.06 1.17-.49.74-.86a20.88 20.88 0 0 0-20.43-19.06zm-11.93 61.82c.13-3.65 1.5-7 3.78-8.77.75-.86-.12-1.61-.92-1.55A33.39 33.39 0 0 0 17 163.82l-.09 9.69c.06.81.49 1.18.87.75l19.38.17c.8-.06 1.18-.49.74-.87zm11.77-20.65c10.52 0 19.53-8.72 20.36-19.27-.06-.81-.49-1.18-.86-.75l-39.14.09c-.8.06-1.18.49-.74.86 1.23 10.81 9.89 19.04 20.38 19.07zm-.49-50l.8-.06c6.06-.06 10.57-4.42 11.76-10.16a1.07 1.07 0 0 0-1-1.14.92.92 0 0 0-.29 0l-22.16.44.12 1.61c0 .8.49 1.18.55 2a2.05 2.05 0 0 0 .92 1.55c.43.37.49 1.17.92 1.54l2.59 2.23a2.06 2.06 0 0 0 1.67.68c.43.38 1.23.32 1.66.69s1.24.31 1.67.68l.8-.06z"/><path class="baa5d6d0-dbc0-49d1-be98-c9438629bbc9" d="M47.2 131.27a2.09 2.09 0 0 0-1.55.93c-.37.43-1.17.49-1.54.92l-2.24 2.59a2.11 2.11 0 0 0-.68 1.67c-.37.43-.31 1.24-.68 1.67s-.32 1.23-.69 1.67.06.8-.31 1.23l22.16-.44a1.08 1.08 0 0 0 1.14-1 1.51 1.51 0 0 0 0-.3 11.38 11.38 0 0 0-11.65-10l-.8.06-.81.06c-1.13.52-2 .55-2.33 1zm-6.5-60.41c1.24.31 1.55-.93.69-1.67a12.09 12.09 0 0 1-3.86-8.6l.13-30.67c-.06-.8-.49-1.17-.86-.74L17.41 29c-.8.06-1.17.49-.74.86l-.09 9.69A32.5 32.5 0 0 0 40.7 70.86z"/><path class="baa5d6d0-dbc0-49d1-be98-c9438629bbc9" d="M39.52 54.8a3.09 3.09 0 0 1-.26 2l-.43-.37-.25 2-.37.43a1.07 1.07 0 0 0 1 1.14 1.51 1.51 0 0 0 .3 0h21c.81-.06 1.18-.49.75-.87l-.06-.8c-.06-.8-.49-1.18-.55-2L61 56V29c-.06-.8-.49-1.17-.87-.74l-21.36.38c-.8.06-1.18.49-.74.86l.36 26.61zm22.16-.45l-.38.44c-.43-.38-.49-1.18-.92-1.55l.37-.43a2.08 2.08 0 0 0 .92 1.55zm-2.66-3l-.38.43-1.29-1.11.37-.43zm-2.59-2.22l-.37.43c-.43-.37-1.23-.31-1.67-.69l-.06-.8a3.46 3.46 0 0 0 2.11 1.08zm-5.74-1.23c.81-.06 1.24.32 2 .26l.06.8a4.33 4.33 0 0 1-2.1-1.06zm-4 .3c.81-.06 1.18-.49 2-.55l.06.81c-.8.06-1.17.49-2 .55zm-3.49 2.29c.37-.43 1.18-.49 1.55-.92l.43.37a3 3 0 0 1-1.98.55zm-3 2.66l1.11-1.3.44.38a2.11 2.11 0 0 1-1.59.92zM72.44 102c-.81.06-1.18.5-.75.87a21.21 21.21 0 0 1-42.3.34c-.06-.81-.49-1.18-.86-.75h-21c-.8.06-1.17.49-.74.86v70.62c.06.81.49 1.18.86.75l8.09.2c.8-.06 1.17-.49.74-.86l-.33-42.35c-.06-.8.31-1.24.74-.86l33.43-.51 33.06-.08c.8-.06 1.23.32.86.75l.34 42.35c.06.8.49 1.17.86.74l7.65-.17c.81-.06 1.18-.49.75-.86v-70.62c-.06-.8-.49-1.18-.86-.74z"/><path class="baa5d6d0-dbc0-49d1-be98-c9438629bbc9" d="M55.25 130.72c.43.38.43.38 1.24.32a2.08 2.08 0 0 0 1.66.68l1.3 1.12a2.05 2.05 0 0 1 .92 1.54c.44.38.5 1.18.93 1.55a3 3 0 0 1 .55 2c.06.81.49 1.18.55 2l.12 1.61-.13 30.68c.06.8.49 1.17.86.74l19.39.17c.8-.06 1.17-.49.74-.86l.09-9.69c1.2-16.31-11.92-29.85-28.22-31.86z"/><path class="baa5d6d0-dbc0-49d1-be98-c9438629bbc9" d="M61.64 146c.37-.43.31-1.24.68-1.67l-.06-.8c0-.81-.49-1.18-.86-.75l-21-.05a1.07 1.07 0 0 0-1.14 1 1 1 0 0 0 0 .3l.43.37-.25 2 .81-.06a2.05 2.05 0 0 0 .92 1.55l-.37.43a2 2 0 0 1-.49-1.18l.36 26.61c.06.8.49 1.17.87.74l21.36-.38c.8-.06 1.18-.49.75-.86zm-14.71 8.36l-.06-.8c.43.37 1.23.31 1.66.68l.06.81a2.09 2.09 0 0 0-1.66-.72zm4.07.5c.74-.86 1.17-.49 1.55-.92l.06.8c-.8.07-1.23-.3-1.58.1zm5.55-1.22a3 3 0 0 1-2 .55l-.06-.8a2.09 2.09 0 0 0 1.55-.93zm-11.3 0a2.06 2.06 0 0 0-1.67-.68l.38-.43a2.08 2.08 0 0 0 1.66.68zM59.58 151a2.09 2.09 0 0 1-1.55.93l-.43-.37 1.12-1.31zm-17.34 0a2.06 2.06 0 0 1-.93-1.54l.37-.43 1.3 1.11zm19.95-3.1a2.12 2.12 0 0 0-.69 1.67l-.43-.37z"/><path class="babc7697-8161-4360-b5ec-ad294de6bb9b" d="M58.65 51.76l.38-.43-1.3-1.11-.37.43zm-6.25-3.14l-.06-.8c-.8.06-1.24-.31-2-.25l.06.8c.73-.09 1.16.28 2 .25zM55.7 50l.37-.43c-.43-.37-1.24-.31-1.67-.69l.06.81c.37-.43.81-.06 1.24.31zm-14 1.44l-1.12 1.3.44.37a2.1 2.1 0 0 0 .66-1.7zm19.25 3.82l.37-.44c-.43-.37-.49-1.17-.93-1.54l-.37.43a2.09 2.09 0 0 1 .91 1.52zM48.3 48.1c-.81.06-1.18.49-2 .55l.06.8c1.17-.49 2-.55 1.92-1.35zm-3.16 1c-.37.43-1.17.49-1.55.92l.44.38c.37-.4 1.17-.46 1.11-1.26z"/><path class="babc7697-8161-4360-b5ec-ad294de6bb9b" d="M95.45 101.49l-.2-73c0-.8-.49-1.17-.86-.74l-9.26.25-.8.06-21.33.37-.8.06-23.4.14-.8.06-21-.05-.81.06-9.69-.09c-.8.06-1.18.49-.74.86l.13 72.23.06.81.14 72.23c.06.8.49 1.17.86.74l9.7.09.8-.06 21 .05.81-.06 23.41-.15.8-.06 21.39-.35.8-.06 9.26-.28c.81-.06 1.18-.49.75-.87zM83.16 28.55c.8-.06 1.23.31.86.75l-.08 9.7a32.9 32.9 0 0 1-28.68 32.35c.37-.44.81-.06 1.18-.5s1.17-.49 1.55-.92l2.23-2.59a2.07 2.07 0 0 0 .68-1.67l.69-1.67a3 3 0 0 0 .25-2l.25-2 .14-30.62c-.06-.8.31-1.23.74-.86zm-34.3 43.32a2.07 2.07 0 0 1-1.67-.68c-.43-.37-1.24-.31-1.67-.68a2.11 2.11 0 0 0-1.67-.69l-2.58-2.22c-.43-.38-.49-1.18-.92-1.55s-.5-1.18-.93-1.55c-.06-.8-.49-1.18-.55-2l-.12-1.61 22.16-.44c.81-.06.87.74 1.3 1.11-.39 5.68-5.7 10.11-11.76 10.16l-.8.06-.81.06zm12.52-43.32c.81-.06 1.24.31.87.75v27l-.37.43c.06.81.49 1.18.55 2l.06.81c.06.8-.31 1.23-.74.86h-21a1.07 1.07 0 0 1-1.27-.82 1 1 0 0 1 0-.3l.37-.43.26-2 .43.38c.38-.44.32-1.24.69-1.67l-.43-.37c-.38.43-.32 1.23-.69 1.66l-.44-26.65c-.06-.81.31-1.24.74-.87zm-24.2.2c.81-.06 1.24.31.87.74l-.13 30.68a11 11 0 0 0 3.86 8.6c.86.74.12 1.61-.69 1.67A32.33 32.33 0 0 1 17 39.12l.09-9.69c-.06-.8.31-1.24.74-.86zm-30.67-.14l8.88.15c.81-.06 1.24.31.87.74l.3 42.34c.06.81.5 1.18.87.75l33.43-.51L83.92 72c.8-.06 1.17-.49.74-.86l-.27-42.28c-.06-.81.31-1.24.74-.87l7.65-.16c.81-.06 1.24.31.87.74v70.62c.06.81-.31 1.24-.74.87h-21c-.81.06-1.24-.32-.87-.75a21.21 21.21 0 0 0-42.34.34.79.79 0 0 1-.72.86H6.18M50.3 80.64a20.91 20.91 0 0 1 20.39 19.07c.06.8-.31 1.23-.74.86l-38.69.48c-.8.06-1.23-.31-.86-.74a20.37 20.37 0 0 1 19.91-19.67zm-.15 41.18a20.91 20.91 0 0 1-20.39-19.07c-.06-.8.31-1.23.74-.86l39.14-.09c.81-.06 1.24.31.87.74-.39 10.92-9.06 19.23-20.36 19.27zm-32 52c-.8.06-1.23-.32-.86-.75l.08-9.69a33.41 33.41 0 0 1 24.28-31.68c.8-.06 1.66.69.92 1.55a10.54 10.54 0 0 0-3.83 8.75l-.13 30.68c.06.81-.31 1.24-.74.87zM50 130.7l.81-.06c6.06-.06 10.41 4.47 11.64 10a1.06 1.06 0 0 1-.81 1.27 1 1 0 0 1-.3 0l-22.16.45c-.06-.8-.06-.8.31-1.24a2.08 2.08 0 0 1 .68-1.66c.38-.43.32-1.24.69-1.67a2.07 2.07 0 0 0 .68-1.67l2.23-2.59c.38-.43 1.18-.49 1.55-.92s1.18-.5 1.55-.93c.8-.06 1.18-.49 2-.55.34-.4.34-.4 1.17-.48zm-9.67 43.5c-.8.06-1.23-.32-.86-.75l-.37-26.62a2 2 0 0 1 .49 1.17l.37-.43c-.43-.37-.49-1.18-.92-1.55l-.81.06.3-2.05-.43-.37a1.06 1.06 0 0 1 .82-1.27h.3l21 .06c.8-.06 1.23.31.86.74l.06.8a2.06 2.06 0 0 1-.68 1.67l.45.39v27c.06.8-.31 1.24-.75.86zm22.91-1.31l.15-30.68-.12-1.6c-.06-.81-.49-1.18-.55-2l-.92-1.55c-.44-.37-.5-1.18-.93-1.55l-.93-1.51-1.3-1.11-1.64-.69c-.43-.37-.43-.37-1.23-.31 16.29 2 29.41 15.56 29.05 32.53l-.08 9.7c.06.8-.31 1.23-.74.86l-19.39-.17c-.84-.75-1.27-1.12-1.32-1.92zm22.22.35l-.31-42.34c-.06-.8-.5-1.18-.87-.74l-33.06.07-33.43.51c-.8.06-1.17.49-.74.86l.32 42.4c.06.8-.31 1.24-.74.86l-8.08-.2c-.81.06-1.24-.31-.87-.75v-70.67c-.06-.8.31-1.23.74-.86l21 .05c.81-.06 1.24.31.87.74a21.2 21.2 0 0 0 42.34-.33.79.79 0 0 1 .72-.86h21c.8-.06 1.24.31.86.74v70.62c.06.81-.31 1.24-.74.87l-7.65.16c-1.29-.34-1.74-.74-1.37-1.17z"/><path class="babc7697-8161-4360-b5ec-ad294de6bb9b" d="M58.11 152.69a2.11 2.11 0 0 1 1.55-.92l-.44-.37zM51 154l.06.81L51 154a2.46 2.46 0 0 0 1.66.69l-.06-.81zm3.63.14c.8-.06 1.18-.5 2-.56l-.43-.37c-.44.46-1.2.52-1.62.96zm-14.06-4.61a2.11 2.11 0 0 1 .92 1.55l.37-.43zm20.18.12a2.12 2.12 0 0 0 .69-1.67l-.43-.37a1.59 1.59 0 0 0-.31 2.07zm-13.83 3.85l.06.8a3 3 0 0 0 2 .25l-.06-.8c-.82.09-1.25-.28-2.05-.22zm-3.33-1.36a2.07 2.07 0 0 0 1.67.68l.37-.43a2.07 2.07 0 0 0-1.67-.68z"/></g></g></g></g></svg>