<svg xmlns="http://www.w3.org/2000/svg" xmlns:xlink="http://www.w3.org/1999/xlink" viewBox="0 0 139.45 48.38"><defs><style>.fd4fd7fd-93fb-49c1-8502-c616837df967{fill:#4c4946}</style><linearGradient id="08108cf0-17c7-44f9-8240-8c85ead7fac3" x1="960.28" y1="-2220.6" x2="969.55" y2="-2235.1" gradientTransform="matrix(1 0 0 -1 -841.82 -2216.26)" gradientUnits="userSpaceOnUse"><stop offset="0" stop-color="#036838"/><stop offset=".47" stop-color="#009145"/><stop offset="1" stop-color="#036838"/></linearGradient><linearGradient id="969b7cb0-c1e2-4735-b172-0cd14091af0f" x1="960.14" y1="-2244.33" x2="969.41" y2="-2258.83" xlink:href="#08108cf0-17c7-44f9-8240-8c85ead7fac3"/></defs><g id="26031693-d0a2-455a-b050-6f7062ef0eec" data-name="Слой 2"><g id="29f84b6b-9ecf-4bde-bfee-4b3b77ddd0e5" data-name="work"><g id="5efaec1b-8186-4f49-a0c4-646706142deb" data-name="Слой 2"><g id="f75ac64a-b317-4996-9e8e-942bf0f17a78" data-name="Слой 1-2"><path class="0fa0f5c5-efd2-48c8-a6d2-e925035efb4b" d="M138.31 48.38H1.14A1.23 1.23 0 0 1 0 47.24V1.14A1.23 1.23 0 0 1 1.14 0h137.17a1.23 1.23 0 0 1 1.14 1.14v46.1c-.57.61-.57 1.14-1.14 1.14z"/><path class="70d7ff85-b70c-4795-acc1-4bdf9814ab83" d="M111.56 48.38H27.89a1.23 1.23 0 0 1-1.14-1.14V1.14A1.23 1.23 0 0 1 27.89 0h83.66a1.23 1.23 0 0 1 1.14 1.14v46.1c-.56.61-.56 1.14-1.13 1.14z"/><path d="M128.63 19.93h-6.26a1.23 1.23 0 0 1-1.14-1.14V5.7a1.23 1.23 0 0 1 1.14-1.14h6.26a1.23 1.23 0 0 1 1.14 1.14v13.09a1.23 1.23 0 0 1-1.14 1.14z" fill="url(#08108cf0-17c7-44f9-8240-8c85ead7fac3)"/><path class="6104c6b4-9ee6-4071-ac68-f43c2bb0fce4" d="M120.09 12h10.24v.57h-10.24zm5.13-6.83z"/><path d="M128.63 43.85h-6.26a1.23 1.23 0 0 1-1.14-1.14V29.6a1.23 1.23 0 0 1 1.14-1.14h6.26a1.23 1.23 0 0 1 1.14 1.14v13.09a1.22 1.22 0 0 1-1.14 1.16z" fill="url(#969b7cb0-c1e2-4735-b172-0cd14091af0f)"/><path class="6104c6b4-9ee6-4071-ac68-f43c2bb0fce4" d="M120.09 35.86h10.24v.57h-10.24zm5.69-7.4z"/><path class="fd4fd7fd-93fb-49c1-8502-c616837df967" d="M35.29 23.34a.56.56 0 0 1-.57-.55V5.7a.56.56 0 0 1 .55-.57.56.56 0 0 1 .57.55v17.09c.59 0 .02.57-.55.57zm8 0a.56.56 0 0 1-.57-.55V5.7a.56.56 0 0 1 .55-.57.56.56 0 0 1 .57.55v17.09a.56.56 0 0 1-.55.57zm19.89-11.95h-6.83a.56.56 0 0 1-.57-.55V5.7a.56.56 0 0 1 .55-.57h6.85a.56.56 0 0 1 .57.55v5.17c.57.54 0 .54-.57.54zm29 21.06h-6.8a.56.56 0 0 1-.57-.55v-1.73a.56.56 0 0 1 .55-.57h6.85a.56.56 0 0 1 .57.55v1.7c.56 0 0 .6-.57.6zm.57 6.83H86a.56.56 0 0 1-.57-.55V37a.56.56 0 0 1 .55-.57h6.85a.56.56 0 0 1 .57.55v1.73a.56.56 0 0 1-.55.57zM63.18 22.77h-6.83a.56.56 0 0 1-.57-.55v-5.14a.56.56 0 0 1 .55-.57h6.85a.56.56 0 0 1 .57.55v5.14a.56.56 0 0 1-.55.57zm9.68.57a.56.56 0 0 1-.57-.55V5.7a.56.56 0 0 1 .55-.57.56.56 0 0 1 .57.55v17.09c.59.57.01.57-.55.57zm6.26 0a.56.56 0 0 1-.57-.55V5.7a.56.56 0 0 1 .55-.57.56.56 0 0 1 .57.55v17.09c.02.57.02.57-.55.57zm25 .57a.56.56 0 0 1-.57-.55V6.27a.56.56 0 0 1 .55-.57.56.56 0 0 1 .57.55v17.09a.56.56 0 0 1-.55.57zm-.57 21.63A.56.56 0 0 1 103 45V27.85a.56.56 0 0 1 .55-.57.56.56 0 0 1 .57.55v17.09a.57.57 0 0 1-.5.62zm-70-10.82a.56.56 0 0 1 .55-.57h18.27a.56.56 0 0 1 .57.55.56.56 0 0 1-.55.57H34.15c-.56.56-.56 0-.56-.57zM33 41a.56.56 0 0 1 .55-.57l18.56.38a.56.56 0 0 1 .57.55l-.3-.36a4.69 4.69 0 0 1-.19 1.18l-18.56-.38A.83.83 0 0 1 33 41z"/><path class="fd4fd7fd-93fb-49c1-8502-c616837df967" d="M49.52 42.12a.56.56 0 0 1-.57-.55v-6.28a.56.56 0 0 1 .55-.57.56.56 0 0 1 .57.55v6.28a.56.56 0 0 1-.55.57zm2.85 0c-.6.1-.73-.09-.57-.57v-6.26a.56.56 0 0 1 .55-.57.56.56 0 0 1 .57.55v6.28c0 .15.02.57-.55.57zm-6.26-.57a.56.56 0 0 1-.57-.55v-6.28a.56.56 0 0 1 .55-.57.56.56 0 0 1 .57.55V41c.58.55.02.55-.55.55zm-3.42 0a.56.56 0 0 1-.57-.55v-6.28a.56.56 0 0 1 .55-.57.56.56 0 0 1 .57.55V41c.59.55.02.55-.55.55zm-3.41 0a.56.56 0 0 1-.57-.55v-6.28a.56.56 0 0 1 .55-.57.56.56 0 0 1 .57.55V41c.58.55.02.55-.55.55zm-2.85 0a.56.56 0 0 1-.57-.55v-6.28a.56.56 0 0 1 .55-.57.56.56 0 0 1 .57.55V41c.02.55.02.55-.55.55zm-2.84 0A.56.56 0 0 1 33 41v-6.28a.56.56 0 0 1 .55-.57.56.56 0 0 1 .57.55V41c.6.55.03.55-.53.55z"/></g></g></g></g></svg>