<svg xmlns="http://www.w3.org/2000/svg" viewBox="0 0 46.3 99.31"><defs><style>.b077e278-d79b-48d0-85ba-583429bbeefc{fill:none}.f012d9c9-d80b-4079-ae6e-6511d9a2f77c{fill:#fab91c}</style><clipPath id="99d3cd93-7644-4be2-bf97-9e2a84bd97ab"><path class="b077e278-d79b-48d0-85ba-583429bbeefc" d="M35.37 41.05c-.52-1.56-1-2.6-3.64-2.6h-14a3.25 3.25 0 0 0-3.12 2.6v2.08l20.81.52c.47 0 .47-1-.05-2.6z"/></clipPath><clipPath id="ecce5681-12eb-4815-b3a3-1d2f93d813af"><path class="b077e278-d79b-48d0-85ba-583429bbeefc" d="M35.37 46.25c-.52 1.56-1 2.6-3.64 2.6-2.08 0-11.44-.52-14-.52a3.25 3.25 0 0 1-3.12-2.6v-2.08l20.81.52c.47-.52.47.55-.05 2.08z"/></clipPath><clipPath id="428b4e93-f6d8-40a2-8c8b-364fc41e1b30"><path class="b077e278-d79b-48d0-85ba-583429bbeefc" d="M35.37 67.58c-.52-1.56-1-2.6-3.64-2.6h-14a3.25 3.25 0 0 0-3.12 2.6v2.08l20.81.52c.47 0 .47-1-.05-2.6z"/></clipPath><clipPath id="0a1f359e-0018-4f65-b2b9-09c244994c50"><path class="b077e278-d79b-48d0-85ba-583429bbeefc" d="M35.37 72.26c-.52 1.56-1 2.6-3.64 2.6-2.08 0-11.44-.52-14-.52a3.25 3.25 0 0 1-3.12-2.6v-2.08l20.81.52c.47 0 .47 1.04-.05 2.08z"/></clipPath></defs><g id="613423ba-2b11-4552-a559-c396b244ae0e" data-name="Слой 2"><g id="4dfc446a-8fa5-4820-bb96-847b9c39fa08" data-name="parking"><g id="b8cea6da-4e40-4319-8585-0cf9aeb29ee4" data-name="Слой 2"><g id="2fc9d047-3000-4a9e-9f59-1971bedcee8b" data-name="Слой 1-2"><path d="M40.57 99.31H5.72A5.77 5.77 0 0 1 0 93.59V5.72A5.77 5.77 0 0 1 5.72 0h34.86a5.77 5.77 0 0 1 5.72 5.72v87.92a5.77 5.77 0 0 1-5.73 5.67z" fill="#fff"/><path d="M40.05 93.59V7.23a1.11 1.11 0 0 0-1-1H16.13m23.92 87.36l-23.41.52m23.41-11.44l-23.41.52m23.41-10.41l-23.41.52m23.41-11.44l-23.93.52m23.93-12l-23.93.52m23.41-10.4H16.12m23.41-10.38l-23.41.52M39.53 19.2l-23.41.52" stroke="#7a7a7a" stroke-linecap="round" stroke-linejoin="round" stroke-width=".96" fill="none"/><path class="64028978-81a0-4a21-b450-a95cfbf39a18" d="M29.65 38.45s-.52-1.56-1-1.56a1.83 1.83 0 0 0-1 .52l.52 1.59zm0 9.88s-.52 1.56-1 1.56a1.83 1.83 0 0 1-1-.52l.52-1.56z"/><path class="5550755d-6c76-4c6f-b0f2-2dea067e77dc" d="M35.37 41.05a8.86 8.86 0 0 1 0 5.2c-.52 1.56-1 2.6-3.64 2.6-2.08 0-11.44-.52-14-.52a3.25 3.25 0 0 1-3.12-2.6v-4.16A3.25 3.25 0 0 1 17.73 39h14c2.6-.55 3.12.49 3.64 2.05z"/><path class="64028978-81a0-4a21-b450-a95cfbf39a18" d="M26.52 39.49H20.8l-2.6-1 10.93.51-2.61.52z"/><path class="64028978-81a0-4a21-b450-a95cfbf39a18" d="M26.52 39.49v3.64c0 1.56 0 3.12-.52 3.64a11.79 11.79 0 0 1 3.12 1 8.56 8.56 0 0 0 1-4.68 6.25 6.25 0 0 0-1-4.16zm-5.72 0c0 1-.52 2.08-.52 3.64a29.81 29.81 0 0 0 .52 3.64c-.52 0-.52 0-2.6 1a27.66 27.66 0 0 1-.52-4.16 27.66 27.66 0 0 1 .52-4.16z"/><g class="03b48799-4c9c-4268-9c9e-30134f6f644e"><path class="f012d9c9-d80b-4079-ae6e-6511d9a2f77c" d="M35.37 40.53a16.1 16.1 0 0 1-3.64-2.6c0-.52 1.56 0 2.6.52s1 2.08 1 2.08z"/></g><path class="64028978-81a0-4a21-b450-a95cfbf39a18" d="M26.52 47.29H20.8l-2.6.52 10.93.52-2.61-1z"/><g clip-path="url(#ecce5681-12eb-4815-b3a3-1d2f93d813af)"><path class="f012d9c9-d80b-4079-ae6e-6511d9a2f77c" d="M35.37 46.25a39.72 39.72 0 0 0-3.64 2.08c0 .52 1.56 0 2.6-.52.52 0 1-1.56 1-1.56z"/></g><path class="64028978-81a0-4a21-b450-a95cfbf39a18" d="M29.65 65s-.52-1.56-1-1.56a1.83 1.83 0 0 0-1 .52l.52 1.56zm0 9.88s-.52 1.56-1 1.56a1.83 1.83 0 0 1-1-.52l.52-1.56z"/><path class="5550755d-6c76-4c6f-b0f2-2dea067e77dc" d="M35.37 67.58a8.86 8.86 0 0 1 0 5.2c-.52 1.56-1 2.6-3.64 2.6-2.08 0-11.44-.52-14-.52a3.25 3.25 0 0 1-3.12-2.6V68.1a3.25 3.25 0 0 1 3.12-2.6h14c2.6-.5 3.12.5 3.64 2.08z"/><path class="64028978-81a0-4a21-b450-a95cfbf39a18" d="M26.52 66H20.8l-2.6-1h10.93zm0 0v3.64c0 1.56 0 3.12-.52 3.64a11.79 11.79 0 0 1 3.12 1 8.56 8.56 0 0 0 1-4.68 6.25 6.25 0 0 0-1-4.16zm-5.72 0c0 1-.52 2.08-.52 3.64a29.81 29.81 0 0 0 .52 3.64c-.52 0-.52 0-2.6 1a17 17 0 0 1 0-8.32z"/><g clip-path="url(#428b4e93-f6d8-40a2-8c8b-364fc41e1b30)"><path class="f012d9c9-d80b-4079-ae6e-6511d9a2f77c" d="M35.37 67.06a16.1 16.1 0 0 1-3.64-2.6c0-.52 1.56 0 2.6.52s1 2.08 1 2.08z"/></g><path class="64028978-81a0-4a21-b450-a95cfbf39a18" d="M26.52 73.82H20.8l-2.6.52 10.93.52-2.61-1z"/><g clip-path="url(#0a1f359e-0018-4f65-b2b9-09c244994c50)"><path class="f012d9c9-d80b-4079-ae6e-6511d9a2f77c" d="M35.37 72.78a39.72 39.72 0 0 0-3.64 2.08c0 .52 1.56 0 2.6-.52.52 0 1-1.56 1-1.56z"/></g></g></g></g></g></svg>