<svg xmlns="http://www.w3.org/2000/svg" viewBox="0 0 108.57 103.42"><defs><style/></defs><g id="90dfa6e8-90fc-4fdb-a217-0a918e06a984" data-name="Слой 2"><g id="6ae9a882-5fa6-44cf-a3d8-da7054c538a7" data-name="house1"><g id="35d4557a-d56c-4c60-9e60-ea12cf605057" data-name="Слой 2"><g id="a03d9912-a29e-49b3-833d-0298df8c4770" data-name="Слой 1-2"><path class="07afaaeb-bcc0-4030-ae49-b6ffe0cc85f8" d="M49.36 0a1.22 1.22 0 0 0 1.14 1.14"/><path class="100a756f-1a79-48ec-be2d-647ffd539749" d="M108.57 41c-.57-.57-.57-1.14 0-1.14"/><path class="6f27e050-6cc5-4f26-a308-34592340d2c7" d="M28.86 92.77l54.64-46.1a1.08 1.08 0 0 0 .21-1.5 1 1 0 0 0-.21-.17L60.17 17.64a1.07 1.07 0 0 0-1.5-.21 1 1 0 0 0-.21.21l-54.6 46.1a1.06 1.06 0 0 0-.21 1.5 1 1 0 0 0 .21.21l23.33 27.32c.56 0 1.13.57 1.67 0z"/><path class="07afaaeb-bcc0-4030-ae49-b6ffe0cc85f8" d="M.43 59.76a1.06 1.06 0 0 0-.21 1.5 1 1 0 0 0 .21.21l23.33 27.32a1.06 1.06 0 0 0 1.49.21 1 1 0 0 0 .23-.22"/><path class="4f7b30e6-2675-4ef2-bd0e-481135e6b65a" d="M65.32 69.43l22.2-18.78a1.08 1.08 0 0 0 .21-1.5 1 1 0 0 0-.21-.21L64.19 21.62a1.07 1.07 0 0 0-1.5-.21 1 1 0 0 0-.21.21L40.28 40.4a1.06 1.06 0 0 0-.21 1.5 1 1 0 0 0 .21.21l23.33 27.32z"/><path class="4f7b30e6-2675-4ef2-bd0e-481135e6b65a" d="M101.74 55.2V21.06a1.23 1.23 0 0 0-1.14-1.14H64.75a1.22 1.22 0 0 0-1.14 1.14v34.15a1.22 1.22 0 0 0 1.14 1.14h35.86a1.23 1.23 0 0 0 1.13-1.15z"/><path d="M31.17 103L7.27 76.83a.79.79 0 0 1 0-1.12L9 65.45c0-.57 0-.57.57-.57l78-42.69h1.14l9.68 8.54.57.57-.57 26.18a1.23 1.23 0 0 1-1.14 1.14l-8.54.57h-.57L83 63.74 32.86 103a1.07 1.07 0 0 1-1.5.19.85.85 0 0 1-.19-.19z" style="isolation:isolate" opacity=".43" fill="#34312e"/><g id="81ecfed2-bede-4f44-bdd0-f66e19f62cba" data-name="rooof 2"><path class="11f3fd9b-7c82-435d-ae53-d4ae36d32cdb" d="M15.8 73.42L6.69 62.61a1.06 1.06 0 0 1-.21-1.5 1 1 0 0 1 .21-.21l46.1-39.27c.57-.57 1.14 0 1.71.57l6.83 12v1.07L17.51 74c-1.14 0-1.71 0-1.71-.58z"/><path class="206c0f19-952b-4d39-a259-d001cbf03cf1" d="M75.56 46.1l-12-9.68c-.57-.57-.57-1.71.57-1.71L88 34.14a1.23 1.23 0 0 1 1.14 1.14V45A1.23 1.23 0 0 1 88 46.1z"/><path class="0c1fdc36-7b24-4124-852d-7d44503cacf6" d="M60.76 34.15l-6.26-12c-.57-.57 0-1.71 1.14-1.71l33-.57A1.23 1.23 0 0 1 89.78 21l.57 12a1.23 1.23 0 0 1-1.14 1.14l-26.75.57c-1.13 0-1.13 0-1.7-.57z"/><path class="100a756f-1a79-48ec-be2d-647ffd539749" d="M75.56 45.53a1.08 1.08 0 0 1 .21 1.5 1 1 0 0 1-.21.21L57.92 62.61 29.46 87.08a1.07 1.07 0 0 1-1.5.21 1 1 0 0 1-.21-.21L17.51 74.56a1.06 1.06 0 0 1-.21-1.5 1 1 0 0 1 .21-.21l43.25-38.7c.57-.57 1.14-.57 1.14 0z"/></g><path class="48be2f27-fa5e-4483-a179-5f027929c761" d="M52.28 2.42c-1.12 0-1.69-.58-1.69-1.15"/></g></g></g></g></svg>