<svg xmlns="http://www.w3.org/2000/svg" viewBox="0 0 66.97 138.38"><defs><style/></defs><g id="12f61d3e-1d42-4698-b094-0eee381cd78d" data-name="Слой 2"><g id="1017dd37-1709-44f6-93fa-22cc5351393f" data-name="Слой 1"><g id="1e675a60-58b2-4000-8244-9993ed82ac66" data-name="Слой 2"><g id="c639f1da-3582-4226-9e98-12e25382ed71" data-name="Слой 1-2"><path class="59585507-ba52-4f6e-a90c-db6367e67ddc" d="M9 137.34h48a9 9 0 0 0 9-8.74V9.18a9 9 0 0 0-8.75-9h-48a9 9 0 0 0-9 8.75l.03 119.39A9 9 0 0 0 9 137.34z"/><path class="7807bd1e-a879-4b92-adb4-ca7a9c065217" d="M9.94.7L58 .57a8.13 8.13 0 0 1 8.16 8.1l.31 119.05a10 10 0 0 1-9.94 10l-46.79.12A8.68 8.68 0 0 1 1 129.2L.71 10A9.28 9.28 0 0 1 9.94.7z"/><path d="M9.84.37l47.79.25c5.26 0 8.19 2.83 8.21 8.06L66 68.44 1.21 69 .37 9.6C.91 3.07 4.33.4 9.84.37z" stroke-width=".74" fill="none" stroke="#fff" stroke-miterlimit="10"/><path class="96688b71-d06d-4b57-8ad5-a6fc4656665f" d="M10.12.72l47.8-.13L58 69l-47.8.13L10.12.72z"/><path class="96688b71-d06d-4b57-8ad5-a6fc4656665f" d="M9.9 34.4l47.8-.13.18 68.29-47.8.13z"/><path class="96688b71-d06d-4b57-8ad5-a6fc4656665f" d="M10.23 68.67L58 68.54l.07 69.14-47.81.12z"/></g></g></g></g></svg>