<svg xmlns="http://www.w3.org/2000/svg" viewBox="0 0 201.37 67.12"><defs><style>.a77195ed-3862-4a2a-825e-eae73b25d45c{fill:#73bf67}</style></defs><g id="8d8e1068-c08b-4e00-832a-4f0090be599f" data-name="Слой 2"><g id="c8aac80d-c816-41ad-a3eb-2f41226e02d8" data-name="chris"><g id="50b3e8c5-c91e-4ddc-8931-edafb28d4178" data-name="Слой 2"><g id="8b139cc5-87e6-489c-adbb-40ac2d0f3431" data-name="Слой 1-2"><path class="3097e62d-70ae-4725-a22c-71eba451243a" d="M180.66 6.7a1.42 1.42 0 0 1 1.61 1.61z"/><path d="M166.71 24.43c.54 0 1.07.54.54.54z" fill="#f2f2f2"/><path class="a77195ed-3862-4a2a-825e-eae73b25d45c" d="M1.88 64.7L74.36 3l.54-.54 122.41-.54A1.14 1.14 0 0 1 198.38 3l1.07 61.21a1.14 1.14 0 0 1-1.07 1.07z"/><path class="316114f7-bfbf-4c9f-9f68-9d14b0d02dca" d="M198.38 67.12L1.87 66.58a1.89 1.89 0 0 1-1.22-3.32L73.08 1.57l.48-.48a1.92 1.92 0 0 1 1.33-.55L197.3 0a3 3 0 0 1 3 3l1.07 61.17a3 3 0 0 1-3 3zM7 62.83l190.57.52-1-59.57-120.89.52-.1.09z"/><path class="a77195ed-3862-4a2a-825e-eae73b25d45c" d="M76.34 20.28l-.27-8.86a1.16 1.16 0 0 1 1.07-1.07h95.57l15.57 8c.54 0 .54.54.54 1.07V43.1c0 .54 0 .54-.54 1.07l-16.64 10.2h-94.5a1.16 1.16 0 0 1-1.07-1.07l.06-10.2A1.16 1.16 0 0 1 77.2 42h31.08a1.14 1.14 0 0 0 1.07-1V22.7a1.14 1.14 0 0 0-1.07-1.07l-30.87-.27a1.16 1.16 0 0 1-1.07-1.08z"/><path class="316114f7-bfbf-4c9f-9f68-9d14b0d02dca" d="M171.64 55.32h-94.5a2.1 2.1 0 0 1-2-2l.06-10.21a2.1 2.1 0 0 1 2-2h31.08a.31.31 0 0 0 .13-.15V22.7a.28.28 0 0 0-.15-.13L77.4 22.3a2.1 2.1 0 0 1-2-2l-.27-8.85a2.1 2.1 0 0 1 2-2h95.57a.92.92 0 0 1 .43.11l15.4 8c.81.12 1.22.79 1.22 2V43.1a1.93 1.93 0 0 1-.81 1.74.79.79 0 0 1-.17.14l-16.64 10.2a.91.91 0 0 1-.49.14zM77.21 43a.47.47 0 0 0-.13.15L77 53.31a.37.37 0 0 0 .15.13h94.21l16.32-10 .18-.18v-24l-15.36-8H77.14a.47.47 0 0 0-.13.15l.27 8.81a.31.31 0 0 0 .15.15l30.86.27a2.1 2.1 0 0 1 2 2V41a2.1 2.1 0 0 1-2 2z"/><path class="316114f7-bfbf-4c9f-9f68-9d14b0d02dca" d="M113.55 41h-2.68a1.65 1.65 0 0 1-1.57-1.57V22.28a1.66 1.66 0 0 1 1.57-1.58H113v1a.68.68 0 0 0-.58.58v17.18a1.2 1.2 0 0 0 .27.58h.85zm-2.68-19.3a.68.68 0 0 0-.58.58v17.18a.68.68 0 0 0 .58.58h.7a1.87 1.87 0 0 1-.12-.58V22.28a1.63 1.63 0 0 1 .13-.58z"/><path class="316114f7-bfbf-4c9f-9f68-9d14b0d02dca" d="M114.63 41H113a1.67 1.67 0 0 1-1.58-1.57l.12-17.18a1.66 1.66 0 0 1 1.56-1.58l4.08-.08v1l-2 .08a.68.68 0 0 0-.58.58v17.21a4.86 4.86 0 0 0 0 .54l3.14-.07v1l-2.07.11zm-.89-19.33h-.6a.67.67 0 0 0-.59.58l-.12 17.18a.66.66 0 0 0 .57.57h.61a5.23 5.23 0 0 1 0-.56V22.28a1.43 1.43 0 0 1 .13-.58z"/><path class="316114f7-bfbf-4c9f-9f68-9d14b0d02dca" d="M121.61 41h-4.43a1.65 1.65 0 0 1-1.57-1.57l-.06-17.26a1.65 1.65 0 0 1 1.57-1.57h4.43a1.65 1.65 0 0 1 1.57 1.57l.06 17.26a1.65 1.65 0 0 1-1.57 1.57zm-4.49-19.41a.68.68 0 0 0-.58.58l.06 17.26a.68.68 0 0 0 .58.58h4.43a.66.66 0 0 0 .58-.58l-.06-17.26a.66.66 0 0 0-.58-.58zm55.62 26.93h-.67L146.29 48a1.66 1.66 0 0 1-1.56-1.57l-.06-6h1l.06 6.05a.68.68 0 0 0 .58.58l26.18.54 10-5.81c.35-.35.35-.36.35-.68V22.82a1.8 1.8 0 0 0-.05-.61h-.15l-.11-.05L173 15.8h-.39l-25.78-.54a.68.68 0 0 0-.57.58l.07 5.21h-1l-.07-5.22a1.66 1.66 0 0 1 1.57-1.58l26.46.54 9.71 6.47c.87.11.87 1.08.87 1.56v18.25c0 .7-.08.82-.68 1.42l-.1.08zm-33.37-26.89v-5.79a1.66 1.66 0 0 1 1.63-1.57h2.15v1a.69.69 0 0 0-.57.58v5.69zm2.27-6.37H141a.68.68 0 0 0-.58.58v4.77h1.13v-4.73a1.48 1.48 0 0 1 .11-.62zm.91 32.74H141a1.65 1.65 0 0 1-1.57-1.57v-6.6h3.14v6.61a2.81 2.81 0 0 0 0 .58v1zm-2.19-7.19v5.62a.68.68 0 0 0 .58.58h.61a5.61 5.61 0 0 1 0-.58v-5.61z"/><path class="316114f7-bfbf-4c9f-9f68-9d14b0d02dca" d="M144.66 21.56h-3.12V15.7a1.59 1.59 0 0 1 1.55-1.44h2.82l-.89.82a1.25 1.25 0 0 0-.38.62zm-2.18-.94h1.23v-4.88a1.72 1.72 0 0 1 .11-.5h-.71a.66.66 0 0 0-.6.5zM144.69 48h-1.61a1.65 1.65 0 0 1-1.57-1.57v-5.35h1v5.37a.68.68 0 0 0 .58.58h1.61z"/><path class="316114f7-bfbf-4c9f-9f68-9d14b0d02dca" d="M146.23 21.44h-2.55V14.3h3.83l-.9.81a1.22 1.22 0 0 0-.38.61zm-1.61-.93h.68V15.7a1.64 1.64 0 0 1 .1-.49h-.78zM146.3 48h-2.15c-1 0-1-1.06-1-1.57v-6.16h1v6.17a2.51 2.51 0 0 0 0 .61h2.14z"/><path class="316114f7-bfbf-4c9f-9f68-9d14b0d02dca" d="M121.35 40.92a1.65 1.65 0 0 1-1.57-1.57V22.12a1.65 1.65 0 0 1 1.57-1.57l60.39.16a2.78 2.78 0 0 1 2.64 2.64v14.5a2.78 2.78 0 0 1-2.64 2.64zm0-19.38a.68.68 0 0 0-.58.58v17.23a.68.68 0 0 0 .58.58l60.39-.43a1.82 1.82 0 0 0 1.66-1.65V23.36a1.81 1.81 0 0 0-1.66-1.66z"/><path class="316114f7-bfbf-4c9f-9f68-9d14b0d02dca" d="M167.11 40.57L162 36a1.38 1.38 0 0 1-.63-1.42V27a2.22 2.22 0 0 1 .69-1.19l5.54-4.06h6.3a2.69 2.69 0 0 1 1.8.68l4.73 4.15a1.71 1.71 0 0 1 .71 1.58v6.39a1.86 1.86 0 0 1-.56 1.35L176 40.49h-.74zm-4.74-13.4v7.46c0 .13 0 .38.16.48l.11.08 4.85 4.39 8.14-.07 4.27-4.27a.89.89 0 0 0 .27-.65v-6.4c0-.48-.13-.66-.32-.79l-4.79-4.19a1.71 1.71 0 0 0-1.15-.43h-6l-5.25 3.84a1.22 1.22 0 0 0-.29.55z"/><path class="316114f7-bfbf-4c9f-9f68-9d14b0d02dca" d="M171.54 39.42a8 8 0 1 1 8-8 8 8 0 0 1-8 8zm0-15a7 7 0 1 0 7 7 7 7 0 0 0-7-7z"/><path class="a77195ed-3862-4a2a-825e-eae73b25d45c" d="M130.58 23.05h27.17v14.78h-26.67a5.37 5.37 0 0 1-5.37-5.37v-4.54a4.87 4.87 0 0 1 4.87-4.87z"/><path class="316114f7-bfbf-4c9f-9f68-9d14b0d02dca" d="M157.74 38.54h-26.66a6.09 6.09 0 0 1-6.1-6.06v-4.56a5.59 5.59 0 0 1 5.57-5.57h27.17a.71.71 0 0 1 .71.71v14.77a.71.71 0 0 1-.69.71zm-27.17-14.78a4.16 4.16 0 0 0-4.16 4.16v4.55a4.66 4.66 0 0 0 4.66 4.66h26V23.76z"/></g></g></g></g></svg>