<svg xmlns="http://www.w3.org/2000/svg" viewBox="0 0 90.52 89.36"><defs><style>.b7ede8c6-acde-4607-9555-c34e8a0aaf7b{fill:#635b56}</style></defs><g id="cbc7a287-9ee6-42da-9f29-16865bf470e8" data-name="Слой 2"><g id="a12c7297-f3b7-4936-a0a9-8b8902912433" data-name="caffe"><g id="cc7439e0-2a30-42b2-b8f8-2bd57a338723" data-name="Слой 2"><g id="d3ba00c2-3ad2-4002-b360-a36748366184" data-name="Слой 1-2"><path class="34812fde-e483-490a-8892-cdb05e240eba" d="M83.66 88.79l-23.33.57c-1.71 0-2.85 0-4-1.14v-.57c-2.28-1.71-2.85-4.55-1.71-7.4l18.78-60.9a6.36 6.36 0 0 1 8-4l4 1.14a8.8 8.8 0 0 1 4.6 6.26l.57 59.19c-.65 4-3.49 6.85-6.91 6.85z"/><path class="66f33908-63e1-41c2-b34e-6a54ca8e85f6" d="M46.67 13.1H15.94a1.23 1.23 0 0 0-1.14 1.14v50.08a1.23 1.23 0 0 0 1.14 1.14h30.73a1.23 1.23 0 0 0 1.14-1.14V14.23c0-1.13-.57-1.13-1.14-1.13z"/><g id="12ead06d-195d-48eb-9b00-9683b4511e8e" data-name="крыша"><path class="1559b833-f9b0-4c6e-8fbb-3c4b2bd2b5cc" d="M59.19 63.18L49 83.67c-.57 1.14-1.71.57-1.71-.57V13.66a1.23 1.23 0 0 1 1.14-1.14h10.76v50.65z"/><path class="2d3a7567-29c9-4df1-9f05-f61a34811bc5" d="M79.11 46.11L60.35 63.75a1.09 1.09 0 0 1-1.53-.21 1.11 1.11 0 0 1-.18-.36V13.1H78a1.23 1.23 0 0 1 1.14 1.14v31.3c.55 0 .55.57 0 .57zm1.14 36.42l-16.5-19.35 16.5-15.94a1.09 1.09 0 0 1 1.53.21 1.11 1.11 0 0 1 .18.36v33.58c0 1.71-1.14 1.71-1.71 1.14z"/><path class="1559b833-f9b0-4c6e-8fbb-3c4b2bd2b5cc" d="M63.17 63.18h-4l1.71-1.71L79.09 46.1s2.28 1.71 2.85 1.71v.57l-17.59 14.8z"/><path class="b7ede8c6-acde-4607-9555-c34e8a0aaf7b" d="M78.54 84.81H48.35c-1.14 0-1.71-1.14-1.14-2.28l12-19.35h4.55L79.68 82a1.6 1.6 0 0 1-1.14 2.81z"/></g><path d="M8 87.65a1.23 1.23 0 0 0 1.14-1.14V1.14A1.23 1.23 0 0 0 8 0" fill="#fff"/><path class="1c8834fc-88eb-46fd-bc70-9573721b84db" d="M47.24 84.24H4.55l.57-74.56h42.69z"/><circle class="1d253db5-579d-4eb9-be5c-ac28501168ed" cx="19.92" cy="19.36" r="3.41"/><path class="1d253db5-579d-4eb9-be5c-ac28501168ed" d="M23.35 16.51l-2.28-1.14v-.57l.57-1.14h.57l2.28 1.14v.57zm.55 4v-2.3s0-.57.57 0h1.14s.57 0 0 .57v2.28s0 .57-.57 0zm-2.27 2.85l1.72-1.14h.57l.57 1.14v.57L22.76 25h-.57l-.57-1.71zm-5.13-.57l2.28.57v.57l-.57 1.14h-.57l-2.28-.57v-.57zm-.56-4v2.28s0 .57-.57 0h-1.14s-.57 0 0-.57v-2.28s0-.57.57 0zm2.84-4l-1.71 1.14h-.57l-.57-1.14v-.57l1.71-1.14h.57l.57 1.14z"/><circle class="1d253db5-579d-4eb9-be5c-ac28501168ed" cx="19.35" cy="34.15" r="3.41"/><path class="1d253db5-579d-4eb9-be5c-ac28501168ed" d="M22.76 30.74l-2.28-1.14V29l.57-1.14h.57L23.9 29v.57l-1.14 1.14zm.59 4.55V33s0-.57.57 0h1.14s.57 0 0 .57v2.28s0 .57-.57 0l-1.14-.57zm-2.29 2.85L22.77 37h.58l.57 1.14v.57l-1.71 1.14h-.57l-.57-1.71zM15.94 37l2.28.57v.57l-.57 1.14h-.57l-2.28-.57v-.57zm-.59-4v2.28s0 .57-.57 0h-1.14s-.57 0 0-.57v-2.28s0-.57.57 0zm2.86-3.4l-1.71 1.14h-.57l-.58-1.14V29l1.71-1.14h.57L18.2 29z"/><circle class="1d253db5-579d-4eb9-be5c-ac28501168ed" cx="34.72" cy="19.92" r="3.41"/><path class="1d253db5-579d-4eb9-be5c-ac28501168ed" d="M38.13 16.51l-2.28-1.14v-.57l.57-1.14H37l2.28 1.14v.57zm.57 4.55v-2.28s0-.57.57 0h1.14s.57 0 0 .57v2.28s0 .57-.57 0zm-2.28 2.85l1.71-1.14h.57l.57 1.14v.57l-1.71 1.14H37l-.57-1.71c-.58.57-.58 0-.01 0zm-5.07-.57l2.28.57v.57l-.57 1.14h-.57l-2.28-.57v-.57l1.14-1.14c-.62 0 0-.57 0 0zm-.62-4.55v2.28s0 .57-.57 0H29s-.57 0 0-.57v-2.28s0-.57.57 0zm2.85-3.42l-1.71 1.14h-.52l-.57-1.14v-.57l1.71-1.14h.57l.57 1.14v.57z"/><circle class="1d253db5-579d-4eb9-be5c-ac28501168ed" cx="34.72" cy="34.15" r="3.41"/><path class="1d253db5-579d-4eb9-be5c-ac28501168ed" d="M38.13 30.74l-2.28-1.14V29l.57-1.14H37L39.27 29v.57l-1.14 1.14zm.57 4v-2.3s0-.57.57 0h1.14s.57 0 0 .57v2.28s0 .57-.57 0l-1.14-.57c.57.57 0 .57 0 0zm-2.28 3.42L38.13 37h.57l.57 1.14v.57l-1.71 1.14H37zM31.87 37l2.28.57v.57l-.57 1.14H33l-2.28-.57v-.57zm-1.14-4v2.28s0 .57-.57 0H29s-.57 0 0-.57v-2.28s0-.57.57 0zm2.85-3.4l-1.71 1.14h-.52l-.57-1.14V29l1.71-1.14h.57l.57 1.14s-.05 0-.05.6z"/><circle class="1d253db5-579d-4eb9-be5c-ac28501168ed" cx="34.72" cy="48.38" r="3.41"/><path class="1d253db5-579d-4eb9-be5c-ac28501168ed" d="M38.13 45l-2.28-1.14v-.57l.57-1.14H37l2.28 1.14v.57zm.57 4.52v-2.28s0-.57.57 0h1.14s.57 0 0 .57v2.28s0 .57-.57 0zm-2.28 2.85l1.71-1.14h.57l.57 1.14v.57l-1.71 1.14H37zm-5.07-1.14l2.28.57v.57l-.57 1.14h-.57l-2.28-.57v-.57zm-.62-4v2.28s0 .57-.57 0H29s-.57 0 0-.57v-2.27s0-.57.57 0zm2.85-3.41L31.87 45h-.52l-.57-1.14v-.57l1.71-1.14h.57l.57 1.14v.57z"/><circle class="1d253db5-579d-4eb9-be5c-ac28501168ed" cx="19.35" cy="48.38" r="3.41"/><path class="1d253db5-579d-4eb9-be5c-ac28501168ed" d="M22.76 45.54l-2.28-1.14v-.57l.57-1.14h.57l2.28 1.14v.57zm.59 4v-2.3s0-.57.57 0h1.14s.57 0 0 .57v2.28s0 .57-.57 0zm-2.29 2.85l1.71-1.14h.58l.57 1.14v.57l-1.71 1.14h-.57l-.57-1.71zm-4.56-.59l2.28.57v.57l-.57 1.14h-.57l-2.29-.58v-.57l1.14-1.14zm-1.15-4.56v2.28s0 .57-.57 0h-1.14s-.57 0 0-.57v-2.28s0-.57.57 0zm2.86-3.41L16.5 45h-.57l-.57-1.14v-.57l1.71-1.14h.57l.57 1.14c.57.54.57.54 0 .54z"/><circle class="62afc413-70a0-4130-8b61-13516261529e" cx="18.78" cy="33.58" r="3.41"/><path class="62afc413-70a0-4130-8b61-13516261529e" d="M22.2 30.74l-2.28-1.14V29l.57-1.14h.57L23.35 29v.57l-1.14 1.14zm.56 4v-2.3s0-.57.57 0h1.14s.57 0 0 .57v2.28s0 .57-.57 0zm-2.27 2.85l1.71-1.14h.57l.57 1.14v.57l-1.71 1.14h-.57l-.57-1.71c-.57.55 0 .55 0-.02zM15.35 37l2.28.57v.57l-.57 1.14h-.57l-2.28-.57v-.57zm-.55-4v2.28s0 .57-.57 0h-1.14s-.57 0 0-.57v-2.28s0-.57.57 0zm2.84-4l-1.71 1.14h-.58L14.78 29v-.57l1.71-1.14h.57l.57 1.14z"/><circle class="62afc413-70a0-4130-8b61-13516261529e" cx="34.72" cy="33.58" r="3.41"/><path class="62afc413-70a0-4130-8b61-13516261529e" d="M38.13 30.17L35.85 29v-.57l.57-1.14H37l2.28 1.14V29l-1.14 1.14zm.57 4.55v-2.28s0-.57.57 0h1.14s.57 0 0 .57v2.28s0 .57-.57 0zm-2.28 2.85l1.71-1.14h.57l.57 1.14v.57l-1.71 1.14H37l-.57-1.71c-.58.57-.58 0-.01 0zm-5.07-1.14l2.28.57v.57l-.57 1.14h-.57l-2.28-.57v-.57zm-.62-4v2.28s0 .57-.57 0H29s-.57 0 0-.57v-2.26s0-.57.57 0zM33.58 29l-1.71 1.14h-.52L30.78 29v-.57l1.71-1.14h.57l.57 1.14V29z"/><circle class="62afc413-70a0-4130-8b61-13516261529e" cx="34.15" cy="48.38" r="3.41"/><path class="62afc413-70a0-4130-8b61-13516261529e" d="M38.13 45l-2.28-1.14v-.57l.57-1.14H37l2.28 1.14v.57zm.57 4.52v-2.28s0-.57.57 0h1.14s.57 0 0 .57v2.28s0 .57-.57 0zm-2.85 2.85l1.71-1.14h.57l.57 1.14v.57L37 54.08h-.57zm-4.5-1.14l2.28.57v.57l-.57 1.14h-.57l-2.28-.57v-.57zm-1.19-4v2.28s0 .57-.57 0h-1.14s-.57 0 0-.57v-2.27s0-.57.57 0zm2.84-3.4L31.35 45h-.57l-.57-1.14v-.57l1.71-1.14h.57l.57 1.14c.52 0 .52.54-.05.54z"/><circle class="62afc413-70a0-4130-8b61-13516261529e" cx="19.35" cy="48.38" r="3.41"/><path class="62afc413-70a0-4130-8b61-13516261529e" d="M22.76 45l-2.28-1.14v-.57l.57-1.14h.57l2.28 1.14v.57zm.59 4v-2.28s0-.57.57 0h1.14s.57 0 0 .57v2.28s0 .57-.57 0zm-2.29 3.37l1.71-1.14h.58l.57 1.14v.57l-1.71 1.14h-.57l-.57-1.71zm-5.12-1.14l2.28.57v.57l-.57 1.14h-.57l-2.28-.57v-.57zm-.59-4v2.28s0 .57-.57 0h-1.14s-.57 0 0-.57v-2.27s0-.57.57 0zm2.86-3.41L16.5 45h-.57l-.57-1.14v-.57l1.71-1.14h.57l.57 1.14z"/><circle class="62afc413-70a0-4130-8b61-13516261529e" cx="19.35" cy="19.36" r="3.41"/><path class="62afc413-70a0-4130-8b61-13516261529e" d="M22.76 15.94l-2.28-1.14v-.57l.57-1.14h.57l2.28 1.14v.57zm.59 4v-2.3s0-.57.57 0h1.14s.57 0 0 .57v2.28s0 .57-.57 0zm-2.29 2.85l1.71-1.14h.58l.57 1.14v.57l-1.71 1.14h-.57l-.57-1.71zm-5.12-.57l2.28.57v.57l-.57 1.14h-.57l-2.28-.57v-.57zm-.59-4v2.28s0 .57-.57 0h-1.14s-.57 0 0-.57v-2.28s0-.57.57 0zm2.86-4l-1.71 1.15h-.57l-.57-1.14v-.57l1.71-1.14h.57l.57 1.14z"/><circle class="62afc413-70a0-4130-8b61-13516261529e" cx="34.15" cy="19.92" r="3.41"/><path class="62afc413-70a0-4130-8b61-13516261529e" d="M37.56 16.51l-2.28-1.14v-.57l.57-1.14h.57l2.28 1.14v.57zm.57 4v-2.3s0-.57.57 0h1.14s.57 0 0 .57v2.28s0 .57-.57 0zm-2.28 3.42l1.71-1.14h.57l.57 1.14v.57L37 25.62h-.57zm-5.12-1.14l2.28.57v.57l-.57 1.14h-.57l-2.28-.57v-.57zm-.57-4v2.28s0 .57-.57 0h-1.14s-.57 0 0-.57v-2.28s0-.57.57 0zM33 15.37l-1.66 1.14h-.57l-.57-1.14v-.57l1.71-1.14h.57l.57 1.14z"/><path class="2d3a7567-29c9-4df1-9f05-f61a34811bc5" d="M13.09 54.07H2.28A2.45 2.45 0 0 1 0 51.79V13.66a2.45 2.45 0 0 1 2.28-2.28h10.81a2.45 2.45 0 0 1 2.28 2.28V51.8a2.08 2.08 0 0 1-1.87 2.27z"/><path class="168a7a42-1441-4e91-952f-463749ecfd2f" d="M14.8 58.06H4a2.45 2.45 0 0 1-2.3-2.28V17.65A2.45 2.45 0 0 1 4 15.37h10.79a2.45 2.45 0 0 1 2.28 2.28v38.13a2.45 2.45 0 0 1-2.27 2.28zm4 24.47h-5.71a2.45 2.45 0 0 1-2.28-2.28v-5.69a2.45 2.45 0 0 1 2.28-2.28h5.69a2.45 2.45 0 0 1 2.28 2.28v5.69a2.45 2.45 0 0 1-2.28 2.28zm14.8 0h-5.71a2.45 2.45 0 0 1-2.28-2.28v-5.69a2.45 2.45 0 0 1 2.28-2.28h5.69a2.45 2.45 0 0 1 2.28 2.28v5.69a2.45 2.45 0 0 1-2.28 2.28z"/><path class="b7ede8c6-acde-4607-9555-c34e8a0aaf7b" d="M17.64 80.82H12a2.45 2.45 0 0 1-2.28-2.28v-5.69A2.45 2.45 0 0 1 12 70.57h5.69a2.45 2.45 0 0 1 2.28 2.28v5.69a2.45 2.45 0 0 1-2.33 2.28zm14.23 0h-5.69a2.45 2.45 0 0 1-2.28-2.28v-5.69a2.45 2.45 0 0 1 2.28-2.28h5.69a2.45 2.45 0 0 1 2.28 2.28v5.69a2.45 2.45 0 0 1-2.28 2.28z"/></g></g></g></g></svg>