<svg xmlns="http://www.w3.org/2000/svg" viewBox="0 0 102.03 205.34"><defs><style/></defs><g id="6c5ccdb1-9b3b-4460-9957-fd1d6f9e7ee7" data-name="Слой 2"><g id="1c071d89-bc0b-457d-86b5-50033407b8a7" data-name="tennis"><g id="98f312ec-1d68-4737-a655-ff92e078536b" data-name="Слой 2"><g id="b4eb66ea-2b7f-40bb-94c2-858aaebfdd7d" data-name="Слой 1-2"><path d="M3.85 0h95.86L98 205.34H2.19z" fill="#e28075"/><path class="6652716a-91ed-47cc-87a4-4124360ee014" d="M94.66 171.27l-87.52.49-.33-140 87.52-.49zm-86.77-.38l85.56.08-.16-137.64-85.56-.08z"/><path class="6652716a-91ed-47cc-87a4-4124360ee014" d="M16 33h1.14l.37 138.29h-1.15zm67.74-.17h1.14l.37 138.29h-1.14z"/><path class="6652716a-91ed-47cc-87a4-4124360ee014" d="M17 59.92l67.72-.18v1.14L17 61.06zm-.07 82.65l67.72-.18v1.14l-67.72.18z"/><path class="6652716a-91ed-47cc-87a4-4124360ee014" d="M50.67 60.69h1.14l.19 83.09h-1.11zM49.63 32.5h1.14v5.69h-1.13zm.82 133.5h1.14v5.69h-1.13zM1.18 101.43h.57v1.14h-.56z"/><path class="6652716a-91ed-47cc-87a4-4124360ee014" d="M98.44 102.36l-1.61.12-.12-1.61 1.61-.12zm-3.22.24l-1.63.09-.12-1.61 1.61-.12zm-2.84-.19l-1.61.12-.12-1.61 1.61-.12zm-3.22.24l-1.6.12-.12-1.61L89 101zm-3.64-.13l-1.6.12-.12-1.64 1.61-.12zm-2.85-.2l-1.6.12-.12-1.6 1.6-.12zm-3.21.24l-1.59.14-.07-1.59 1.6-.12zm-2.78-.16l-1.61.12-.12-1.6 1.61-.12zm-3.21.24l-1.66.12-.12-1.61 1.61-.15zm-3.22.24l-1.61.12-.12-1.61 1.61-.12zm-3.25-.56l-1.6.12-.12-1.61 1.6-.12zm-3.21.24l-1.61.12L62 101l1.61-.12zm-2.85-.23l-1.61.12-.12-1.61 1.61-.12zm-3.22.24l-1.61.12-.11-1.61 1.61-.12zm-2.84-.19l-1.61.12-.12-1.61 1.61-.12zm-3.22.24l-1.61.1-.12-1.61 1.6-.12zm-3.21.24l-1.61.12-.12-1.61 1.61-.12zm-3.27-.62l-1.61.12-.08-1.58 1.61-.12zm-3.21.24l-1.61.12-.15-1.6 1.61-.12zm-2.82-.16l-1.6.12-.12-1.6 1.61-.12zm-3.21.24l-1.61.12-.12-1.6 1.61-.12zm-3.22.24l-1.23-.31-.12-1.59 1.61-.12zm-2.84-.19l-1.61.12-.12-1.61 1.61-.12zm-3.22.24L25 103l-.12-1.61 1.6-.12zm-3.27-.56l-1.61.12-.12-1.61 1.61-.12zm-3.22.24l-1.61.12-.09-1.59 1.61-.12zm-3.18.26l-1.64.15-.12-1.61 1.6-.12zm-2.85-.19l-1.6.12-.12-1.61L14 101zm-3.21.24l-1.64.16-.12-1.61 1.61-.12zm-2.85-.19l-1.61.1-.12-1.61 1.58-.14zm-3.21.24l-1.64.11-.12-1.61 1.61-.12zm94.99-1.99h.57v1.1h-.57z"/><path class="6652716a-91ed-47cc-87a4-4124360ee014" d="M1.84 100.27A2 2 0 1 0 4 102.13a2.56 2.56 0 0 0-2.16-1.86zm98-.44a2 2 0 1 0 2.16 1.86 2.55 2.55 0 0 0-2.13-1.86z"/></g></g></g></g></svg>